<svg width="177" height="57" viewBox="0 0 177 57" fill="none" xmlns="http://www.w3.org/2000/svg">
<g clip-path="url(#clip0_22321_27228)">
<g clip-path="url(#clip1_22321_27228)">
<path d="M22.7009 41.1642C22.2958 43.786 20.2486 45.416 17.3541 45.416C13.7006 45.416 11.3403 42.6271 11.3403 38.3121C11.3403 34.234 13.6648 31.7056 17.4078 31.7056C20.0543 31.7056 22.0376 33.2263 22.4593 35.5798L22.5105 35.856H27.4828L27.4342 35.4745C26.7851 30.3164 22.7993 26.8513 17.5189 26.8513H17.3579C14.3216 26.8513 11.5358 28.0129 9.51284 30.1217C7.45413 32.2686 6.34235 35.2285 6.38963 38.4463C6.34874 41.7667 7.4848 44.803 9.58441 46.9973C11.6112 49.11 14.3919 50.2729 17.418 50.2729H17.5739C22.7277 50.2729 26.8835 46.5723 27.6796 41.2734L27.7384 40.8787H22.7469L22.7009 41.1642Z" fill="black"/>
<path d="M53.6502 45.6253C53.6208 45.1346 53.4751 43.9348 53.3512 43.0482C53.0841 41.3235 52.4669 40.2856 51.3346 39.7107C53.1007 38.6425 54.0285 36.7981 54.0285 34.3302C54.0285 29.8087 51.2631 27.2145 46.4428 27.2145H36.2783V49.7468H41.128V41.4472H45.3796C47.9597 41.5787 47.9673 41.6287 48.4018 44.39L48.5629 45.6608C48.7711 47.4131 48.9104 48.5707 49.3424 49.5495L49.4293 49.7468H54.4029V49.0628L54.3773 48.9983C53.8764 47.8077 53.7805 47.125 53.6502 45.6253ZM41.1267 32.0675H45.6083C47.175 32.0675 49.0433 32.4937 49.0433 34.5249C49.0433 36.1732 47.9328 37.0086 45.7425 37.0086H41.128L41.1267 32.0675Z" fill="black"/>
<path d="M60.9744 40.6999H72.1011V36.068H60.9744V32.0675H73.0416V27.2145H56.126V49.7468H73.1758V44.8939H60.9744V40.6999Z" fill="black"/>
<path d="M84.1147 27.2145L74.5547 49.7468H79.7941L81.6739 45.182H91.6671L93.5431 49.7468H98.7825L89.2199 27.2145H84.1147ZM83.6738 40.329L86.691 33.1659L89.6634 40.329H83.6738Z" fill="black"/>
<path d="M115.362 27.2145H94.4961V32.0964H102.505V49.7468H107.353V32.0964H115.362V27.2145Z" fill="black"/>
<path d="M126.271 26.7712H125.951C122.806 26.7712 119.944 27.9459 117.9 30.0797C115.855 32.2135 114.756 35.1563 114.791 38.3649C114.751 41.6827 115.881 44.7084 117.971 46.8882C120.016 49.0181 122.849 50.1915 125.952 50.1915H126.269C129.296 50.1915 132.073 49.0365 134.083 46.9395C136.18 44.7531 137.311 41.709 137.278 38.3741C137.317 35.1287 136.211 32.1648 134.162 30.0284C132.147 27.9236 129.346 26.7712 126.278 26.7712H126.271ZM126.112 45.3372C122.365 45.3372 119.749 42.4154 119.749 38.2334C119.749 34.3447 122.365 31.6281 126.112 31.6281C129.764 31.6281 132.314 34.3447 132.314 38.2334C132.314 42.4167 129.759 45.3372 126.112 45.3372" fill="black"/>
<path d="M156.205 45.6253C156.177 45.1425 156.034 43.9651 155.906 43.0482C155.639 41.3235 155.022 40.2856 153.89 39.7107C155.656 38.6425 156.582 36.7981 156.582 34.3302C156.582 29.8087 153.818 27.2145 148.997 27.2145H138.833V49.7468H143.682V41.4472H147.933C150.514 41.5787 150.523 41.6287 150.957 44.39L151.118 45.6608C151.326 47.4131 151.466 48.5707 151.896 49.5495L151.984 49.7468H156.958V49.0628L156.933 48.9983C156.432 47.8064 156.336 47.1237 156.205 45.6253V45.6253ZM143.682 32.0675H148.165C149.732 32.0675 151.599 32.4937 151.599 34.5249C151.599 36.1732 150.489 37.0086 148.3 37.0086H143.682V32.0675Z" fill="black"/>
<path d="M174.782 38.8308C173.925 37.8862 172.993 37.2772 171.917 36.9667C170.895 36.6707 169.54 36.4142 167.755 36.1774C166.549 36.034 165.628 35.859 165.071 35.7406C163.282 35.317 163.068 34.4251 163.068 33.8015C163.068 31.8401 165.038 31.4336 166.69 31.4336C168.957 31.4336 170.3 32.465 170.476 34.337L170.504 34.6422H175.752V34.3041C175.752 29.7997 172.143 26.774 166.771 26.774C161.493 26.774 158.081 29.5563 158.081 33.862C158.081 35.6025 158.5 36.947 159.318 37.8481C160.073 38.7585 161.073 39.4193 162.191 39.7477C163.547 40.1198 164.926 40.3915 166.32 40.5607C167.618 40.7423 168.515 40.9146 169.032 41.0238C170.78 41.4461 170.983 42.3183 170.983 42.9366C170.983 44.5612 169.497 45.5321 167.01 45.5321C164.423 45.5321 162.898 44.2376 162.823 41.9802L162.812 41.6552H157.464V41.9933C157.464 46.97 161.17 50.1877 166.903 50.1877C172.424 50.1877 175.992 47.3186 175.992 42.8774C175.992 41.1409 175.585 39.7819 174.774 38.8282" fill="black"/>
<path d="M17.0575 56.1246C7.65212 56.1246 0 48.2433 0 38.5597C0 28.8761 7.65212 21 17.0575 21C26.4629 21 34.1202 28.8774 34.1202 38.5597C34.1202 48.2419 26.4642 56.1246 17.0575 56.1246ZM17.0575 24.3835C14.333 24.3835 11.6697 25.2153 9.40438 26.7736C7.13908 28.3319 5.37356 30.5467 4.33111 33.138C3.28866 35.7293 3.0161 38.5807 3.5479 41.3315C4.07971 44.0822 5.39199 46.6089 7.31878 48.5918C9.24558 50.5748 11.7003 51.925 14.3726 52.4717C17.0449 53.0184 19.8146 52.737 22.3315 51.6631C24.8484 50.5893 26.9994 48.7712 28.5125 46.4388C30.0256 44.1063 30.8329 41.3644 30.8321 38.5597C30.828 34.8003 29.3755 31.1961 26.7931 28.5379C24.2107 25.8798 20.7094 24.3847 17.0575 24.3809" fill="black"/>
</g>
</g>
<path d="M100.18 7.72656H104.406C106.594 7.72656 108.117 9.23438 108.117 11.4297C108.117 13.6328 106.562 15.1484 104.352 15.1484H101.93V19H100.18V7.72656ZM101.93 9.20312V13.6797H103.938C105.461 13.6797 106.328 12.8594 106.328 11.4375C106.328 10.0156 105.461 9.20312 103.945 9.20312H101.93ZM114.523 7.53906C117.766 7.53906 119.805 9.78125 119.805 13.3672C119.805 16.9531 117.766 19.1875 114.523 19.1875C111.273 19.1875 109.242 16.9531 109.242 13.3672C109.242 9.78125 111.273 7.53906 114.523 7.53906ZM114.523 9.07812C112.383 9.07812 111.031 10.7344 111.031 13.3672C111.031 15.9922 112.383 17.6484 114.523 17.6484C116.664 17.6484 118.008 15.9922 118.008 13.3672C118.008 10.7344 116.664 9.07812 114.523 9.07812ZM127.516 10.5L125.086 19H123.43L120.391 7.72656H122.211L124.297 16.5547H124.359L126.742 7.72656H128.367L130.758 16.5547H130.82L132.906 7.72656H134.727L131.68 19H130.031L127.594 10.5H127.516ZM143.273 17.4844V19H136.117V7.72656H143.273V9.23438H137.867V12.5312H142.984V13.9844H137.867V17.4844H143.273ZM146.82 9.19531V13.25H149.273C150.625 13.25 151.398 12.5078 151.398 11.2188C151.398 9.96094 150.578 9.19531 149.227 9.19531H146.82ZM146.82 14.6641V19H145.07V7.72656H149.438C151.758 7.72656 153.203 9.07031 153.203 11.1719C153.203 12.6953 152.391 13.9297 151.016 14.3906L153.539 19H151.523L149.227 14.6641H146.82ZM162.672 19H158.148V7.72656H162.648C164.648 7.72656 165.961 8.83594 165.961 10.5391C165.961 11.7344 165.078 12.8047 163.953 12.9922V13.0547C165.484 13.2266 166.516 14.3125 166.516 15.8125C166.516 17.7969 165.07 19 162.672 19ZM159.898 9.15625V12.5234H161.859C163.375 12.5234 164.211 11.8984 164.211 10.7812C164.211 9.73438 163.492 9.15625 162.227 9.15625H159.898ZM159.898 17.5703H162.312C163.891 17.5703 164.727 16.9219 164.727 15.7031C164.727 14.4844 163.867 13.8594 162.211 13.8594H159.898V17.5703ZM172.812 19H171.062V14.3828L167.094 7.72656H169.047L171.922 12.7031H171.977L174.852 7.72656H176.789L172.812 14.3828V19Z" fill="black"/>
<defs>
<clipPath id="clip0_22321_27228">
<rect width="176" height="36" fill="white" transform="translate(0 21)"/>
</clipPath>
<clipPath id="clip1_22321_27228">
<rect width="176" height="36" fill="white" transform="translate(0 21)"/>
</clipPath>
</defs>
</svg>
