<svg width="177" height="57" viewBox="0 0 177 57" fill="none" xmlns="http://www.w3.org/2000/svg">
<g clip-path="url(#clip0_3845_12512)">
<g clip-path="url(#clip1_3845_12512)">
<path d="M22.7014 41.1643C22.2963 43.7861 20.249 45.416 17.3546 45.416C13.701 45.416 11.3407 42.6271 11.3407 38.3122C11.3407 34.2341 13.6653 31.7056 17.4083 31.7056C20.0548 31.7056 22.0381 33.2264 22.4598 35.5798L22.5109 35.8561H27.4833L27.4347 35.4746C26.7856 30.3164 22.7998 26.8513 17.5194 26.8513H17.3584C14.3221 26.8513 11.5363 28.0129 9.51333 30.1217C7.45462 32.2687 6.34284 35.2286 6.39012 38.4464C6.34923 41.7668 7.48529 44.803 9.58489 46.9973C11.6117 49.11 14.3924 50.273 17.4185 50.273H17.5744C22.7282 50.273 26.884 46.5724 27.6801 41.2735L27.7389 40.8788H22.7474L22.7014 41.1643Z" fill="black"/>
<path d="M53.6512 45.6253C53.6218 45.1346 53.4761 43.9348 53.3521 43.0482C53.0851 41.3235 52.4678 40.2856 51.3356 39.7107C53.1017 38.6425 54.0294 36.7981 54.0294 34.3302C54.0294 29.8087 51.264 27.2145 46.4438 27.2145H36.2793V49.7468H41.129V41.4472H45.3806C47.9607 41.5787 47.9683 41.6287 48.4028 44.39L48.5638 45.6608C48.7721 47.4131 48.9114 48.5707 49.3434 49.5495L49.4302 49.7468H54.4039V49.0628L54.3783 48.9983C53.8774 47.8077 53.7815 47.125 53.6512 45.6253ZM41.1277 32.0675H45.6093C47.176 32.0675 49.0443 32.4937 49.0443 34.5249C49.0443 36.1732 47.9338 37.0086 45.7435 37.0086H41.129L41.1277 32.0675Z" fill="black"/>
<path d="M60.9734 40.6999H72.1001V36.068H60.9734V32.0675H73.0407V27.2145H56.125V49.7468H73.1749V44.8939H60.9734V40.6999Z" fill="black"/>
<path d="M84.1147 27.2145L74.5547 49.7468H79.7941L81.6739 45.182H91.6671L93.5431 49.7468H98.7825L89.2199 27.2145H84.1147ZM83.6738 40.329L86.691 33.1659L89.6634 40.329H83.6738Z" fill="black"/>
<path d="M115.362 27.2145H94.4961V32.0964H102.505V49.7468H107.353V32.0964H115.362V27.2145Z" fill="black"/>
<path d="M126.271 26.7712H125.95C122.805 26.7712 119.944 27.946 117.899 30.0798C115.855 32.2136 114.756 35.1564 114.79 38.365C114.75 41.6827 115.88 44.7084 117.971 46.8883C120.015 49.0181 122.849 50.1916 125.951 50.1916H126.268C129.296 50.1916 132.072 49.0365 134.083 46.9396C136.18 44.7532 137.311 41.709 137.277 38.3742C137.317 35.1288 136.21 32.1649 134.162 30.0285C132.147 27.9236 129.345 26.7712 126.277 26.7712H126.271ZM126.111 45.3373C122.364 45.3373 119.748 42.4155 119.748 38.2334C119.748 34.3447 122.364 31.6282 126.111 31.6282C129.763 31.6282 132.314 34.3447 132.314 38.2334C132.314 42.4168 129.758 45.3373 126.111 45.3373" fill="black"/>
<path d="M156.206 45.6253C156.178 45.1425 156.035 43.9651 155.907 43.0482C155.64 41.3235 155.023 40.2856 153.89 39.7107C155.656 38.6425 156.583 36.7981 156.583 34.3302C156.583 29.8087 153.819 27.2145 148.997 27.2145H138.834V49.7468H143.682V41.4472H147.934C150.514 41.5787 150.523 41.6287 150.958 44.39L151.119 45.6608C151.327 47.4131 151.466 48.5707 151.897 49.5495L151.985 49.7468H156.959V49.0628L156.933 48.9983C156.432 47.8064 156.336 47.1237 156.206 45.6253V45.6253ZM143.682 32.0675H148.165C149.732 32.0675 151.599 32.4937 151.599 34.5249C151.599 36.1732 150.49 37.0086 148.301 37.0086H143.682V32.0675Z" fill="black"/>
<path d="M174.781 38.8307C173.924 37.8862 172.992 37.2771 171.916 36.9666C170.894 36.6706 169.539 36.4141 167.754 36.1773C166.548 36.0339 165.627 35.859 165.07 35.7406C163.281 35.317 163.067 34.425 163.067 33.8015C163.067 31.84 165.037 31.4335 166.689 31.4335C168.956 31.4335 170.3 32.4649 170.475 34.3369L170.503 34.6421H175.751V34.304C175.751 29.7996 172.142 26.7739 166.77 26.7739C161.492 26.7739 158.08 29.5563 158.08 33.862C158.08 35.6024 158.499 36.9469 159.317 37.848C160.072 38.7584 161.072 39.4192 162.19 39.7477C163.546 40.1198 164.925 40.3915 166.319 40.5607C167.617 40.7422 168.514 40.9145 169.031 41.0237C170.779 41.446 170.982 42.3182 170.982 42.9365C170.982 44.5612 169.496 45.532 167.009 45.532C164.422 45.532 162.897 44.2375 162.822 41.9801L162.811 41.6552H157.463V41.9933C157.463 46.9699 161.169 50.1877 166.902 50.1877C172.423 50.1877 175.991 47.3185 175.991 42.8773C175.991 41.1408 175.584 39.7819 174.773 38.8281" fill="black"/>
<path d="M17.0575 56.1246C7.65212 56.1246 0 48.2433 0 38.5597C0 28.8761 7.65212 21 17.0575 21C26.4629 21 34.1202 28.8774 34.1202 38.5597C34.1202 48.2419 26.4642 56.1246 17.0575 56.1246ZM17.0575 24.3835C14.333 24.3835 11.6697 25.2153 9.40438 26.7736C7.13908 28.3319 5.37356 30.5467 4.33111 33.138C3.28866 35.7293 3.0161 38.5807 3.5479 41.3315C4.07971 44.0822 5.39199 46.6089 7.31878 48.5918C9.24558 50.5748 11.7003 51.925 14.3726 52.4717C17.0449 53.0184 19.8146 52.737 22.3315 51.6631C24.8484 50.5893 26.9994 48.7712 28.5125 46.4388C30.0256 44.1063 30.8329 41.3644 30.8321 38.5597C30.828 34.8003 29.3755 31.1961 26.7931 28.5379C24.2107 25.8798 20.7094 24.3847 17.0575 24.3809" fill="black"/>
</g>
</g>
<path d="M80.2422 7.72656H84.4688C86.6562 7.72656 88.1797 9.23438 88.1797 11.4297C88.1797 13.6328 86.625 15.1484 84.4141 15.1484H81.9922V19H80.2422V7.72656ZM81.9922 9.20312V13.6797H84C85.5234 13.6797 86.3906 12.8594 86.3906 11.4375C86.3906 10.0156 85.5234 9.20312 84.0078 9.20312H81.9922ZM94.5859 7.53906C97.8281 7.53906 99.8672 9.78125 99.8672 13.3672C99.8672 16.9531 97.8281 19.1875 94.5859 19.1875C91.3359 19.1875 89.3047 16.9531 89.3047 13.3672C89.3047 9.78125 91.3359 7.53906 94.5859 7.53906ZM94.5859 9.07812C92.4453 9.07812 91.0938 10.7344 91.0938 13.3672C91.0938 15.9922 92.4453 17.6484 94.5859 17.6484C96.7266 17.6484 98.0703 15.9922 98.0703 13.3672C98.0703 10.7344 96.7266 9.07812 94.5859 9.07812ZM107.578 10.5L105.148 19H103.492L100.453 7.72656H102.273L104.359 16.5547H104.422L106.805 7.72656H108.43L110.82 16.5547H110.883L112.969 7.72656H114.789L111.742 19H110.094L107.656 10.5H107.578ZM123.336 17.4844V19H116.18V7.72656H123.336V9.23438H117.93V12.5312H123.047V13.9844H117.93V17.4844H123.336ZM126.883 9.19531V13.25H129.336C130.688 13.25 131.461 12.5078 131.461 11.2188C131.461 9.96094 130.641 9.19531 129.289 9.19531H126.883ZM126.883 14.6641V19H125.133V7.72656H129.5C131.82 7.72656 133.266 9.07031 133.266 11.1719C133.266 12.6953 132.453 13.9297 131.078 14.3906L133.602 19H131.586L129.289 14.6641H126.883ZM142.117 17.4844V19H134.961V7.72656H142.117V9.23438H136.711V12.5312H141.828V13.9844H136.711V17.4844H142.117ZM143.914 7.72656H147.891C151.242 7.72656 153.227 9.78906 153.227 13.3438C153.227 16.9062 151.25 19 147.891 19H143.914V7.72656ZM145.664 9.23438V17.4844H147.727C150.117 17.4844 151.438 16.0234 151.438 13.3594C151.438 10.7031 150.109 9.23438 147.727 9.23438H145.664ZM162.672 19H158.148V7.72656H162.648C164.648 7.72656 165.961 8.83594 165.961 10.5391C165.961 11.7344 165.078 12.8047 163.953 12.9922V13.0547C165.484 13.2266 166.516 14.3125 166.516 15.8125C166.516 17.7969 165.07 19 162.672 19ZM159.898 9.15625V12.5234H161.859C163.375 12.5234 164.211 11.8984 164.211 10.7812C164.211 9.73438 163.492 9.15625 162.227 9.15625H159.898ZM159.898 17.5703H162.312C163.891 17.5703 164.727 16.9219 164.727 15.7031C164.727 14.4844 163.867 13.8594 162.211 13.8594H159.898V17.5703ZM172.812 19H171.062V14.3828L167.094 7.72656H169.047L171.922 12.7031H171.977L174.852 7.72656H176.789L172.812 14.3828V19Z" fill="#1E1E1E"/>
<defs>
<clipPath id="clip0_3845_12512">
<rect width="176" height="36" fill="white" transform="translate(0 21)"/>
</clipPath>
<clipPath id="clip1_3845_12512">
<rect width="176" height="36" fill="white" transform="translate(0 21)"/>
</clipPath>
</defs>
</svg>
