<svg width="158" height="32" viewBox="0 0 158 32" fill="none" xmlns="http://www.w3.org/2000/svg">
<g clip-path="url(#clip0_2412_4504)">
<g clip-path="url(#clip1_2412_4504)">
<path d="M20.3797 17.9238C20.016 20.2543 18.1782 21.7032 15.5798 21.7032C12.2999 21.7032 10.181 19.2241 10.181 15.3886C10.181 11.7636 12.2677 9.5161 15.6279 9.5161C18.0038 9.5161 19.7843 10.8679 20.1629 12.9599L20.2088 13.2054H24.6726L24.629 12.8663C24.0462 8.28126 20.468 5.20117 15.7277 5.20117H15.5832C12.8574 5.20117 10.3565 6.23371 8.54044 8.1082C6.69228 10.0166 5.6942 12.6476 5.73665 15.5079C5.69994 18.4594 6.71981 21.1582 8.60469 23.1087C10.4242 24.9867 12.9205 26.0204 15.6371 26.0204H15.7771C20.4038 26.0204 24.1345 22.731 24.8492 18.0208L24.902 17.67H20.421L20.3797 17.9238Z" fill="black"/>
<path d="M48.1636 21.8891C48.1372 21.4529 48.0064 20.3865 47.8951 19.5983C47.6554 18.0653 47.1013 17.1427 46.0848 16.6317C47.6703 15.6821 48.5031 14.0427 48.5031 11.849C48.5031 7.8299 46.0206 5.52393 41.6933 5.52393H32.5684V25.5527H36.922V18.1752H40.7388C43.055 18.2921 43.0619 18.3366 43.452 20.7911L43.5965 21.9207C43.7835 23.4782 43.9086 24.5073 44.2963 25.3773L44.3743 25.5527H48.8393V24.9446L48.8163 24.8873C48.3666 23.8291 48.2806 23.2222 48.1636 21.8891ZM36.9209 9.83769H40.9442C42.3506 9.83769 44.0279 10.2166 44.0279 12.022C44.0279 13.4873 43.0309 14.2298 41.0646 14.2298H36.922L36.9209 9.83769Z" fill="black"/>
<path d="M54.7383 17.511H64.7271V13.3937H54.7383V9.83769H65.5714V5.52393H50.3857V25.5527H65.6919V21.2389H54.7383V17.511Z" fill="black"/>
<path d="M75.512 5.52393L66.9297 25.5527H71.6333L73.3208 21.495H82.292L83.9761 25.5527H88.6797L80.0951 5.52393H75.512ZM75.1162 17.1813L77.8248 10.8141L80.4932 17.1813H75.1162Z" fill="black"/>
<path d="M103.564 5.52393H84.832V9.86341H92.0216V25.5527H96.3741V9.86341H103.564V5.52393Z" fill="black"/>
<path d="M113.357 5.12988H113.069C110.246 5.12988 107.677 6.17412 105.842 8.07082C104.006 9.96751 103.02 12.5834 103.051 15.4354C103.015 18.3845 104.029 21.0741 105.906 23.0117C107.742 24.9049 110.285 25.9479 113.07 25.9479H113.355C116.073 25.9479 118.566 24.9213 120.37 23.0573C122.253 21.1138 123.268 18.4079 123.238 15.4436C123.274 12.5588 122.28 9.92425 120.441 8.02521C118.632 6.15424 116.117 5.12988 113.363 5.12988H113.357ZM113.214 21.633C109.85 21.633 107.502 19.0359 107.502 15.3185C107.502 11.8619 109.85 9.44715 113.214 9.44715C116.493 9.44715 118.782 11.8619 118.782 15.3185C118.782 19.037 116.488 21.633 113.214 21.633" fill="black"/>
<path d="M140.23 21.8891C140.205 21.4599 140.076 20.4134 139.962 19.5983C139.722 18.0653 139.168 17.1427 138.151 16.6317C139.737 15.6821 140.568 14.0427 140.568 11.849C140.568 7.8299 138.087 5.52393 133.759 5.52393H124.635V25.5527H128.987V18.1752H132.804C135.12 18.2921 135.128 18.3366 135.518 20.7911L135.663 21.9207C135.85 23.4782 135.975 24.5073 136.362 25.3773L136.441 25.5527H140.906V24.9446L140.883 24.8873C140.433 23.8279 140.347 23.221 140.23 21.8891V21.8891ZM128.987 9.83769H133.012C134.418 9.83769 136.094 10.2166 136.094 12.022C136.094 13.4873 135.098 14.2298 133.133 14.2298H128.987V9.83769Z" fill="black"/>
<path d="M156.906 15.8495C156.137 15.0099 155.3 14.4685 154.334 14.1925C153.417 13.9294 152.201 13.7014 150.598 13.4909C149.515 13.3634 148.689 13.2079 148.189 13.1027C146.583 12.7261 146.39 11.9333 146.39 11.379C146.39 9.63552 148.159 9.27419 149.642 9.27419C151.677 9.27419 152.883 10.191 153.04 11.855L153.066 12.1263H157.777V11.8257C157.777 7.82185 154.537 5.13232 149.715 5.13232C144.977 5.13232 141.913 7.60551 141.913 11.4328C141.913 12.9799 142.29 14.175 143.024 14.976C143.702 15.7852 144.599 16.3726 145.603 16.6645C146.82 16.9953 148.059 17.2368 149.31 17.3872C150.475 17.5486 151.28 17.7017 151.744 17.7988C153.313 18.1742 153.496 18.9495 153.496 19.499C153.496 20.9432 152.162 21.8062 149.929 21.8062C147.607 21.8062 146.237 20.6555 146.171 18.6489L146.16 18.3601H141.359V18.6606C141.359 23.0843 144.686 25.9445 149.833 25.9445C154.79 25.9445 157.993 23.3942 157.993 19.4464C157.993 17.9029 157.627 16.6949 156.9 15.8471" fill="black"/>
<path d="M15.313 31.2218C6.86952 31.2218 0 24.2162 0 15.6086C0 7.00094 6.86952 0 15.313 0C23.7565 0 30.6306 7.00211 30.6306 15.6086C30.6306 24.2151 23.7576 31.2218 15.313 31.2218ZM15.313 3.00759C12.8671 3.00759 10.4762 3.74692 8.44257 5.13207C6.40895 6.51723 4.82399 8.48599 3.88815 10.7894C2.95232 13.0927 2.70763 15.6273 3.18505 18.0724C3.66247 20.5175 4.84054 22.7634 6.57027 24.5261C8.30001 26.2887 10.5037 27.4889 12.9027 27.9748C15.3016 28.4608 17.7881 28.2107 20.0476 27.2561C22.3071 26.3016 24.2381 24.6855 25.5965 22.6122C26.9548 20.539 27.6795 18.1017 27.6788 15.6086C27.6752 12.2669 26.3711 9.06318 24.0529 6.70037C21.7346 4.33756 18.5914 3.00865 15.313 3.00525" fill="black"/>
</g>
</g>
<defs>
<clipPath id="clip0_2412_4504">
<rect width="158" height="32" fill="white"/>
</clipPath>
<clipPath id="clip1_2412_4504">
<rect width="158" height="32" fill="white"/>
</clipPath>
</defs>
</svg>
