<svg width="132" height="80" viewBox="0 0 132 80" fill="none" xmlns="http://www.w3.org/2000/svg">
<mask id="mask0_599_59" style="mask-type:luminance" maskUnits="userSpaceOnUse" x="0" y="0" width="132" height="80">
<path d="M131.536 0H0V80H131.536V0Z" fill="white"/>
</mask>
<g mask="url(#mask0_599_59)">
<mask id="mask1_599_59" style="mask-type:luminance" maskUnits="userSpaceOnUse" x="2" y="6" width="128" height="68">
<path d="M2.06689 6.13295H129.466V73.6961H2.06689V6.13295Z" fill="white"/>
</mask>
<g mask="url(#mask1_599_59)">
<mask id="mask2_599_59" style="mask-type:luminance" maskUnits="userSpaceOnUse" x="2" y="6" width="128" height="68">
<path d="M3.18932 6.13295H128.344C128.641 6.13295 128.927 6.25116 129.137 6.46184C129.348 6.67251 129.466 6.95809 129.466 7.25537V72.4263C129.466 72.7235 129.348 73.0091 129.137 73.2198C128.927 73.4305 128.641 73.5487 128.344 73.5487H3.18932C2.89086 73.5487 2.60528 73.4305 2.39461 73.2198C2.18511 73.0091 2.06689 72.7235 2.06689 72.4263V7.25537C2.06689 6.95809 2.18511 6.67251 2.39461 6.46184C2.60528 6.25116 2.89086 6.13295 3.18932 6.13295Z" fill="white"/>
</mask>
<g mask="url(#mask2_599_59)">
<path d="M3.18932 6.13295H128.344C128.641 6.13295 128.927 6.25116 129.137 6.46184C129.348 6.67251 129.466 6.95809 129.466 7.25537V72.4263C129.466 72.7235 129.348 73.0091 129.137 73.2198C128.927 73.4305 128.641 73.5487 128.344 73.5487H3.18932C2.89086 73.5487 2.60528 73.4305 2.39461 73.2198C2.18511 73.0091 2.06689 72.7235 2.06689 72.4263V7.25537C2.06689 6.95809 2.18511 6.67251 2.39461 6.46184C2.60528 6.25116 2.89086 6.13295 3.18932 6.13295Z" stroke="url(#paint0_linear_599_59)" stroke-width="1.99822"/>
</g>
</g>
<mask id="mask3_599_59" style="mask-type:luminance" maskUnits="userSpaceOnUse" x="5" y="67" width="14" height="13">
<path d="M5.81458 67.1805H18.4433V79.8092H5.81458V67.1805Z" fill="white"/>
</mask>
<g mask="url(#mask3_599_59)">
<path d="M12.1851 67.1805C11.5648 72.4274 11.0604 72.9307 5.81458 73.5522C5.82511 73.5534 5.83564 73.5545 5.84618 73.5557H5.84735C11.0627 74.1749 11.566 74.6875 12.1851 79.9228C12.8066 74.6758 13.3099 74.1725 18.5557 73.5522C13.3099 72.9307 12.8066 72.4274 12.1851 67.1805Z" fill="#2D0B24"/>
</g>
<mask id="mask4_599_59" style="mask-type:luminance" maskUnits="userSpaceOnUse" x="52" y="56" width="9" height="8">
<path d="M52.5526 56.1166H60.0924V63.0805H52.5526V56.1166Z" fill="white"/>
</mask>
<g mask="url(#mask4_599_59)">
<mask id="mask5_599_59" style="mask-type:luminance" maskUnits="userSpaceOnUse" x="52" y="56" width="9" height="8">
<path d="M56.2933 62.3713C54.7448 62.3713 53.4702 61.1271 53.4702 59.629C53.4702 58.132 54.6851 56.8294 56.3529 56.8294C57.9798 56.8294 59.1748 58.132 59.1748 59.629C59.1748 61.1271 57.8405 62.3713 56.2933 62.3713ZM56.319 56.1412C54.0823 56.1412 52.5585 57.7177 52.5585 59.6278C52.5585 61.6374 54.2427 63.0559 56.319 63.0559C58.3965 63.0559 60.0807 61.6573 60.0807 59.6278C60.0795 57.7177 58.5358 56.1412 56.319 56.1412Z" fill="white"/>
</mask>
<g mask="url(#mask5_599_59)">
<mask id="mask6_599_59" style="mask-type:luminance" maskUnits="userSpaceOnUse" x="52" y="56" width="9" height="8">
<path d="M60.2247 56.03H52.4344V63.221H60.2247V56.03Z" fill="white"/>
</mask>
<g mask="url(#mask6_599_59)">
<mask id="mask7_599_59" style="mask-type:luminance" maskUnits="userSpaceOnUse" x="52" y="56" width="9" height="8">
<path d="M52.5526 56.1189H60.0924V63.0805H52.5526V56.1189Z" fill="white"/>
</mask>
<g mask="url(#mask7_599_59)">
<mask id="mask8_599_59" style="mask-type:luminance" maskUnits="userSpaceOnUse" x="52" y="56" width="9" height="8">
<path d="M56.2933 62.3712C54.7448 62.3712 53.4702 61.1271 53.4702 59.629C53.4702 58.132 54.6851 56.8293 56.3529 56.8293C57.9798 56.8293 59.1748 58.132 59.1748 59.629C59.1748 61.1271 57.8405 62.3712 56.2933 62.3712ZM56.319 56.1411C54.0823 56.1411 52.5585 57.7177 52.5585 59.6278C52.5585 61.6374 54.2427 63.0559 56.319 63.0559C58.3965 63.0559 60.0807 61.6573 60.0807 59.6278C60.0795 57.7177 58.5358 56.1411 56.319 56.1411Z" fill="white"/>
</mask>
<g mask="url(#mask8_599_59)">
<path d="M60.2247 56.03H52.4344V63.221H60.2247V56.03Z" fill="#2D0B24"/>
</g>
</g>
</g>
</g>
</g>
<mask id="mask9_599_59" style="mask-type:luminance" maskUnits="userSpaceOnUse" x="50" y="57" width="3" height="3">
<path d="M50.5383 57.0658H52.1792V59.0262H50.5383V57.0658Z" fill="white"/>
</mask>
<g mask="url(#mask9_599_59)">
<mask id="mask10_599_59" style="mask-type:luminance" maskUnits="userSpaceOnUse" x="50" y="57" width="3" height="3">
<path d="M50.5618 59.0262H51.1329L52.1711 57.0739H51.3366L50.5618 59.0262Z" fill="white"/>
</mask>
<g mask="url(#mask10_599_59)">
<mask id="mask11_599_59" style="mask-type:luminance" maskUnits="userSpaceOnUse" x="50" y="56" width="3" height="4">
<path d="M52.4344 56.9288H50.337V59.0262H52.4344V56.9288Z" fill="white"/>
</mask>
<g mask="url(#mask11_599_59)">
<mask id="mask12_599_59" style="mask-type:luminance" maskUnits="userSpaceOnUse" x="50" y="57" width="3" height="3">
<path d="M50.5383 57.0658H52.1792V59.0262H50.5383V57.0658Z" fill="white"/>
</mask>
<g mask="url(#mask12_599_59)">
<mask id="mask13_599_59" style="mask-type:luminance" maskUnits="userSpaceOnUse" x="50" y="57" width="3" height="3">
<path d="M50.5618 59.0262H51.1329L52.1711 57.074H51.3366L50.5618 59.0262Z" fill="white"/>
</mask>
<g mask="url(#mask13_599_59)">
<path d="M52.4344 56.9288H50.337V59.0262H52.4344V56.9288Z" fill="#2D0B24"/>
</g>
</g>
</g>
</g>
</g>
<mask id="mask14_599_59" style="mask-type:luminance" maskUnits="userSpaceOnUse" x="46" y="57" width="6" height="6">
<path d="M46.9944 57.0739H47.7657V61.9885H46.9944V57.0739ZM46.9944 61.9885H51.9803V62.5901H46.9944V61.9885Z" fill="white"/>
</mask>
<g mask="url(#mask14_599_59)">
<mask id="mask15_599_59" style="mask-type:luminance" maskUnits="userSpaceOnUse" x="46" y="56" width="7" height="7">
<path d="M52.1348 56.9288H46.7416V62.6217H52.1348V56.9288Z" fill="white"/>
</mask>
<g mask="url(#mask15_599_59)">
<mask id="mask16_599_59" style="mask-type:luminance" maskUnits="userSpaceOnUse" x="46" y="57" width="6" height="6">
<path d="M46.9944 57.074H47.7657V61.9885H46.9944V57.074ZM46.9944 61.9885H51.9803V62.5901H46.9944V61.9885Z" fill="white"/>
</mask>
<g mask="url(#mask16_599_59)">
<path d="M46.7684 55.9141H60.2937V63.2819H46.7684V55.9141Z" fill="#2D0B24"/>
</g>
</g>
</g>
<mask id="mask17_599_59" style="mask-type:luminance" maskUnits="userSpaceOnUse" x="61" y="57" width="6" height="6">
<path d="M61.0826 57.0739H66.8141V62.5901H61.0826V57.0739Z" fill="white"/>
</mask>
<g mask="url(#mask17_599_59)">
<mask id="mask18_599_59" style="mask-type:luminance" maskUnits="userSpaceOnUse" x="61" y="57" width="6" height="6">
<path d="M64.4511 59.6243H61.875V57.7282H64.5412C65.1545 57.7282 65.4998 58.0138 65.6238 58.3778C65.7058 58.6283 65.6531 58.9548 65.5173 59.1783C65.295 59.547 64.8713 59.6254 64.4511 59.6254M65.1112 60.2844C66.3752 59.9473 66.4981 59.0063 66.4923 58.6704C66.4162 57.6849 65.7526 57.0739 64.5588 57.0739H61.0826V62.5901H61.875V60.2762H64.1386L65.8029 62.5901H66.8024C66.8024 62.5901 65.6051 61.0323 65.1112 60.2832" fill="white"/>
</mask>
<g mask="url(#mask18_599_59)">
<mask id="mask19_599_59" style="mask-type:luminance" maskUnits="userSpaceOnUse" x="60" y="56" width="7" height="7">
<path d="M66.8165 56.9288H60.824V62.6217H66.8165V56.9288Z" fill="white"/>
</mask>
<g mask="url(#mask19_599_59)">
<mask id="mask20_599_59" style="mask-type:luminance" maskUnits="userSpaceOnUse" x="61" y="57" width="6" height="6">
<path d="M61.0826 57.074H66.8141V62.5901H61.0826V57.074Z" fill="white"/>
</mask>
<g mask="url(#mask20_599_59)">
<mask id="mask21_599_59" style="mask-type:luminance" maskUnits="userSpaceOnUse" x="61" y="57" width="6" height="6">
<path d="M64.4511 59.6243H61.875V57.7282H64.5412C65.1545 57.7282 65.4998 58.0138 65.6238 58.3778C65.7058 58.6283 65.6531 58.9548 65.5173 59.1784C65.295 59.547 64.8713 59.6255 64.4511 59.6255M65.1112 60.2844C66.3752 59.9473 66.4981 59.0063 66.4923 58.6704C66.4162 57.6849 65.7526 57.074 64.5588 57.074H61.0826V62.5901H61.875V60.2762H64.1386L65.8029 62.5901H66.8024C66.8024 62.5901 65.6051 61.0323 65.1112 60.2832" fill="white"/>
</mask>
<g mask="url(#mask21_599_59)">
<path d="M61.0826 57.074H66.7931V62.5901H61.0826V57.074Z" fill="#2D0B24"/>
</g>
</g>
</g>
</g>
</g>
<mask id="mask22_599_59" style="mask-type:luminance" maskUnits="userSpaceOnUse" x="67" y="57" width="6" height="6">
<path d="M67.788 57.0739H72.7201V57.6744H67.788V57.0739ZM67.788 57.6744H68.6342V59.4499H67.788V57.6744ZM67.788 59.4499H71.703V60.0597H67.788V59.4499ZM67.788 60.0597H68.6342V61.9885H67.788V60.0597ZM67.788 61.9885H72.7201V62.5901H67.788V61.9885Z" fill="white"/>
</mask>
<g mask="url(#mask22_599_59)">
<mask id="mask23_599_59" style="mask-type:luminance" maskUnits="userSpaceOnUse" x="67" y="56" width="6" height="7">
<path d="M72.809 56.9288H67.7153V62.6217H72.809V56.9288Z" fill="white"/>
</mask>
<g mask="url(#mask23_599_59)">
<mask id="mask24_599_59" style="mask-type:luminance" maskUnits="userSpaceOnUse" x="67" y="57" width="6" height="6">
<path d="M67.788 57.074H72.7201V57.6744H67.788V57.074ZM67.788 57.6744H68.6342V59.4499H67.788V57.6744ZM67.788 59.4499H71.703V60.0597H67.788V59.4499ZM67.788 60.0597H68.6342V61.9885H67.788V60.0597ZM67.788 61.9885H72.7201V62.5901H67.788V61.9885Z" fill="white"/>
</mask>
<g mask="url(#mask24_599_59)">
<path d="M72.809 56.9288H67.7153V62.6217H72.809V56.9288Z" fill="#2D0B24"/>
</g>
</g>
</g>
<mask id="mask25_599_59" style="mask-type:luminance" maskUnits="userSpaceOnUse" x="69" y="56" width="3" height="1">
<path d="M69.6781 56.1716H71.7942V56.9487H69.6781V56.1716Z" fill="white"/>
</mask>
<g mask="url(#mask25_599_59)">
<mask id="mask26_599_59" style="mask-type:luminance" maskUnits="userSpaceOnUse" x="69" y="56" width="3" height="1">
<path d="M70.3512 56.1833L69.6829 56.9335L71.7791 56.1833H70.3512Z" fill="white"/>
</mask>
<g mask="url(#mask26_599_59)">
<mask id="mask27_599_59" style="mask-type:luminance" maskUnits="userSpaceOnUse" x="69" y="56" width="3" height="2">
<path d="M71.9101 56.03H69.5131V57.2285H71.9101V56.03Z" fill="white"/>
</mask>
<g mask="url(#mask27_599_59)">
<mask id="mask28_599_59" style="mask-type:luminance" maskUnits="userSpaceOnUse" x="69" y="56" width="3" height="1">
<path d="M69.6781 56.1716H71.7942V56.9487H69.6781V56.1716Z" fill="white"/>
</mask>
<g mask="url(#mask28_599_59)">
<mask id="mask29_599_59" style="mask-type:luminance" maskUnits="userSpaceOnUse" x="69" y="56" width="3" height="1">
<path d="M70.351 56.1833L69.6827 56.9335L71.7789 56.1833H70.351Z" fill="white"/>
</mask>
<g mask="url(#mask29_599_59)">
<path d="M71.9101 56.03H69.5131V57.2285H71.9101V56.03Z" fill="#2D0B24"/>
</g>
</g>
</g>
</g>
</g>
<mask id="mask30_599_59" style="mask-type:luminance" maskUnits="userSpaceOnUse" x="80" y="57" width="6" height="6">
<path d="M80.2283 57.0739H80.9996V61.9885H80.2283V57.0739ZM80.2283 61.9885H85.2142V62.5901H80.2283V61.9885Z" fill="white"/>
</mask>
<g mask="url(#mask30_599_59)">
<mask id="mask31_599_59" style="mask-type:luminance" maskUnits="userSpaceOnUse" x="80" y="56" width="6" height="7">
<path d="M85.3933 56.9288H80V62.6217H85.3933V56.9288Z" fill="white"/>
</mask>
<g mask="url(#mask31_599_59)">
<mask id="mask32_599_59" style="mask-type:luminance" maskUnits="userSpaceOnUse" x="80" y="57" width="6" height="6">
<path d="M80.2283 57.074H80.9996V61.9885H80.2283V57.074ZM80.2283 61.9885H85.2142V62.5901H80.2283V61.9885Z" fill="white"/>
</mask>
<g mask="url(#mask32_599_59)">
<path d="M85.3933 56.9288H80V62.6217H85.3933V56.9288Z" fill="#2D0B24"/>
</g>
</g>
</g>
<mask id="mask33_599_59" style="mask-type:luminance" maskUnits="userSpaceOnUse" x="73" y="57" width="7" height="6">
<path d="M73.1086 57.0564H79.8057V62.6018H73.1086V57.0564Z" fill="white"/>
</mask>
<g mask="url(#mask33_599_59)">
<mask id="mask34_599_59" style="mask-type:luminance" maskUnits="userSpaceOnUse" x="73" y="57" width="7" height="6">
<path d="M75.1323 60.4717L76.4537 57.8371L77.7914 60.4717H75.1323ZM75.9164 57.0739L73.111 62.5901H74.059L74.7776 61.1634H78.1402L78.8647 62.5901H79.8022L76.9956 57.0739H75.9164Z" fill="white"/>
</mask>
<g mask="url(#mask34_599_59)">
<mask id="mask35_599_59" style="mask-type:luminance" maskUnits="userSpaceOnUse" x="73" y="56" width="7" height="7">
<path d="M80 56.9288H73.1086V62.6217H80V56.9288Z" fill="white"/>
</mask>
<g mask="url(#mask35_599_59)">
<mask id="mask36_599_59" style="mask-type:luminance" maskUnits="userSpaceOnUse" x="73" y="57" width="7" height="6">
<path d="M73.1086 57.0564H79.8046V62.6018H73.1086V57.0564Z" fill="white"/>
</mask>
<g mask="url(#mask36_599_59)">
<mask id="mask37_599_59" style="mask-type:luminance" maskUnits="userSpaceOnUse" x="73" y="57" width="7" height="6">
<path d="M75.1323 60.4717L76.4537 57.8371L77.7914 60.4717H75.1323ZM75.9164 57.074L73.111 62.5901H74.059L74.7776 61.1634H78.1402L78.8647 62.5901H79.8022L76.9956 57.074H75.9164Z" fill="white"/>
</mask>
<g mask="url(#mask37_599_59)">
<path d="M80 56.9288H73.1086V62.6217H80V56.9288Z" fill="#2D0B24"/>
</g>
</g>
</g>
</g>
</g>
<mask id="mask38_599_59" style="mask-type:luminance" maskUnits="userSpaceOnUse" x="51" y="66" width="3" height="3">
<path d="M51.0159 66.3225H53.0934V68.4972H51.0159V66.3225Z" fill="white"/>
</mask>
<g mask="url(#mask38_599_59)">
<mask id="mask39_599_59" style="mask-type:luminance" maskUnits="userSpaceOnUse" x="51" y="66" width="3" height="3">
<path d="M52.1465 68.4937C51.5847 68.4937 51.0159 68.1531 51.0159 67.3946C51.0159 66.868 51.4419 66.3225 52.1547 66.3225C52.6416 66.3225 52.9026 66.573 53.0278 66.6936L53.0723 66.7369L52.8511 66.9686L52.8195 66.9393C52.7024 66.8375 52.4836 66.6479 52.1652 66.6479C51.6491 66.6479 51.3412 67.0271 51.3412 67.3946C51.3412 67.8581 51.669 68.1683 52.157 68.1683C52.555 68.1683 52.7691 67.9962 52.7691 67.8335V67.5995H52.0821V67.2753H53.0934V67.8499C53.0934 68.228 52.7036 68.4937 52.1465 68.4937Z" fill="white"/>
</mask>
<g mask="url(#mask39_599_59)">
<mask id="mask40_599_59" style="mask-type:luminance" maskUnits="userSpaceOnUse" x="50" y="66" width="4" height="3">
<path d="M53.3333 66.2172H50.9363V68.6142H53.3333V66.2172Z" fill="white"/>
</mask>
<g mask="url(#mask40_599_59)">
<mask id="mask41_599_59" style="mask-type:luminance" maskUnits="userSpaceOnUse" x="51" y="66" width="3" height="3">
<path d="M51.0159 66.3225H53.0934V68.4972H51.0159V66.3225Z" fill="white"/>
</mask>
<g mask="url(#mask41_599_59)">
<mask id="mask42_599_59" style="mask-type:luminance" maskUnits="userSpaceOnUse" x="51" y="66" width="3" height="3">
<path d="M52.1465 68.4937C51.5847 68.4937 51.0159 68.1531 51.0159 67.3946C51.0159 66.868 51.4419 66.3225 52.1547 66.3225C52.6416 66.3225 52.9026 66.573 53.0278 66.6936L53.0723 66.7369L52.8511 66.9686L52.8195 66.9393C52.7024 66.8375 52.4836 66.6479 52.1652 66.6479C51.6491 66.6479 51.3412 67.0271 51.3412 67.3946C51.3412 67.8581 51.669 68.1683 52.157 68.1683C52.555 68.1683 52.7691 67.9962 52.7691 67.8335V67.5995H52.0821V67.2753H53.0934V67.8499C53.0934 68.228 52.7036 68.4937 52.1465 68.4937Z" fill="white"/>
</mask>
<g mask="url(#mask42_599_59)">
<path d="M51.0159 66.3225H53.0934V68.489H51.0159V66.3225Z" fill="#2D0B24"/>
</g>
</g>
</g>
</g>
</g>
<mask id="mask43_599_59" style="mask-type:luminance" maskUnits="userSpaceOnUse" x="53" y="66" width="3" height="3">
<path d="M53.578 66.3577H55.4799V68.4585H53.578V66.3577Z" fill="white"/>
</mask>
<g mask="url(#mask43_599_59)">
<mask id="mask44_599_59" style="mask-type:luminance" maskUnits="userSpaceOnUse" x="53" y="66" width="3" height="3">
<path d="M54.7214 67.2963C55.0129 67.2963 55.1521 67.2495 55.1521 66.985C55.1521 66.7111 54.8537 66.6901 54.7636 66.6901H53.9103V67.2963H54.7214ZM55.0878 68.4504L54.6278 67.6205H53.9103V68.4504H53.585V66.3659H54.6255C55.3289 66.3659 55.4763 66.7006 55.4763 66.9827C55.4763 67.4462 55.1767 67.5749 54.9918 67.6112L55.46 68.4504H55.0878Z" fill="white"/>
</mask>
<g mask="url(#mask44_599_59)">
<mask id="mask45_599_59" style="mask-type:luminance" maskUnits="userSpaceOnUse" x="53" y="66" width="3" height="3">
<path d="M55.7304 66.2172H53.3334V68.6142H55.7304V66.2172Z" fill="white"/>
</mask>
<g mask="url(#mask45_599_59)">
<mask id="mask46_599_59" style="mask-type:luminance" maskUnits="userSpaceOnUse" x="53" y="66" width="3" height="3">
<path d="M53.5814 66.3577H55.4798V68.4585H53.5814V66.3577Z" fill="white"/>
</mask>
<g mask="url(#mask46_599_59)">
<mask id="mask47_599_59" style="mask-type:luminance" maskUnits="userSpaceOnUse" x="53" y="66" width="3" height="3">
<path d="M54.7214 67.2963C55.0129 67.2963 55.1521 67.2495 55.1521 66.985C55.1521 66.7111 54.8537 66.6901 54.7636 66.6901H53.9103V67.2963H54.7214ZM55.0878 68.4504L54.6278 67.6205H53.9103V68.4504H53.585V66.3659H54.6255C55.3289 66.3659 55.4763 66.7006 55.4763 66.9827C55.4763 67.4462 55.1767 67.5749 54.9918 67.6112L55.46 68.4504H55.0878Z" fill="white"/>
</mask>
<g mask="url(#mask47_599_59)">
<path d="M53.3591 66.14H60.2868V68.6762H53.3591V66.14Z" fill="#2D0B24"/>
</g>
</g>
</g>
</g>
</g>
<mask id="mask48_599_59" style="mask-type:luminance" maskUnits="userSpaceOnUse" x="55" y="66" width="3" height="3">
<path d="M55.6086 66.3577H57.8781V68.4585H55.6086V66.3577Z" fill="white"/>
</mask>
<g mask="url(#mask48_599_59)">
<mask id="mask49_599_59" style="mask-type:luminance" maskUnits="userSpaceOnUse" x="55" y="66" width="3" height="3">
<path d="M57.0411 67.4426L56.7497 66.8024L56.4466 67.4426H57.0411ZM57.5116 68.4504L57.1874 67.7669H56.2874L55.9737 68.4504H55.6121L56.6046 66.3659H56.896L57.8721 68.4504H57.5116Z" fill="white"/>
</mask>
<g mask="url(#mask49_599_59)">
<mask id="mask50_599_59" style="mask-type:luminance" maskUnits="userSpaceOnUse" x="55" y="66" width="4" height="3">
<path d="M58.1273 66.2172H55.4307V68.6142H58.1273V66.2172Z" fill="white"/>
</mask>
<g mask="url(#mask50_599_59)">
<mask id="mask51_599_59" style="mask-type:luminance" maskUnits="userSpaceOnUse" x="55" y="66" width="3" height="3">
<path d="M55.6086 66.3577H57.8781V68.4585H55.6086V66.3577Z" fill="white"/>
</mask>
<g mask="url(#mask51_599_59)">
<mask id="mask52_599_59" style="mask-type:luminance" maskUnits="userSpaceOnUse" x="55" y="66" width="3" height="3">
<path d="M57.0411 67.4426L56.7497 66.8024L56.4466 67.4426H57.0411ZM57.5116 68.4504L57.1874 67.7669H56.2874L55.9737 68.4504H55.6121L56.6046 66.3659H56.896L57.8721 68.4504H57.5116Z" fill="white"/>
</mask>
<g mask="url(#mask52_599_59)">
<path d="M58.1273 66.2172H55.4307V68.6142H58.1273V66.2172Z" fill="#2D0B24"/>
</g>
</g>
</g>
</g>
</g>
<mask id="mask53_599_59" style="mask-type:luminance" maskUnits="userSpaceOnUse" x="58" y="66" width="3" height="3">
<path d="M58.2058 66.3577H60.0691V68.4585H58.2058V66.3577Z" fill="white"/>
</mask>
<g mask="url(#mask53_599_59)">
<mask id="mask54_599_59" style="mask-type:luminance" maskUnits="userSpaceOnUse" x="58" y="66" width="3" height="3">
<path d="M59.7624 68.4504L58.5323 66.9031V68.4504H58.2081V66.3659H58.5089L59.739 67.933V66.3659H60.0644V68.4504H59.7624Z" fill="white"/>
</mask>
<g mask="url(#mask54_599_59)">
<mask id="mask55_599_59" style="mask-type:luminance" maskUnits="userSpaceOnUse" x="58" y="66" width="3" height="3">
<path d="M60.2247 66.2172H58.1273V68.6142H60.2247V66.2172Z" fill="white"/>
</mask>
<g mask="url(#mask55_599_59)">
<mask id="mask56_599_59" style="mask-type:luminance" maskUnits="userSpaceOnUse" x="58" y="66" width="3" height="3">
<path d="M58.2058 66.3577H60.0691V68.4585H58.2058V66.3577Z" fill="white"/>
</mask>
<g mask="url(#mask56_599_59)">
<mask id="mask57_599_59" style="mask-type:luminance" maskUnits="userSpaceOnUse" x="58" y="66" width="3" height="3">
<path d="M59.7624 68.4504L58.5323 66.9031V68.4504H58.2081V66.3659H58.5089L59.739 67.933V66.3659H60.0644V68.4504H59.7624Z" fill="white"/>
</mask>
<g mask="url(#mask57_599_59)">
<path d="M60.2247 66.2172H58.1273V68.6142H60.2247V66.2172Z" fill="#2D0B24"/>
</g>
</g>
</g>
</g>
</g>
<mask id="mask58_599_59" style="mask-type:luminance" maskUnits="userSpaceOnUse" x="60" y="66" width="3" height="3">
<path d="M60.7397 66.3659H62.7283V68.4562H60.7397V66.3659Z" fill="white"/>
</mask>
<g mask="url(#mask58_599_59)">
<mask id="mask59_599_59" style="mask-type:luminance" maskUnits="userSpaceOnUse" x="60" y="66" width="3" height="3">
<path d="M61.7627 68.1262C62.1817 68.1262 62.4041 67.7095 62.4041 67.4075C62.4041 67.1184 62.2004 66.6901 61.7627 66.6901H61.064V68.1262H61.7627ZM60.7397 68.4504V66.3659H61.7627C62.4287 66.3659 62.7283 66.9757 62.7283 67.4075C62.7283 67.7692 62.527 68.4504 61.7627 68.4504H60.7397Z" fill="white"/>
</mask>
<g mask="url(#mask59_599_59)">
<mask id="mask60_599_59" style="mask-type:luminance" maskUnits="userSpaceOnUse" x="60" y="66" width="3" height="3">
<path d="M62.9213 66.2172H60.5243V68.6142H62.9213V66.2172Z" fill="white"/>
</mask>
<g mask="url(#mask60_599_59)">
<mask id="mask61_599_59" style="mask-type:luminance" maskUnits="userSpaceOnUse" x="60" y="66" width="3" height="3">
<path d="M60.7396 66.3659H62.7282V68.4562H60.7396V66.3659Z" fill="white"/>
</mask>
<g mask="url(#mask61_599_59)">
<mask id="mask62_599_59" style="mask-type:luminance" maskUnits="userSpaceOnUse" x="60" y="66" width="3" height="3">
<path d="M61.7626 68.1262C62.1816 68.1262 62.404 67.7095 62.404 67.4075C62.404 67.1184 62.2003 66.6901 61.7626 66.6901H61.0638V68.1262H61.7626ZM60.7396 68.4504V66.3659H61.7626C62.4285 66.3659 62.7282 66.9757 62.7282 67.4075C62.7282 67.7692 62.5268 68.4504 61.7626 68.4504H60.7396Z" fill="white"/>
</mask>
<g mask="url(#mask62_599_59)">
<path d="M60.7396 66.3659H62.7282V68.448H60.7396V66.3659Z" fill="#2D0B24"/>
</g>
</g>
</g>
</g>
</g>
<mask id="mask63_599_59" style="mask-type:luminance" maskUnits="userSpaceOnUse" x="63" y="66" width="2" height="3">
<path d="M63.2046 66.3659H64.9333V66.6901H63.2046V66.3659ZM63.2046 66.6901H63.5288V67.2086H63.2046V66.6901ZM63.2046 67.2086H64.2685V67.5328H63.2046V67.2086ZM63.2046 67.5328H63.5288V68.1262H63.2046V67.5328ZM63.2046 68.1262H64.9918V68.4504H63.2046V68.1262Z" fill="white"/>
</mask>
<g mask="url(#mask63_599_59)">
<mask id="mask64_599_59" style="mask-type:luminance" maskUnits="userSpaceOnUse" x="62" y="66" width="4" height="3">
<path d="M65.0186 66.2172H62.9213V68.6142H65.0186V66.2172Z" fill="white"/>
</mask>
<g mask="url(#mask64_599_59)">
<mask id="mask65_599_59" style="mask-type:luminance" maskUnits="userSpaceOnUse" x="63" y="66" width="2" height="3">
<path d="M63.2046 66.3659H64.9333V66.6901H63.2046V66.3659ZM63.2046 66.6901H63.5288V67.2086H63.2046V66.6901ZM63.2046 67.2086H64.2685V67.5328H63.2046V67.2086ZM63.2046 67.5328H63.5288V68.1262H63.2046V67.5328ZM63.2046 68.1262H64.9918V68.4504H63.2046V68.1262Z" fill="white"/>
</mask>
<g mask="url(#mask65_599_59)">
<path d="M63.2046 66.3659H64.9918V68.4527H63.2046V66.3659Z" fill="#2D0B24"/>
</g>
</g>
</g>
<mask id="mask66_599_59" style="mask-type:luminance" maskUnits="userSpaceOnUse" x="66" y="66" width="3" height="3">
<path d="M66.4653 66.3659H68.2912V68.4551H66.4653V66.3659Z" fill="white"/>
</mask>
<g mask="url(#mask66_599_59)">
<mask id="mask67_599_59" style="mask-type:luminance" maskUnits="userSpaceOnUse" x="66" y="66" width="3" height="3">
<path d="M67.6112 67.2729C67.8558 67.2729 67.9599 67.1852 67.9599 66.9827C67.9599 66.7802 67.8523 66.6901 67.6112 66.6901H66.7895V67.2729H67.6112ZM66.4653 68.4504V66.3659H67.6112C67.7692 66.3659 68.2842 66.4103 68.2842 66.9827C68.2842 67.3794 68.0454 67.5971 67.6112 67.5971H66.7895V68.4504H66.4653Z" fill="white"/>
</mask>
<g mask="url(#mask67_599_59)">
<mask id="mask68_599_59" style="mask-type:luminance" maskUnits="userSpaceOnUse" x="66" y="66" width="3" height="3">
<path d="M68.3145 66.2172H66.2172V68.6142H68.3145V66.2172Z" fill="white"/>
</mask>
<g mask="url(#mask68_599_59)">
<mask id="mask69_599_59" style="mask-type:luminance" maskUnits="userSpaceOnUse" x="66" y="66" width="3" height="3">
<path d="M66.4653 66.3659H68.2912V68.4551H66.4653V66.3659Z" fill="white"/>
</mask>
<g mask="url(#mask69_599_59)">
<mask id="mask70_599_59" style="mask-type:luminance" maskUnits="userSpaceOnUse" x="66" y="66" width="3" height="3">
<path d="M67.6112 67.2729C67.8558 67.2729 67.9599 67.1852 67.9599 66.9827C67.9599 66.7802 67.8523 66.6901 67.6112 66.6901H66.7895V67.2729H67.6112ZM66.4653 68.4504V66.3659H67.6112C67.7692 66.3659 68.2842 66.4103 68.2842 66.9827C68.2842 67.3794 68.0454 67.5971 67.6112 67.5971H66.7895V68.4504H66.4653Z" fill="white"/>
</mask>
<g mask="url(#mask70_599_59)">
<path d="M66.4653 66.3659H68.2842V68.448H66.4653V66.3659Z" fill="#2D0B24"/>
</g>
</g>
</g>
</g>
</g>
<mask id="mask71_599_59" style="mask-type:luminance" maskUnits="userSpaceOnUse" x="68" y="65" width="3" height="4">
<path d="M68.7371 65.8685H70.6027V68.5007H68.7371V65.8685Z" fill="white"/>
</mask>
<g mask="url(#mask71_599_59)">
<mask id="mask72_599_59" style="mask-type:luminance" maskUnits="userSpaceOnUse" x="68" y="65" width="3" height="4">
<path d="M69.4569 66.291L69.7249 65.8685H70.1697L69.794 66.291H69.4569ZM69.6699 68.4937C69.0555 68.4937 68.7441 68.2034 68.7441 67.6311V66.3659H69.0683V67.6311C69.0683 68.008 69.2486 68.1695 69.6699 68.1695C70.0913 68.1695 70.2715 68.0092 70.2715 67.6311V66.3659H70.5957V67.6311C70.5957 68.1952 70.275 68.4937 69.6699 68.4937Z" fill="white"/>
</mask>
<g mask="url(#mask72_599_59)">
<mask id="mask73_599_59" style="mask-type:luminance" maskUnits="userSpaceOnUse" x="68" y="65" width="3" height="4">
<path d="M70.7116 65.618H68.6143V68.6142H70.7116V65.618Z" fill="white"/>
</mask>
<g mask="url(#mask73_599_59)">
<mask id="mask74_599_59" style="mask-type:luminance" maskUnits="userSpaceOnUse" x="68" y="65" width="3" height="4">
<path d="M68.7406 65.8685H70.6027V68.5007H68.7406V65.8685Z" fill="white"/>
</mask>
<g mask="url(#mask74_599_59)">
<mask id="mask75_599_59" style="mask-type:luminance" maskUnits="userSpaceOnUse" x="68" y="65" width="3" height="4">
<path d="M69.4569 66.291L69.7249 65.8685H70.1697L69.794 66.291H69.4569ZM69.6699 68.4937C69.0555 68.4937 68.7441 68.2034 68.7441 67.6311V66.3659H69.0683V67.6311C69.0683 68.008 69.2486 68.1695 69.6699 68.1695C70.0913 68.1695 70.2715 68.0091 70.2715 67.6311V66.3659H70.5957V67.6311C70.5957 68.1952 70.275 68.4937 69.6699 68.4937Z" fill="white"/>
</mask>
<g mask="url(#mask75_599_59)">
<path d="M68.7441 65.8685H70.5957V68.4925H68.7441V65.8685Z" fill="#2D0B24"/>
</g>
</g>
</g>
</g>
</g>
<mask id="mask76_599_59" style="mask-type:luminance" maskUnits="userSpaceOnUse" x="71" y="66" width="3" height="3">
<path d="M71.2605 66.3659H73.18V68.4504H71.2605V66.3659Z" fill="white"/>
</mask>
<g mask="url(#mask76_599_59)">
<mask id="mask77_599_59" style="mask-type:luminance" maskUnits="userSpaceOnUse" x="71" y="66" width="3" height="3">
<path d="M72.4169 67.2226C72.6357 67.2226 72.7621 67.122 72.7621 66.9452C72.7621 66.786 72.6334 66.6901 72.4169 66.6901H71.5847V67.2226H72.4169ZM72.4169 68.1262C72.7247 68.1262 72.8558 68.0454 72.8558 67.8558C72.8558 67.5866 72.5807 67.5468 72.4169 67.5468H71.5847V68.1262H72.4169ZM71.2605 68.4504V66.3659H72.4169C72.7259 66.3659 73.0863 66.5204 73.0863 66.9558C73.0863 67.1419 73.0138 67.2835 72.9295 67.3607C73.0618 67.4579 73.18 67.6323 73.18 67.8441C73.18 68.2409 72.9155 68.4504 72.4169 68.4504H71.2605Z" fill="white"/>
</mask>
<g mask="url(#mask77_599_59)">
<mask id="mask78_599_59" style="mask-type:luminance" maskUnits="userSpaceOnUse" x="71" y="66" width="3" height="3">
<path d="M73.4082 66.2172H71.0112V68.6142H73.4082V66.2172Z" fill="white"/>
</mask>
<g mask="url(#mask78_599_59)">
<mask id="mask79_599_59" style="mask-type:luminance" maskUnits="userSpaceOnUse" x="71" y="66" width="3" height="3">
<path d="M71.2605 66.3659H73.18V68.4504H71.2605V66.3659Z" fill="white"/>
</mask>
<g mask="url(#mask79_599_59)">
<mask id="mask80_599_59" style="mask-type:luminance" maskUnits="userSpaceOnUse" x="71" y="66" width="3" height="3">
<path d="M72.4169 67.2226C72.6357 67.2226 72.7621 67.122 72.7621 66.9452C72.7621 66.786 72.6334 66.6901 72.4169 66.6901H71.5847V67.2226H72.4169ZM72.4169 68.1262C72.7247 68.1262 72.8558 68.0454 72.8558 67.8558C72.8558 67.5866 72.5807 67.5468 72.4169 67.5468H71.5847V68.1262H72.4169ZM71.2605 68.4504V66.3659H72.4169C72.7259 66.3659 73.0863 66.5204 73.0863 66.9558C73.0863 67.1419 73.0138 67.2835 72.9295 67.3607C73.0618 67.4579 73.18 67.6323 73.18 67.8441C73.18 68.2409 72.9155 68.4504 72.4169 68.4504H71.2605Z" fill="white"/>
</mask>
<g mask="url(#mask80_599_59)">
<path d="M71.2605 66.3659H73.18V68.4504H71.2605V66.3659Z" fill="#2D0B24"/>
</g>
</g>
</g>
</g>
</g>
<mask id="mask81_599_59" style="mask-type:luminance" maskUnits="userSpaceOnUse" x="73" y="66" width="3" height="3">
<path d="M73.7148 66.3659H74.039V68.1262H73.7148V66.3659ZM73.7148 68.1262H75.2914V68.4504H73.7148V68.1262Z" fill="white"/>
</mask>
<g mask="url(#mask81_599_59)">
<mask id="mask82_599_59" style="mask-type:luminance" maskUnits="userSpaceOnUse" x="73" y="66" width="3" height="3">
<path d="M75.5056 66.2172H73.7079V68.6142H75.5056V66.2172Z" fill="white"/>
</mask>
<g mask="url(#mask82_599_59)">
<mask id="mask83_599_59" style="mask-type:luminance" maskUnits="userSpaceOnUse" x="73" y="66" width="3" height="3">
<path d="M73.7148 66.3659H74.039V68.1262H73.7148V66.3659ZM73.7148 68.1262H75.2914V68.4504H73.7148V68.1262Z" fill="white"/>
</mask>
<g mask="url(#mask83_599_59)">
<path d="M75.5056 66.2172H73.7079V68.6142H75.5056V66.2172Z" fill="#2D0B24"/>
</g>
</g>
</g>
<mask id="mask84_599_59" style="mask-type:luminance" maskUnits="userSpaceOnUse" x="75" y="66" width="1" height="3">
<path d="M75.6378 66.3659H75.962V68.4504H75.6378V66.3659Z" fill="white"/>
</mask>
<g mask="url(#mask84_599_59)">
<mask id="mask85_599_59" style="mask-type:luminance" maskUnits="userSpaceOnUse" x="75" y="66" width="2" height="3">
<path d="M76.1049 66.2172H75.5056V68.6142H76.1049V66.2172Z" fill="white"/>
</mask>
<g mask="url(#mask85_599_59)">
<mask id="mask86_599_59" style="mask-type:luminance" maskUnits="userSpaceOnUse" x="75" y="66" width="1" height="3">
<path d="M75.6378 66.3659H75.962V68.4504H75.6378V66.3659Z" fill="white"/>
</mask>
<g mask="url(#mask86_599_59)">
<path d="M76.1049 66.2172H75.5056V68.6142H76.1049V66.2172Z" fill="#2D0B24"/>
</g>
</g>
</g>
<mask id="mask87_599_59" style="mask-type:luminance" maskUnits="userSpaceOnUse" x="76" y="66" width="3" height="3">
<path d="M76.4958 66.3225H78.6775V68.4937H76.4958V66.3225Z" fill="white"/>
</mask>
<g mask="url(#mask87_599_59)">
<mask id="mask88_599_59" style="mask-type:luminance" maskUnits="userSpaceOnUse" x="76" y="66" width="3" height="3">
<path d="M77.6486 68.4937C77.0763 68.4937 76.4969 68.1203 76.4969 67.4087C76.4969 66.7029 77.0716 66.3225 77.6135 66.3225C78.1882 66.3225 78.5042 66.6304 78.6072 66.7322L78.6411 66.765L78.4106 66.9885L78.379 66.9616C78.2795 66.875 78.0115 66.6479 77.6194 66.6479C77.1196 66.6479 76.8212 67.0318 76.8212 67.4028C76.8212 67.7739 77.1149 68.1683 77.6592 68.1683C78.0817 68.1683 78.2959 67.9576 78.3989 67.8558L78.448 67.8078L78.6692 68.0548L78.6201 68.1004C78.4808 68.2338 78.2104 68.4937 77.6486 68.4937Z" fill="white"/>
</mask>
<g mask="url(#mask88_599_59)">
<mask id="mask89_599_59" style="mask-type:luminance" maskUnits="userSpaceOnUse" x="76" y="66" width="3" height="3">
<path d="M78.8015 66.2172H76.4045V68.6142H78.8015V66.2172Z" fill="white"/>
</mask>
<g mask="url(#mask89_599_59)">
<mask id="mask90_599_59" style="mask-type:luminance" maskUnits="userSpaceOnUse" x="76" y="66" width="3" height="3">
<path d="M76.4957 66.3225H78.6774V68.4937H76.4957V66.3225Z" fill="white"/>
</mask>
<g mask="url(#mask90_599_59)">
<mask id="mask91_599_59" style="mask-type:luminance" maskUnits="userSpaceOnUse" x="76" y="66" width="3" height="3">
<path d="M77.6486 68.4937C77.0763 68.4937 76.4969 68.1203 76.4969 67.4087C76.4969 66.7029 77.0716 66.3225 77.6135 66.3225C78.1882 66.3225 78.5042 66.6304 78.6072 66.7322L78.6411 66.765L78.4106 66.9885L78.379 66.9616C78.2795 66.875 78.0115 66.6479 77.6194 66.6479C77.1196 66.6479 76.8212 67.0318 76.8212 67.4028C76.8212 67.7739 77.1149 68.1683 77.6592 68.1683C78.0817 68.1683 78.2959 67.9576 78.3989 67.8558L78.448 67.8078L78.6692 68.0548L78.6201 68.1004C78.4808 68.2338 78.2104 68.4937 77.6486 68.4937Z" fill="white"/>
</mask>
<g mask="url(#mask91_599_59)">
<path d="M78.8015 66.2172H76.4045V68.6142H78.8015V66.2172Z" fill="#2D0B24"/>
</g>
</g>
</g>
</g>
</g>
<mask id="mask92_599_59" style="mask-type:luminance" maskUnits="userSpaceOnUse" x="79" y="66" width="3" height="3">
<path d="M79.0355 66.3225H81.2792V68.4937H79.0355V66.3225Z" fill="white"/>
</mask>
<g mask="url(#mask92_599_59)">
<mask id="mask93_599_59" style="mask-type:luminance" maskUnits="userSpaceOnUse" x="79" y="66" width="3" height="3">
<path d="M80.158 66.6479C79.7144 66.6479 79.3656 66.9815 79.3656 67.4087C79.3656 67.8347 79.7144 68.1695 80.158 68.1695C80.6027 68.1695 80.9503 67.8347 80.9503 67.4087C80.9503 66.9815 80.6027 66.6479 80.158 66.6479ZM80.158 68.4937C79.5423 68.4937 79.0414 68.0068 79.0414 67.4075C79.0414 66.8001 79.5318 66.3225 80.158 66.3225C80.7748 66.3225 81.2757 66.8094 81.2757 67.4087C81.2757 68.0068 80.7748 68.4937 80.158 68.4937Z" fill="white"/>
</mask>
<g mask="url(#mask93_599_59)">
<mask id="mask94_599_59" style="mask-type:luminance" maskUnits="userSpaceOnUse" x="78" y="66" width="4" height="3">
<path d="M81.4981 66.2172H78.8015V68.6142H81.4981V66.2172Z" fill="white"/>
</mask>
<g mask="url(#mask94_599_59)">
<mask id="mask95_599_59" style="mask-type:luminance" maskUnits="userSpaceOnUse" x="79" y="66" width="3" height="3">
<path d="M79.0355 66.3225H81.2792V68.4937H79.0355V66.3225Z" fill="white"/>
</mask>
<g mask="url(#mask95_599_59)">
<mask id="mask96_599_59" style="mask-type:luminance" maskUnits="userSpaceOnUse" x="79" y="66" width="3" height="3">
<path d="M80.158 66.6479C79.7144 66.6479 79.3656 66.9815 79.3656 67.4087C79.3656 67.8347 79.7144 68.1695 80.158 68.1695C80.6027 68.1695 80.9503 67.8347 80.9503 67.4087C80.9503 66.9815 80.6027 66.6479 80.158 66.6479ZM80.158 68.4937C79.5423 68.4937 79.0414 68.0068 79.0414 67.4075C79.0414 66.8001 79.5318 66.3225 80.158 66.3225C80.7748 66.3225 81.2757 66.8094 81.2757 67.4087C81.2757 68.0068 80.7748 68.4937 80.158 68.4937Z" fill="white"/>
</mask>
<g mask="url(#mask96_599_59)">
<path d="M81.4981 66.2172H78.8015V68.6142H81.4981V66.2172Z" fill="#2D0B24"/>
</g>
</g>
</g>
</g>
</g>
<mask id="mask97_599_59" style="mask-type:luminance" maskUnits="userSpaceOnUse" x="30" y="7" width="71" height="27">
<path d="M100.974 7.79025H30.8615V33.8577H100.974V7.79025Z" fill="white"/>
</mask>
<g mask="url(#mask97_599_59)">
<path d="M31.7401 27.0473H32.0351C32.2656 27.0473 32.4903 27.0332 32.7092 27.0051C32.9269 26.9771 33.127 26.9162 33.3085 26.8226C33.4887 26.7289 33.6455 26.5967 33.7766 26.4246C33.9101 26.2502 34.0072 26.0173 34.0669 25.7271L36.3281 15.0669C36.3621 14.9242 36.3937 14.7814 36.4218 14.6409C36.4522 14.5005 36.4686 14.4021 36.4686 14.346C36.4686 14.1868 36.4276 14.058 36.3468 13.9574C36.2684 13.8544 36.1596 13.7771 36.0191 13.7233C35.8787 13.6671 35.7078 13.632 35.5088 13.6156C35.3122 13.5969 35.098 13.5875 34.8674 13.5875H34.5865L34.8206 12.4171H41.6886C43.4044 12.4171 44.6966 12.6969 45.565 13.2551C46.4323 13.8146 46.8665 14.6409 46.8665 15.7364C46.8665 16.3427 46.774 16.8764 46.5903 17.3375C46.4089 17.7999 46.1561 18.199 45.8319 18.536C45.5065 18.8708 45.1249 19.1447 44.6849 19.36C44.2448 19.5754 43.7684 19.7416 43.257 19.8563L43.2336 19.9452C43.6292 20.0178 43.9931 20.1407 44.3244 20.3151C44.6579 20.4871 44.9435 20.7083 45.1811 20.9799C45.4175 21.2491 45.6036 21.5674 45.7382 21.9349C45.8717 22.3036 45.9395 22.7168 45.9395 23.1756C45.9395 23.9843 45.8014 24.7018 45.5276 25.3291C45.2525 25.9565 44.8487 26.4855 44.315 26.9162C43.7813 27.3446 43.1165 27.6699 42.3206 27.8947C41.5248 28.117 40.6036 28.2271 39.5585 28.2271H31.5013L31.7401 27.0473ZM37.2972 26.8741H38.8328C39.4601 26.8741 39.9915 26.7921 40.4292 26.6259C40.8658 26.4609 41.2204 26.2163 41.492 25.8909C41.7659 25.5667 41.966 25.1653 42.0912 24.6877C42.2188 24.2079 42.2832 23.6531 42.2832 23.0257C42.2832 22.2182 42.0983 21.6189 41.7307 21.228C41.3656 20.8347 40.7956 20.6381 40.0219 20.6381H38.6268L37.2972 26.8741ZM38.9218 19.2617H40.1624C41.2076 19.2617 41.9625 18.9902 42.4283 18.4471C42.893 17.904 43.1259 17.1269 43.1259 16.1156C43.1259 15.3326 42.9491 14.7462 42.5968 14.3553C42.2434 13.9656 41.7284 13.7701 41.0519 13.7701H40.0688L38.9218 19.2617Z" fill="#2D0B24"/>
<path d="M55.0541 25.4602C55.2062 25.5538 55.2835 25.7388 55.2835 26.0126C55.2835 26.6025 54.9347 27.155 54.2395 27.6699C53.5431 28.1849 52.6114 28.4424 51.4445 28.4424C50.1524 28.4424 49.1096 28.0351 48.3172 27.2205C47.5237 26.4059 47.1281 25.2893 47.1281 23.8684C47.1281 21.9373 47.7507 20.1653 48.996 18.5548C50.2437 16.9443 51.8202 16.139 53.7245 16.139C54.6608 16.139 55.3865 16.3626 55.9015 16.8085C56.4188 17.2556 56.6786 17.8794 56.6786 18.6812C56.6786 19.8773 56.056 20.9178 54.8106 21.8038C53.5677 22.691 52.0496 23.1334 50.2554 23.1334H49.8762C49.7451 23.1334 49.6105 23.1276 49.4736 23.1147C49.4455 23.3148 49.4314 23.6238 49.4314 24.0417C49.4314 26.0454 50.2425 27.0473 51.8659 27.0473C53.1264 27.0473 54.1891 26.5183 55.0541 25.4602ZM49.6796 22.0941H49.8949C51.2023 22.0941 52.279 21.7781 53.1252 21.1437C53.9703 20.5105 54.394 19.6901 54.394 18.6812C54.394 17.6922 53.9644 17.1971 53.1065 17.1971C52.3949 17.1971 51.7278 17.6465 51.1075 18.5454C50.4895 19.4419 50.0131 20.6241 49.6796 22.0941Z" fill="#2D0B24"/>
<path d="M64.477 24.8844H64.3366C63.275 27.2568 61.8939 28.4424 60.1933 28.4424C59.2909 28.4424 58.5887 28.0889 58.0866 27.3797C57.5868 26.6681 57.3375 25.6744 57.3375 24.3975C57.3375 22.3656 57.9695 20.4824 59.2336 18.7467C60.5 17.0087 62.0672 16.139 63.934 16.139C64.9358 16.139 65.7996 16.4059 66.5276 16.9396L67.5014 16.3778H68.2177L66.7008 23.4705C66.4855 24.4852 66.3778 25.3034 66.3778 25.9237C66.3778 26.6727 66.6189 27.0473 67.1034 27.0473C67.5213 27.0473 68.055 26.8577 68.7046 26.4761L69.1025 27.1222C68.0445 28.0023 67.0028 28.4424 65.9798 28.4424C64.8246 28.4424 64.2476 27.8315 64.2476 26.6072C64.2476 26.1367 64.3237 25.562 64.477 24.8844ZM65.727 17.9321C65.39 17.3984 64.8305 17.1315 64.051 17.1315C62.7893 17.1315 61.7313 17.9345 60.8769 19.5379C60.0248 21.1425 59.5988 22.7917 59.5988 24.4864C59.5988 26.194 60.0634 27.0473 60.9939 27.0473C61.7266 27.0473 62.4979 26.5042 63.3066 25.4181C64.1142 24.3296 64.6479 23.1381 64.9077 21.846L65.727 17.9321Z" fill="#2D0B24"/>
<path d="M69.9599 16.3544H74.0798L72.6191 22.9836C72.3218 24.3226 72.1744 25.2121 72.1744 25.6522C72.1744 26.5545 72.5348 27.0052 73.2558 27.0052C74.0142 27.0052 74.83 26.4597 75.7043 25.3666C76.581 24.2746 77.1521 23.1088 77.4178 21.8694L78.5788 16.3544H80.7184L79.1921 23.4705C78.9698 24.5169 78.8597 25.3338 78.8597 25.9237C78.8597 26.6728 79.1044 27.0473 79.5948 27.0473C80.0126 27.0473 80.4843 26.8858 81.0086 26.5604L81.4112 27.2111C80.4714 28.0328 79.5339 28.4424 78.5976 28.4424C78.0416 28.4424 77.5922 28.2434 77.2493 27.8478C76.9087 27.4522 76.739 26.9513 76.739 26.345C76.739 25.9647 76.7741 25.5293 76.8466 25.0389H76.6734C75.874 26.3567 75.1577 27.2509 74.5245 27.7214C73.8937 28.1896 73.1821 28.4237 72.3897 28.4237C70.8132 28.4237 70.0255 27.6044 70.0255 25.9658C70.0255 25.4977 70.1577 24.6877 70.4234 23.536L71.2895 19.655C71.4171 19.0686 71.4815 18.6285 71.4815 18.3347C71.4815 17.636 70.9665 17.286 69.9365 17.286H69.7633L69.9599 16.3544Z" fill="#2D0B24"/>
<path d="M87.7165 26.5604L88.0957 27.3844C87.0996 28.0901 86.1036 28.4424 85.1088 28.4424C83.5006 28.4424 82.6977 27.581 82.6977 25.8582C82.6977 25.3034 82.7691 24.6831 82.9131 23.9996L84.2661 17.6185H82.5807L82.7867 16.7336C84.2251 16.7336 85.3522 15.699 86.1668 13.6297H87.1874L86.6116 16.3544H89.2942L89.0226 17.6185H86.3401L85.0011 23.934C84.8197 24.7861 84.7296 25.4216 84.7296 25.8394C84.7296 26.6447 85.1228 27.0473 85.9093 27.0473C86.5086 27.0473 87.1102 26.8858 87.7165 26.5604Z" fill="#2D0B24"/>
<path d="M90.2709 18.4612C90.1398 18.0305 89.9619 17.7285 89.7372 17.5529C89.5148 17.375 89.1848 17.2861 88.7447 17.2861H88.52L88.6932 16.3544H91.9236L93.6558 22.3329C94.1895 24.1868 94.4985 25.5246 94.5827 26.3451H94.6483C96.645 23.3114 97.6445 20.8617 97.6445 18.9949C97.6445 18.1931 97.2805 17.7917 96.5537 17.7917C96.5537 17.2954 96.6965 16.901 96.9844 16.6072C97.2712 16.3111 97.6094 16.1625 98.0003 16.1625C99.0022 16.1625 99.5031 16.7828 99.5031 18.0211C99.5031 19.8001 98.5071 22.3036 96.5162 25.5305C94.5277 28.7538 92.9324 30.8956 91.7316 31.9537C90.5331 33.0141 88.953 33.5454 86.9938 33.5454C86.2166 33.5454 85.5214 33.412 84.9058 33.1475L85.2428 32.0333C85.7613 32.1983 86.3372 32.2814 86.9704 32.2814C89.083 32.2814 91.1558 30.9378 93.1876 28.2505L90.2709 18.4612Z" fill="#2D0B24"/>
</g>
<mask id="mask98_599_59" style="mask-type:luminance" maskUnits="userSpaceOnUse" x="114" y="0" width="13" height="12">
<path d="M114.578 0.224701H126.259V11.9066H114.578V0.224701Z" fill="white"/>
</mask>
<g mask="url(#mask98_599_59)">
<path d="M120.486 0.224701C119.91 5.0901 119.443 5.55593 114.578 6.13177C114.588 6.13294 114.599 6.13411 114.608 6.13528C119.445 6.70995 119.911 7.18514 120.486 12.04C121.062 7.17461 121.527 6.70761 126.393 6.13177C121.527 5.55593 121.062 5.0901 120.486 0.224701Z" fill="#CEA50E"/>
</g>
<mask id="mask99_599_59" style="mask-type:luminance" maskUnits="userSpaceOnUse" x="16" y="25" width="100" height="31">
<path d="M115.356 25.1685H16.4794V55.1311H115.356V25.1685Z" fill="white"/>
</mask>
<g mask="url(#mask99_599_59)">
<path d="M27.705 46.7161C28.3288 46.7161 28.8848 46.6447 29.3717 46.5008C29.8586 46.3545 30.2916 46.166 30.6732 45.9343C31.0571 45.7002 31.3906 45.438 31.675 45.1478C31.9618 44.8575 32.2146 44.5708 32.4335 44.2864C32.5646 44.387 32.6687 44.5415 32.7471 44.7498C32.8279 44.9558 32.8689 45.1665 32.8689 45.3819C32.8689 45.7412 32.7717 46.1192 32.5786 46.5148C32.3878 46.9081 32.0683 47.2721 31.6189 47.6056C31.1718 47.9369 30.5795 48.2096 29.8398 48.4249C29.1001 48.6403 28.1849 48.748 27.0964 48.748C25.617 48.748 24.3249 48.5244 23.22 48.0785C22.1151 47.629 21.1952 46.9923 20.4625 46.1684C19.7322 45.3444 19.1844 44.3554 18.8192 43.2002C18.4541 42.0462 18.2715 40.7658 18.2715 39.3613C18.2715 37.9825 18.4588 36.7196 18.8333 35.5738C19.2078 34.4256 19.7614 33.4413 20.4953 32.6197C21.2315 31.7957 22.1491 31.1567 23.2481 30.7002C24.3494 30.2414 25.624 30.012 27.073 30.012C28.0526 30.012 28.9058 30.0904 29.6338 30.2461C30.3607 30.3994 30.9646 30.6089 31.4456 30.8734C31.929 31.1391 32.2907 31.4528 32.5318 31.8144C32.7717 32.1773 32.8923 32.5658 32.8923 32.9802C32.8923 33.2962 32.8232 33.5888 32.6863 33.8603C32.5482 34.1295 32.3445 34.3636 32.073 34.5626C31.8038 34.7627 31.4702 34.9184 31.0711 35.0307C30.6743 35.1431 30.2167 35.1993 29.6994 35.1993C29.6994 34.7756 29.6537 34.3542 29.5636 33.9352C29.4723 33.5139 29.3167 33.1335 29.0955 32.7929C28.8766 32.4535 28.5875 32.1773 28.2294 31.9643C27.8735 31.7524 27.4288 31.6459 26.8951 31.6459C26.0898 31.6459 25.4075 31.818 24.8492 32.1609C24.2933 32.5015 23.8473 32.9989 23.5102 33.6543C23.1755 34.3098 22.9344 35.1185 22.7846 36.0794C22.6348 37.038 22.5599 38.1323 22.5599 39.3613C22.5599 40.5914 22.65 41.6681 22.8314 42.5916C23.0152 43.5127 23.3101 44.2793 23.7162 44.8903C24.1247 45.5024 24.6549 45.96 25.308 46.262C25.9599 46.5651 26.7593 46.7161 27.705 46.7161Z" fill="#CEA50E"/>
<path d="M43.0589 38.2658C43.0589 36.921 42.7183 36.248 42.0383 36.248C41.2483 36.248 40.4102 37.0251 39.5242 38.5794C38.6406 40.1314 37.9863 41.8882 37.5626 43.851L36.6029 48.4998H34.2246L36.3688 38.2424C36.4683 37.7683 36.5186 37.3856 36.5186 37.0953C36.5186 36.2878 35.8409 35.8828 34.4868 35.8828H34.2714L34.5102 34.8107H39.0233L38.4849 38.4905H38.7471C39.4271 36.9713 40.1001 35.9366 40.7649 35.3865C41.432 34.8376 42.2068 34.5626 43.087 34.5626C44.4821 34.5626 45.1797 35.1501 45.1797 36.3229C45.1797 37.6185 44.4727 38.2658 43.0589 38.2658Z" fill="#CEA50E"/>
<path d="M54.4574 45.307C54.6318 45.417 54.7196 45.6288 54.7196 45.9437C54.7196 46.6272 54.3181 47.2662 53.5164 47.8585C52.7135 48.4519 51.6402 48.748 50.2954 48.748C48.8067 48.748 47.6047 48.2798 46.6906 47.3435C45.7753 46.4048 45.3188 45.115 45.3188 43.4764C45.3188 41.248 46.0375 39.2056 47.4771 37.3482C48.9155 35.4919 50.7308 34.5626 52.9218 34.5626C54.0045 34.5626 54.8425 34.8201 55.4359 35.335C56.0281 35.85 56.3254 36.5698 56.3254 37.4933C56.3254 38.8732 55.6091 40.0752 54.1765 41.0982C52.7439 42.1188 50.993 42.6291 48.9237 42.6291H48.4883C48.3385 42.6291 48.184 42.622 48.0248 42.6056C47.9897 42.8374 47.9733 43.1944 47.9733 43.6777C47.9733 45.9881 48.9097 47.1422 50.7823 47.1422C52.2336 47.1422 53.4579 46.5312 54.4574 45.307ZM48.2636 41.4306H48.5117C50.0157 41.4306 51.2563 41.0654 52.2336 40.335C53.2098 39.6047 53.699 38.6578 53.699 37.4933C53.699 36.3545 53.2039 35.7845 52.2149 35.7845C51.3909 35.7845 50.6208 36.303 49.9069 37.3388C49.1917 38.3723 48.644 39.7358 48.2636 41.4306Z" fill="#CEA50E"/>
<path d="M65.3197 44.6468H65.1558C63.9351 47.3809 62.3433 48.748 60.3806 48.748C59.3412 48.748 58.5325 48.3395 57.9555 47.5214C57.3773 46.7044 57.0894 45.5586 57.0894 44.085C57.0894 41.7442 57.8174 39.5719 59.2757 37.5682C60.7364 35.5644 62.5411 34.5626 64.6924 34.5626C65.8499 34.5626 66.8483 34.8704 67.6886 35.4849L68.8075 34.8388H69.6315L67.8852 43.013C67.6348 44.1869 67.5107 45.1314 67.5107 45.8453C67.5107 46.7103 67.7893 47.1422 68.3487 47.1422C68.8286 47.1422 69.4442 46.9221 70.1933 46.4821L70.6521 47.2264C69.4314 48.2412 68.2317 48.748 67.0519 48.748C65.7223 48.748 65.0575 48.0434 65.0575 46.6319C65.0575 46.0923 65.1441 45.431 65.3197 44.6468ZM66.7616 36.6319C66.3707 36.0174 65.7282 35.7096 64.8328 35.7096C63.378 35.7096 62.1572 36.6354 61.1718 38.4858C60.1886 40.3339 59.697 42.2346 59.697 44.188C59.697 46.1578 60.2319 47.1422 61.3028 47.1422C62.1514 47.1422 63.0409 46.5148 63.9714 45.2601C64.9007 44.0055 65.5163 42.6337 65.8159 41.145L66.7616 36.6319Z" fill="#CEA50E"/>
<path d="M77.6357 46.5804L78.0711 47.5261C76.9252 48.3407 75.7782 48.748 74.63 48.748C72.7785 48.748 71.8538 47.7555 71.8538 45.7704C71.8538 45.1314 71.9358 44.4163 72.102 43.6263L73.6609 36.2714H71.7134L71.9521 35.2508C73.6153 35.2508 74.9156 34.057 75.852 31.6693H77.027L76.3669 34.8107H79.4568L79.1432 36.2714H76.0533L74.5083 43.5513C74.2988 44.5322 74.1947 45.2637 74.1947 45.747C74.1947 46.6775 74.6488 47.1422 75.557 47.1422C76.2464 47.1422 76.9393 46.9549 77.6357 46.5804Z" fill="#CEA50E"/>
<path d="M87.2363 34.5626C88.7403 34.5626 89.9247 35.0167 90.7897 35.9249C91.6534 36.8308 92.0865 38.1382 92.0865 39.8482C92.0865 42.1176 91.3913 44.1681 90.0032 45.9998C88.6174 47.8327 86.7939 48.748 84.535 48.748C82.9959 48.748 81.7939 48.2833 80.9301 47.3528C80.0652 46.4235 79.6333 45.1314 79.6333 43.4764C79.6333 41.1824 80.3332 39.1248 81.7354 37.3013C83.1363 35.4755 84.9704 34.5626 87.2363 34.5626ZM84.8206 47.5027C86.2251 47.5027 87.344 46.6693 88.1773 45.0027C89.013 43.336 89.432 41.4902 89.432 39.4643C89.432 37.0953 88.601 35.9109 86.9414 35.9109C85.5521 35.9109 84.4285 36.7466 83.5706 38.4156C82.715 40.0858 82.2878 41.9432 82.2878 43.9867C82.2878 46.3311 83.1317 47.5027 84.8206 47.5027Z" fill="#CEA50E"/>
<path d="M102.335 38.2658C102.335 36.921 101.994 36.248 101.314 36.248C100.524 36.248 99.6864 37.0251 98.8004 38.5794C97.9167 40.1314 97.2624 41.8882 96.8387 43.851L95.879 48.4998H93.5007L95.6449 38.2424C95.7444 37.7683 95.7947 37.3856 95.7947 37.0953C95.7947 36.2878 95.1171 35.8828 93.7629 35.8828H93.5475L93.7863 34.8107H98.2994L97.761 38.4905H98.0232C98.7032 36.9713 99.3762 35.9366 100.041 35.3865C100.708 34.8376 101.483 34.5626 102.363 34.5626C103.758 34.5626 104.456 35.1501 104.456 36.3229C104.456 37.6185 103.749 38.2658 102.335 38.2658Z" fill="#CEA50E"/>
<path d="M112.736 38.5888C112.736 37.7344 112.535 37.0485 112.132 36.5336C111.73 36.0186 111.166 35.7611 110.442 35.7611C109.677 35.7611 109.072 35.9671 108.626 36.3791C108.182 36.7887 107.961 37.3131 107.961 37.9521C107.961 38.5174 108.173 38.9996 108.598 39.3987C109.022 39.799 109.679 40.1934 110.569 40.5832C112.612 41.4985 113.635 42.8199 113.635 44.5485C113.635 45.8032 113.153 46.818 112.189 47.5916C111.224 48.3629 109.944 48.748 108.35 48.748C107.06 48.748 106.035 48.4893 105.274 47.9708C104.515 47.45 104.136 46.7489 104.136 45.8688C104.136 45.3199 104.287 44.9032 104.59 44.6188C104.892 44.332 105.276 44.1881 105.742 44.1881C105.742 45.2438 105.997 46.0642 106.51 46.6506C107.021 47.2346 107.738 47.5261 108.659 47.5261C110.496 47.5261 111.416 46.7372 111.416 45.1572C111.416 44.5521 111.22 44.0406 110.826 43.6216C110.435 43.2002 109.773 42.7742 108.837 42.3435C107.612 41.7606 106.791 41.159 106.369 40.5411C105.95 39.9231 105.742 39.2068 105.742 38.3922C105.742 37.2779 106.196 36.3674 107.104 35.6581C108.015 34.9465 109.203 34.5907 110.667 34.5907C111.922 34.5907 112.9 34.8236 113.603 35.2882C114.305 35.7541 114.656 36.3264 114.656 37.0064C114.656 38.0621 114.016 38.5888 112.736 38.5888Z" fill="#CEA50E"/>
</g>
</g>
<defs>
<linearGradient id="paint0_linear_599_59" x1="2.0664" y1="39.8406" x2="129.466" y2="39.8406" gradientUnits="userSpaceOnUse">
<stop stop-color="#2D0B24"/>
<stop offset="0.00390625" stop-color="#2E0C24"/>
<stop offset="0.0078125" stop-color="#2E0C24"/>
<stop offset="0.0117188" stop-color="#2F0D24"/>
<stop offset="0.015625" stop-color="#300D24"/>
<stop offset="0.0195313" stop-color="#300E24"/>
<stop offset="0.0234375" stop-color="#310F23"/>
<stop offset="0.0273438" stop-color="#310F23"/>
<stop offset="0.03125" stop-color="#321023"/>
<stop offset="0.0351562" stop-color="#331023"/>
<stop offset="0.0390625" stop-color="#331123"/>
<stop offset="0.0429688" stop-color="#341223"/>
<stop offset="0.046875" stop-color="#351223"/>
<stop offset="0.0507812" stop-color="#351323"/>
<stop offset="0.0546875" stop-color="#361323"/>
<stop offset="0.0585938" stop-color="#361423"/>
<stop offset="0.0625" stop-color="#371523"/>
<stop offset="0.0664062" stop-color="#381523"/>
<stop offset="0.0703125" stop-color="#381622"/>
<stop offset="0.0742188" stop-color="#391622"/>
<stop offset="0.078125" stop-color="#3A1722"/>
<stop offset="0.0820312" stop-color="#3A1822"/>
<stop offset="0.0859375" stop-color="#3B1822"/>
<stop offset="0.0898438" stop-color="#3B1922"/>
<stop offset="0.09375" stop-color="#3C1922"/>
<stop offset="0.0976562" stop-color="#3D1A22"/>
<stop offset="0.101562" stop-color="#3D1B22"/>
<stop offset="0.105469" stop-color="#3E1B22"/>
<stop offset="0.109375" stop-color="#3F1C22"/>
<stop offset="0.113281" stop-color="#3F1C22"/>
<stop offset="0.117188" stop-color="#401D21"/>
<stop offset="0.121094" stop-color="#401E21"/>
<stop offset="0.125" stop-color="#411E21"/>
<stop offset="0.128906" stop-color="#421F21"/>
<stop offset="0.132812" stop-color="#421F21"/>
<stop offset="0.136719" stop-color="#432021"/>
<stop offset="0.140625" stop-color="#442121"/>
<stop offset="0.144531" stop-color="#442121"/>
<stop offset="0.148438" stop-color="#452221"/>
<stop offset="0.152344" stop-color="#462221"/>
<stop offset="0.15625" stop-color="#462321"/>
<stop offset="0.160156" stop-color="#472420"/>
<stop offset="0.164062" stop-color="#472420"/>
<stop offset="0.167969" stop-color="#482520"/>
<stop offset="0.171875" stop-color="#492520"/>
<stop offset="0.175781" stop-color="#492620"/>
<stop offset="0.179688" stop-color="#4A2720"/>
<stop offset="0.183594" stop-color="#4B2720"/>
<stop offset="0.1875" stop-color="#4B2820"/>
<stop offset="0.191406" stop-color="#4C2820"/>
<stop offset="0.195312" stop-color="#4C2920"/>
<stop offset="0.199219" stop-color="#4D2A20"/>
<stop offset="0.203125" stop-color="#4E2A20"/>
<stop offset="0.207031" stop-color="#4E2B1F"/>
<stop offset="0.210938" stop-color="#4F2B1F"/>
<stop offset="0.214844" stop-color="#502C1F"/>
<stop offset="0.21875" stop-color="#502D1F"/>
<stop offset="0.222656" stop-color="#512D1F"/>
<stop offset="0.226562" stop-color="#512E1F"/>
<stop offset="0.230469" stop-color="#522E1F"/>
<stop offset="0.234375" stop-color="#532F1F"/>
<stop offset="0.238281" stop-color="#53301F"/>
<stop offset="0.242188" stop-color="#54301F"/>
<stop offset="0.246094" stop-color="#55311F"/>
<stop offset="0.25" stop-color="#55311F"/>
<stop offset="0.253906" stop-color="#56321E"/>
<stop offset="0.257813" stop-color="#57331E"/>
<stop offset="0.261719" stop-color="#57331E"/>
<stop offset="0.265625" stop-color="#58341E"/>
<stop offset="0.269531" stop-color="#58351E"/>
<stop offset="0.273438" stop-color="#59351E"/>
<stop offset="0.277344" stop-color="#5A361E"/>
<stop offset="0.28125" stop-color="#5A361E"/>
<stop offset="0.285156" stop-color="#5B371E"/>
<stop offset="0.289062" stop-color="#5C381E"/>
<stop offset="0.292969" stop-color="#5C381E"/>
<stop offset="0.296875" stop-color="#5D391D"/>
<stop offset="0.300781" stop-color="#5D391D"/>
<stop offset="0.304688" stop-color="#5E3A1D"/>
<stop offset="0.308594" stop-color="#5F3B1D"/>
<stop offset="0.3125" stop-color="#5F3B1D"/>
<stop offset="0.316406" stop-color="#603C1D"/>
<stop offset="0.320312" stop-color="#613C1D"/>
<stop offset="0.324219" stop-color="#613D1D"/>
<stop offset="0.328125" stop-color="#623E1D"/>
<stop offset="0.332031" stop-color="#623E1D"/>
<stop offset="0.335938" stop-color="#633F1D"/>
<stop offset="0.339844" stop-color="#643F1D"/>
<stop offset="0.34375" stop-color="#64401C"/>
<stop offset="0.347656" stop-color="#65411C"/>
<stop offset="0.351563" stop-color="#66411C"/>
<stop offset="0.355469" stop-color="#66421C"/>
<stop offset="0.359375" stop-color="#67421C"/>
<stop offset="0.363281" stop-color="#67431C"/>
<stop offset="0.367188" stop-color="#68441C"/>
<stop offset="0.371094" stop-color="#69441C"/>
<stop offset="0.375" stop-color="#69451C"/>
<stop offset="0.378906" stop-color="#6A451C"/>
<stop offset="0.382812" stop-color="#6B461C"/>
<stop offset="0.386719" stop-color="#6B471B"/>
<stop offset="0.390625" stop-color="#6C471B"/>
<stop offset="0.394531" stop-color="#6D481B"/>
<stop offset="0.398438" stop-color="#6D481B"/>
<stop offset="0.402344" stop-color="#6E491B"/>
<stop offset="0.40625" stop-color="#6E4A1B"/>
<stop offset="0.410156" stop-color="#6F4A1B"/>
<stop offset="0.414063" stop-color="#704B1B"/>
<stop offset="0.417969" stop-color="#704B1B"/>
<stop offset="0.421875" stop-color="#714C1B"/>
<stop offset="0.425781" stop-color="#724D1B"/>
<stop offset="0.429688" stop-color="#724D1B"/>
<stop offset="0.433594" stop-color="#734E1A"/>
<stop offset="0.4375" stop-color="#734E1A"/>
<stop offset="0.441406" stop-color="#744F1A"/>
<stop offset="0.445312" stop-color="#75501A"/>
<stop offset="0.449219" stop-color="#75501A"/>
<stop offset="0.453125" stop-color="#76511A"/>
<stop offset="0.457031" stop-color="#77511A"/>
<stop offset="0.460937" stop-color="#77521A"/>
<stop offset="0.464844" stop-color="#78531A"/>
<stop offset="0.46875" stop-color="#78531A"/>
<stop offset="0.472656" stop-color="#79541A"/>
<stop offset="0.476563" stop-color="#7A541A"/>
<stop offset="0.480469" stop-color="#7A5519"/>
<stop offset="0.484375" stop-color="#7B5619"/>
<stop offset="0.488281" stop-color="#7C5619"/>
<stop offset="0.492188" stop-color="#7C5719"/>
<stop offset="0.496094" stop-color="#7D5719"/>
<stop offset="0.5" stop-color="#7D5819"/>
<stop offset="0.503906" stop-color="#7E5919"/>
<stop offset="0.507812" stop-color="#7F5919"/>
<stop offset="0.511719" stop-color="#7F5A19"/>
<stop offset="0.515625" stop-color="#805A19"/>
<stop offset="0.519531" stop-color="#815B19"/>
<stop offset="0.523438" stop-color="#815C18"/>
<stop offset="0.527344" stop-color="#825C18"/>
<stop offset="0.53125" stop-color="#835D18"/>
<stop offset="0.535156" stop-color="#835D18"/>
<stop offset="0.539062" stop-color="#845E18"/>
<stop offset="0.542969" stop-color="#845F18"/>
<stop offset="0.546875" stop-color="#855F18"/>
<stop offset="0.550781" stop-color="#866018"/>
<stop offset="0.554688" stop-color="#866018"/>
<stop offset="0.558594" stop-color="#876118"/>
<stop offset="0.5625" stop-color="#886218"/>
<stop offset="0.566406" stop-color="#886218"/>
<stop offset="0.570312" stop-color="#896317"/>
<stop offset="0.574219" stop-color="#896317"/>
<stop offset="0.578125" stop-color="#8A6417"/>
<stop offset="0.582031" stop-color="#8B6517"/>
<stop offset="0.585938" stop-color="#8B6517"/>
<stop offset="0.589844" stop-color="#8C6617"/>
<stop offset="0.59375" stop-color="#8D6617"/>
<stop offset="0.597656" stop-color="#8D6717"/>
<stop offset="0.601562" stop-color="#8E6817"/>
<stop offset="0.605469" stop-color="#8E6817"/>
<stop offset="0.609375" stop-color="#8F6917"/>
<stop offset="0.613281" stop-color="#906917"/>
<stop offset="0.617188" stop-color="#906A16"/>
<stop offset="0.621094" stop-color="#916B16"/>
<stop offset="0.625" stop-color="#926B16"/>
<stop offset="0.628906" stop-color="#926C16"/>
<stop offset="0.632813" stop-color="#936C16"/>
<stop offset="0.636719" stop-color="#946D16"/>
<stop offset="0.640625" stop-color="#946E16"/>
<stop offset="0.644531" stop-color="#956E16"/>
<stop offset="0.648438" stop-color="#956F16"/>
<stop offset="0.652344" stop-color="#966F16"/>
<stop offset="0.65625" stop-color="#977016"/>
<stop offset="0.660156" stop-color="#977115"/>
<stop offset="0.664062" stop-color="#987115"/>
<stop offset="0.667969" stop-color="#997215"/>
<stop offset="0.671875" stop-color="#997215"/>
<stop offset="0.675781" stop-color="#9A7315"/>
<stop offset="0.679688" stop-color="#9A7415"/>
<stop offset="0.683594" stop-color="#9B7415"/>
<stop offset="0.6875" stop-color="#9C7515"/>
<stop offset="0.691406" stop-color="#9C7515"/>
<stop offset="0.695312" stop-color="#9D7615"/>
<stop offset="0.699219" stop-color="#9E7715"/>
<stop offset="0.703125" stop-color="#9E7715"/>
<stop offset="0.707031" stop-color="#9F7814"/>
<stop offset="0.710938" stop-color="#9F7814"/>
<stop offset="0.714844" stop-color="#A07914"/>
<stop offset="0.71875" stop-color="#A17A14"/>
<stop offset="0.722656" stop-color="#A17A14"/>
<stop offset="0.726563" stop-color="#A27B14"/>
<stop offset="0.730469" stop-color="#A37B14"/>
<stop offset="0.734375" stop-color="#A37C14"/>
<stop offset="0.738281" stop-color="#A47D14"/>
<stop offset="0.742188" stop-color="#A47D14"/>
<stop offset="0.746094" stop-color="#A57E14"/>
<stop offset="0.75" stop-color="#A67F13"/>
<stop offset="0.753906" stop-color="#A67F13"/>
<stop offset="0.757812" stop-color="#A78013"/>
<stop offset="0.761719" stop-color="#A88013"/>
<stop offset="0.765625" stop-color="#A88113"/>
<stop offset="0.769531" stop-color="#A98213"/>
<stop offset="0.773438" stop-color="#AA8213"/>
<stop offset="0.777344" stop-color="#AA8313"/>
<stop offset="0.78125" stop-color="#AB8313"/>
<stop offset="0.785156" stop-color="#AB8413"/>
<stop offset="0.789062" stop-color="#AC8513"/>
<stop offset="0.792969" stop-color="#AD8513"/>
<stop offset="0.796875" stop-color="#AD8612"/>
<stop offset="0.800781" stop-color="#AE8612"/>
<stop offset="0.804688" stop-color="#AF8712"/>
<stop offset="0.808594" stop-color="#AF8812"/>
<stop offset="0.8125" stop-color="#B08812"/>
<stop offset="0.816406" stop-color="#B08912"/>
<stop offset="0.820312" stop-color="#B18912"/>
<stop offset="0.824219" stop-color="#B28A12"/>
<stop offset="0.828125" stop-color="#B28B12"/>
<stop offset="0.832031" stop-color="#B38B12"/>
<stop offset="0.835938" stop-color="#B48C12"/>
<stop offset="0.839844" stop-color="#B48C12"/>
<stop offset="0.84375" stop-color="#B58D11"/>
<stop offset="0.847656" stop-color="#B58E11"/>
<stop offset="0.851563" stop-color="#B68E11"/>
<stop offset="0.855469" stop-color="#B78F11"/>
<stop offset="0.859375" stop-color="#B78F11"/>
<stop offset="0.863281" stop-color="#B89011"/>
<stop offset="0.867188" stop-color="#B99111"/>
<stop offset="0.871094" stop-color="#B99111"/>
<stop offset="0.875" stop-color="#BA9211"/>
<stop offset="0.878906" stop-color="#BA9211"/>
<stop offset="0.882812" stop-color="#BB9311"/>
<stop offset="0.886719" stop-color="#BC9410"/>
<stop offset="0.890625" stop-color="#BC9410"/>
<stop offset="0.894531" stop-color="#BD9510"/>
<stop offset="0.898438" stop-color="#BE9510"/>
<stop offset="0.902344" stop-color="#BE9610"/>
<stop offset="0.90625" stop-color="#BF9710"/>
<stop offset="0.910156" stop-color="#C09710"/>
<stop offset="0.914062" stop-color="#C09810"/>
<stop offset="0.917969" stop-color="#C19810"/>
<stop offset="0.921875" stop-color="#C19910"/>
<stop offset="0.925781" stop-color="#C29A10"/>
<stop offset="0.929688" stop-color="#C39A10"/>
<stop offset="0.933594" stop-color="#C39B0F"/>
<stop offset="0.9375" stop-color="#C49B0F"/>
<stop offset="0.941406" stop-color="#C59C0F"/>
<stop offset="0.945312" stop-color="#C59D0F"/>
<stop offset="0.949219" stop-color="#C69D0F"/>
<stop offset="0.953125" stop-color="#C69E0F"/>
<stop offset="0.957031" stop-color="#C79E0F"/>
<stop offset="0.960938" stop-color="#C89F0F"/>
<stop offset="0.964844" stop-color="#C8A00F"/>
<stop offset="0.96875" stop-color="#C9A00F"/>
<stop offset="0.972656" stop-color="#CAA10F"/>
<stop offset="0.976562" stop-color="#CAA10F"/>
<stop offset="0.980469" stop-color="#CBA20E"/>
<stop offset="0.984375" stop-color="#CBA30E"/>
<stop offset="0.988281" stop-color="#CCA30E"/>
<stop offset="0.992188" stop-color="#CDA40E"/>
<stop offset="0.996094" stop-color="#CDA40E"/>
<stop offset="1" stop-color="#CEA50E"/>
</linearGradient>
</defs>
</svg>
