<svg xmlns="http://www.w3.org/2000/svg" xmlns:xlink="http://www.w3.org/1999/xlink" width="794" zoomAndPan="magnify" viewBox="0 0 595.5 842.249979" height="1123" preserveAspectRatio="xMidYMid meet" version="1.2"><defs><clipPath id="212008f37b"><path d="M 0.015625 0 L 594.984375 0 L 594.984375 841.5 L 0.015625 841.5 Z M 0.015625 0 "/></clipPath><clipPath id="b8d0470e34"><path d="M 6.898438 20.46875 L 432.09375 20.46875 L 432.09375 245.960938 L 6.898438 245.960938 Z M 6.898438 20.46875 "/></clipPath><clipPath id="c4ee3c2c74"><path d="M 10.644531 20.46875 L 428.347656 20.46875 C 429.339844 20.46875 430.292969 20.863281 430.996094 21.566406 C 431.699219 22.269531 432.09375 23.222656 432.09375 24.214844 L 432.09375 241.722656 C 432.09375 242.714844 431.699219 243.667969 430.996094 244.371094 C 430.292969 245.074219 429.339844 245.46875 428.347656 245.46875 L 10.644531 245.46875 C 9.648438 245.46875 8.695312 245.074219 7.992188 244.371094 C 7.292969 243.667969 6.898438 242.714844 6.898438 241.722656 L 6.898438 24.214844 C 6.898438 23.222656 7.292969 22.269531 7.992188 21.566406 C 8.695312 20.863281 9.648438 20.46875 10.644531 20.46875 Z M 10.644531 20.46875 "/></clipPath><linearGradient x1="0" gradientTransform="matrix(6.30513,0,0,6.30513,-0.000000000000016875,0.000000000000042633)" y1="16.933001" x2="64" gradientUnits="userSpaceOnUse" y2="16.933001" id="147276bc19"><stop style="stop-color:#2d0b24;stop-opacity:1;" offset="0"/><stop style="stop-color:#2e0c24;stop-opacity:1;" offset="0.00390625"/><stop style="stop-color:#2e0c24;stop-opacity:1;" offset="0.0078125"/><stop style="stop-color:#2f0d24;stop-opacity:1;" offset="0.0117188"/><stop style="stop-color:#300d24;stop-opacity:1;" offset="0.015625"/><stop style="stop-color:#300e24;stop-opacity:1;" offset="0.0195313"/><stop style="stop-color:#310f23;stop-opacity:1;" offset="0.0234375"/><stop style="stop-color:#310f23;stop-opacity:1;" offset="0.0273438"/><stop style="stop-color:#321023;stop-opacity:1;" offset="0.03125"/><stop style="stop-color:#331023;stop-opacity:1;" offset="0.0351562"/><stop style="stop-color:#331123;stop-opacity:1;" offset="0.0390625"/><stop style="stop-color:#341223;stop-opacity:1;" offset="0.0429688"/><stop style="stop-color:#351223;stop-opacity:1;" offset="0.046875"/><stop style="stop-color:#351323;stop-opacity:1;" offset="0.0507812"/><stop style="stop-color:#361323;stop-opacity:1;" offset="0.0546875"/><stop style="stop-color:#361423;stop-opacity:1;" offset="0.0585938"/><stop style="stop-color:#371523;stop-opacity:1;" offset="0.0625"/><stop style="stop-color:#381523;stop-opacity:1;" offset="0.0664062"/><stop style="stop-color:#381622;stop-opacity:1;" offset="0.0703125"/><stop style="stop-color:#391622;stop-opacity:1;" offset="0.0742188"/><stop style="stop-color:#3a1722;stop-opacity:1;" offset="0.078125"/><stop style="stop-color:#3a1822;stop-opacity:1;" offset="0.0820312"/><stop style="stop-color:#3b1822;stop-opacity:1;" offset="0.0859375"/><stop style="stop-color:#3b1922;stop-opacity:1;" offset="0.0898438"/><stop style="stop-color:#3c1922;stop-opacity:1;" offset="0.09375"/><stop style="stop-color:#3d1a22;stop-opacity:1;" offset="0.0976562"/><stop style="stop-color:#3d1b22;stop-opacity:1;" offset="0.101562"/><stop style="stop-color:#3e1b22;stop-opacity:1;" offset="0.105469"/><stop style="stop-color:#3f1c22;stop-opacity:1;" offset="0.109375"/><stop style="stop-color:#3f1c22;stop-opacity:1;" offset="0.113281"/><stop style="stop-color:#401d21;stop-opacity:1;" offset="0.117188"/><stop style="stop-color:#401e21;stop-opacity:1;" offset="0.121094"/><stop style="stop-color:#411e21;stop-opacity:1;" offset="0.125"/><stop style="stop-color:#421f21;stop-opacity:1;" offset="0.128906"/><stop style="stop-color:#421f21;stop-opacity:1;" offset="0.132812"/><stop style="stop-color:#432021;stop-opacity:1;" offset="0.136719"/><stop style="stop-color:#442121;stop-opacity:1;" offset="0.140625"/><stop style="stop-color:#442121;stop-opacity:1;" offset="0.144531"/><stop style="stop-color:#452221;stop-opacity:1;" offset="0.148438"/><stop style="stop-color:#462221;stop-opacity:1;" offset="0.152344"/><stop style="stop-color:#462321;stop-opacity:1;" offset="0.15625"/><stop style="stop-color:#472420;stop-opacity:1;" offset="0.160156"/><stop style="stop-color:#472420;stop-opacity:1;" offset="0.164062"/><stop style="stop-color:#482520;stop-opacity:1;" offset="0.167969"/><stop style="stop-color:#492520;stop-opacity:1;" offset="0.171875"/><stop style="stop-color:#492620;stop-opacity:1;" offset="0.175781"/><stop style="stop-color:#4a2720;stop-opacity:1;" offset="0.179688"/><stop style="stop-color:#4b2720;stop-opacity:1;" offset="0.183594"/><stop style="stop-color:#4b2820;stop-opacity:1;" offset="0.1875"/><stop style="stop-color:#4c2820;stop-opacity:1;" offset="0.191406"/><stop style="stop-color:#4c2920;stop-opacity:1;" offset="0.195312"/><stop style="stop-color:#4d2a20;stop-opacity:1;" offset="0.199219"/><stop style="stop-color:#4e2a20;stop-opacity:1;" offset="0.203125"/><stop style="stop-color:#4e2b1f;stop-opacity:1;" offset="0.207031"/><stop style="stop-color:#4f2b1f;stop-opacity:1;" offset="0.210938"/><stop style="stop-color:#502c1f;stop-opacity:1;" offset="0.214844"/><stop style="stop-color:#502d1f;stop-opacity:1;" offset="0.21875"/><stop style="stop-color:#512d1f;stop-opacity:1;" offset="0.222656"/><stop style="stop-color:#512e1f;stop-opacity:1;" offset="0.226562"/><stop style="stop-color:#522e1f;stop-opacity:1;" offset="0.230469"/><stop style="stop-color:#532f1f;stop-opacity:1;" offset="0.234375"/><stop style="stop-color:#53301f;stop-opacity:1;" offset="0.238281"/><stop style="stop-color:#54301f;stop-opacity:1;" offset="0.242188"/><stop style="stop-color:#55311f;stop-opacity:1;" offset="0.246094"/><stop style="stop-color:#55311f;stop-opacity:1;" offset="0.25"/><stop style="stop-color:#56321e;stop-opacity:1;" offset="0.253906"/><stop style="stop-color:#57331e;stop-opacity:1;" offset="0.257813"/><stop style="stop-color:#57331e;stop-opacity:1;" offset="0.261719"/><stop style="stop-color:#58341e;stop-opacity:1;" offset="0.265625"/><stop style="stop-color:#58351e;stop-opacity:1;" offset="0.269531"/><stop style="stop-color:#59351e;stop-opacity:1;" offset="0.273438"/><stop style="stop-color:#5a361e;stop-opacity:1;" offset="0.277344"/><stop style="stop-color:#5a361e;stop-opacity:1;" offset="0.28125"/><stop style="stop-color:#5b371e;stop-opacity:1;" offset="0.285156"/><stop style="stop-color:#5c381e;stop-opacity:1;" offset="0.289062"/><stop style="stop-color:#5c381e;stop-opacity:1;" offset="0.292969"/><stop style="stop-color:#5d391d;stop-opacity:1;" offset="0.296875"/><stop style="stop-color:#5d391d;stop-opacity:1;" offset="0.300781"/><stop style="stop-color:#5e3a1d;stop-opacity:1;" offset="0.304688"/><stop style="stop-color:#5f3b1d;stop-opacity:1;" offset="0.308594"/><stop style="stop-color:#5f3b1d;stop-opacity:1;" offset="0.3125"/><stop style="stop-color:#603c1d;stop-opacity:1;" offset="0.316406"/><stop style="stop-color:#613c1d;stop-opacity:1;" offset="0.320312"/><stop style="stop-color:#613d1d;stop-opacity:1;" offset="0.324219"/><stop style="stop-color:#623e1d;stop-opacity:1;" offset="0.328125"/><stop style="stop-color:#623e1d;stop-opacity:1;" offset="0.332031"/><stop style="stop-color:#633f1d;stop-opacity:1;" offset="0.335938"/><stop style="stop-color:#643f1d;stop-opacity:1;" offset="0.339844"/><stop style="stop-color:#64401c;stop-opacity:1;" offset="0.34375"/><stop style="stop-color:#65411c;stop-opacity:1;" offset="0.347656"/><stop style="stop-color:#66411c;stop-opacity:1;" offset="0.351563"/><stop style="stop-color:#66421c;stop-opacity:1;" offset="0.355469"/><stop style="stop-color:#67421c;stop-opacity:1;" offset="0.359375"/><stop style="stop-color:#67431c;stop-opacity:1;" offset="0.363281"/><stop style="stop-color:#68441c;stop-opacity:1;" offset="0.367188"/><stop style="stop-color:#69441c;stop-opacity:1;" offset="0.371094"/><stop style="stop-color:#69451c;stop-opacity:1;" offset="0.375"/><stop style="stop-color:#6a451c;stop-opacity:1;" offset="0.378906"/><stop style="stop-color:#6b461c;stop-opacity:1;" offset="0.382812"/><stop style="stop-color:#6b471b;stop-opacity:1;" offset="0.386719"/><stop style="stop-color:#6c471b;stop-opacity:1;" offset="0.390625"/><stop style="stop-color:#6d481b;stop-opacity:1;" offset="0.394531"/><stop style="stop-color:#6d481b;stop-opacity:1;" offset="0.398438"/><stop style="stop-color:#6e491b;stop-opacity:1;" offset="0.402344"/><stop style="stop-color:#6e4a1b;stop-opacity:1;" offset="0.40625"/><stop style="stop-color:#6f4a1b;stop-opacity:1;" offset="0.410156"/><stop style="stop-color:#704b1b;stop-opacity:1;" offset="0.414063"/><stop style="stop-color:#704b1b;stop-opacity:1;" offset="0.417969"/><stop style="stop-color:#714c1b;stop-opacity:1;" offset="0.421875"/><stop style="stop-color:#724d1b;stop-opacity:1;" offset="0.425781"/><stop style="stop-color:#724d1b;stop-opacity:1;" offset="0.429688"/><stop style="stop-color:#734e1a;stop-opacity:1;" offset="0.433594"/><stop style="stop-color:#734e1a;stop-opacity:1;" offset="0.4375"/><stop style="stop-color:#744f1a;stop-opacity:1;" offset="0.441406"/><stop style="stop-color:#75501a;stop-opacity:1;" offset="0.445312"/><stop style="stop-color:#75501a;stop-opacity:1;" offset="0.449219"/><stop style="stop-color:#76511a;stop-opacity:1;" offset="0.453125"/><stop style="stop-color:#77511a;stop-opacity:1;" offset="0.457031"/><stop style="stop-color:#77521a;stop-opacity:1;" offset="0.460937"/><stop style="stop-color:#78531a;stop-opacity:1;" offset="0.464844"/><stop style="stop-color:#78531a;stop-opacity:1;" offset="0.46875"/><stop style="stop-color:#79541a;stop-opacity:1;" offset="0.472656"/><stop style="stop-color:#7a541a;stop-opacity:1;" offset="0.476563"/><stop style="stop-color:#7a5519;stop-opacity:1;" offset="0.480469"/><stop style="stop-color:#7b5619;stop-opacity:1;" offset="0.484375"/><stop style="stop-color:#7c5619;stop-opacity:1;" offset="0.488281"/><stop style="stop-color:#7c5719;stop-opacity:1;" offset="0.492188"/><stop style="stop-color:#7d5719;stop-opacity:1;" offset="0.496094"/><stop style="stop-color:#7d5819;stop-opacity:1;" offset="0.5"/><stop style="stop-color:#7e5919;stop-opacity:1;" offset="0.503906"/><stop style="stop-color:#7f5919;stop-opacity:1;" offset="0.507812"/><stop style="stop-color:#7f5a19;stop-opacity:1;" offset="0.511719"/><stop style="stop-color:#805a19;stop-opacity:1;" offset="0.515625"/><stop style="stop-color:#815b19;stop-opacity:1;" offset="0.519531"/><stop style="stop-color:#815c18;stop-opacity:1;" offset="0.523438"/><stop style="stop-color:#825c18;stop-opacity:1;" offset="0.527344"/><stop style="stop-color:#835d18;stop-opacity:1;" offset="0.53125"/><stop style="stop-color:#835d18;stop-opacity:1;" offset="0.535156"/><stop style="stop-color:#845e18;stop-opacity:1;" offset="0.539062"/><stop style="stop-color:#845f18;stop-opacity:1;" offset="0.542969"/><stop style="stop-color:#855f18;stop-opacity:1;" offset="0.546875"/><stop style="stop-color:#866018;stop-opacity:1;" offset="0.550781"/><stop style="stop-color:#866018;stop-opacity:1;" offset="0.554688"/><stop style="stop-color:#876118;stop-opacity:1;" offset="0.558594"/><stop style="stop-color:#886218;stop-opacity:1;" offset="0.5625"/><stop style="stop-color:#886218;stop-opacity:1;" offset="0.566406"/><stop style="stop-color:#896317;stop-opacity:1;" offset="0.570312"/><stop style="stop-color:#896317;stop-opacity:1;" offset="0.574219"/><stop style="stop-color:#8a6417;stop-opacity:1;" offset="0.578125"/><stop style="stop-color:#8b6517;stop-opacity:1;" offset="0.582031"/><stop style="stop-color:#8b6517;stop-opacity:1;" offset="0.585938"/><stop style="stop-color:#8c6617;stop-opacity:1;" offset="0.589844"/><stop style="stop-color:#8d6617;stop-opacity:1;" offset="0.59375"/><stop style="stop-color:#8d6717;stop-opacity:1;" offset="0.597656"/><stop style="stop-color:#8e6817;stop-opacity:1;" offset="0.601562"/><stop style="stop-color:#8e6817;stop-opacity:1;" offset="0.605469"/><stop style="stop-color:#8f6917;stop-opacity:1;" offset="0.609375"/><stop style="stop-color:#906917;stop-opacity:1;" offset="0.613281"/><stop style="stop-color:#906a16;stop-opacity:1;" offset="0.617188"/><stop style="stop-color:#916b16;stop-opacity:1;" offset="0.621094"/><stop style="stop-color:#926b16;stop-opacity:1;" offset="0.625"/><stop style="stop-color:#926c16;stop-opacity:1;" offset="0.628906"/><stop style="stop-color:#936c16;stop-opacity:1;" offset="0.632813"/><stop style="stop-color:#946d16;stop-opacity:1;" offset="0.636719"/><stop style="stop-color:#946e16;stop-opacity:1;" offset="0.640625"/><stop style="stop-color:#956e16;stop-opacity:1;" offset="0.644531"/><stop style="stop-color:#956f16;stop-opacity:1;" offset="0.648438"/><stop style="stop-color:#966f16;stop-opacity:1;" offset="0.652344"/><stop style="stop-color:#977016;stop-opacity:1;" offset="0.65625"/><stop style="stop-color:#977115;stop-opacity:1;" offset="0.660156"/><stop style="stop-color:#987115;stop-opacity:1;" offset="0.664062"/><stop style="stop-color:#997215;stop-opacity:1;" offset="0.667969"/><stop style="stop-color:#997215;stop-opacity:1;" offset="0.671875"/><stop style="stop-color:#9a7315;stop-opacity:1;" offset="0.675781"/><stop style="stop-color:#9a7415;stop-opacity:1;" offset="0.679688"/><stop style="stop-color:#9b7415;stop-opacity:1;" offset="0.683594"/><stop style="stop-color:#9c7515;stop-opacity:1;" offset="0.6875"/><stop style="stop-color:#9c7515;stop-opacity:1;" offset="0.691406"/><stop style="stop-color:#9d7615;stop-opacity:1;" offset="0.695312"/><stop style="stop-color:#9e7715;stop-opacity:1;" offset="0.699219"/><stop style="stop-color:#9e7715;stop-opacity:1;" offset="0.703125"/><stop style="stop-color:#9f7814;stop-opacity:1;" offset="0.707031"/><stop style="stop-color:#9f7814;stop-opacity:1;" offset="0.710938"/><stop style="stop-color:#a07914;stop-opacity:1;" offset="0.714844"/><stop style="stop-color:#a17a14;stop-opacity:1;" offset="0.71875"/><stop style="stop-color:#a17a14;stop-opacity:1;" offset="0.722656"/><stop style="stop-color:#a27b14;stop-opacity:1;" offset="0.726563"/><stop style="stop-color:#a37b14;stop-opacity:1;" offset="0.730469"/><stop style="stop-color:#a37c14;stop-opacity:1;" offset="0.734375"/><stop style="stop-color:#a47d14;stop-opacity:1;" offset="0.738281"/><stop style="stop-color:#a47d14;stop-opacity:1;" offset="0.742188"/><stop style="stop-color:#a57e14;stop-opacity:1;" offset="0.746094"/><stop style="stop-color:#a67f13;stop-opacity:1;" offset="0.75"/><stop style="stop-color:#a67f13;stop-opacity:1;" offset="0.753906"/><stop style="stop-color:#a78013;stop-opacity:1;" offset="0.757812"/><stop style="stop-color:#a88013;stop-opacity:1;" offset="0.761719"/><stop style="stop-color:#a88113;stop-opacity:1;" offset="0.765625"/><stop style="stop-color:#a98213;stop-opacity:1;" offset="0.769531"/><stop style="stop-color:#aa8213;stop-opacity:1;" offset="0.773438"/><stop style="stop-color:#aa8313;stop-opacity:1;" offset="0.777344"/><stop style="stop-color:#ab8313;stop-opacity:1;" offset="0.78125"/><stop style="stop-color:#ab8413;stop-opacity:1;" offset="0.785156"/><stop style="stop-color:#ac8513;stop-opacity:1;" offset="0.789062"/><stop style="stop-color:#ad8513;stop-opacity:1;" offset="0.792969"/><stop style="stop-color:#ad8612;stop-opacity:1;" offset="0.796875"/><stop style="stop-color:#ae8612;stop-opacity:1;" offset="0.800781"/><stop style="stop-color:#af8712;stop-opacity:1;" offset="0.804688"/><stop style="stop-color:#af8812;stop-opacity:1;" offset="0.808594"/><stop style="stop-color:#b08812;stop-opacity:1;" offset="0.8125"/><stop style="stop-color:#b08912;stop-opacity:1;" offset="0.816406"/><stop style="stop-color:#b18912;stop-opacity:1;" offset="0.820312"/><stop style="stop-color:#b28a12;stop-opacity:1;" offset="0.824219"/><stop style="stop-color:#b28b12;stop-opacity:1;" offset="0.828125"/><stop style="stop-color:#b38b12;stop-opacity:1;" offset="0.832031"/><stop style="stop-color:#b48c12;stop-opacity:1;" offset="0.835938"/><stop style="stop-color:#b48c12;stop-opacity:1;" offset="0.839844"/><stop style="stop-color:#b58d11;stop-opacity:1;" offset="0.84375"/><stop style="stop-color:#b58e11;stop-opacity:1;" offset="0.847656"/><stop style="stop-color:#b68e11;stop-opacity:1;" offset="0.851563"/><stop style="stop-color:#b78f11;stop-opacity:1;" offset="0.855469"/><stop style="stop-color:#b78f11;stop-opacity:1;" offset="0.859375"/><stop style="stop-color:#b89011;stop-opacity:1;" offset="0.863281"/><stop style="stop-color:#b99111;stop-opacity:1;" offset="0.867188"/><stop style="stop-color:#b99111;stop-opacity:1;" offset="0.871094"/><stop style="stop-color:#ba9211;stop-opacity:1;" offset="0.875"/><stop style="stop-color:#ba9211;stop-opacity:1;" offset="0.878906"/><stop style="stop-color:#bb9311;stop-opacity:1;" offset="0.882812"/><stop style="stop-color:#bc9410;stop-opacity:1;" offset="0.886719"/><stop style="stop-color:#bc9410;stop-opacity:1;" offset="0.890625"/><stop style="stop-color:#bd9510;stop-opacity:1;" offset="0.894531"/><stop style="stop-color:#be9510;stop-opacity:1;" offset="0.898438"/><stop style="stop-color:#be9610;stop-opacity:1;" offset="0.902344"/><stop style="stop-color:#bf9710;stop-opacity:1;" offset="0.90625"/><stop style="stop-color:#c09710;stop-opacity:1;" offset="0.910156"/><stop style="stop-color:#c09810;stop-opacity:1;" offset="0.914062"/><stop style="stop-color:#c19810;stop-opacity:1;" offset="0.917969"/><stop style="stop-color:#c19910;stop-opacity:1;" offset="0.921875"/><stop style="stop-color:#c29a10;stop-opacity:1;" offset="0.925781"/><stop style="stop-color:#c39a10;stop-opacity:1;" offset="0.929688"/><stop style="stop-color:#c39b0f;stop-opacity:1;" offset="0.933594"/><stop style="stop-color:#c49b0f;stop-opacity:1;" offset="0.9375"/><stop style="stop-color:#c59c0f;stop-opacity:1;" offset="0.941406"/><stop style="stop-color:#c59d0f;stop-opacity:1;" offset="0.945312"/><stop style="stop-color:#c69d0f;stop-opacity:1;" offset="0.949219"/><stop style="stop-color:#c69e0f;stop-opacity:1;" offset="0.953125"/><stop style="stop-color:#c79e0f;stop-opacity:1;" offset="0.957031"/><stop style="stop-color:#c89f0f;stop-opacity:1;" offset="0.960938"/><stop style="stop-color:#c8a00f;stop-opacity:1;" offset="0.964844"/><stop style="stop-color:#c9a00f;stop-opacity:1;" offset="0.96875"/><stop style="stop-color:#caa10f;stop-opacity:1;" offset="0.972656"/><stop style="stop-color:#caa10f;stop-opacity:1;" offset="0.976562"/><stop style="stop-color:#cba20e;stop-opacity:1;" offset="0.980469"/><stop style="stop-color:#cba30e;stop-opacity:1;" offset="0.984375"/><stop style="stop-color:#cca30e;stop-opacity:1;" offset="0.988281"/><stop style="stop-color:#cda40e;stop-opacity:1;" offset="0.992188"/><stop style="stop-color:#cda40e;stop-opacity:1;" offset="0.996094"/><stop style="stop-color:#cea50e;stop-opacity:1;" offset="1"/></linearGradient><clipPath id="dcbd84935c"><path d="M 19.40625 224.214844 L 61.554688 224.214844 L 61.554688 266.363281 L 19.40625 266.363281 Z M 19.40625 224.214844 "/></clipPath><clipPath id="be0b51af5c"><path d="M 175.394531 187.289062 L 200.558594 187.289062 L 200.558594 210.53125 L 175.394531 210.53125 Z M 175.394531 187.289062 "/></clipPath><clipPath id="c09bbc61a6"><path d="M 187.878906 208.164062 C 182.710938 208.164062 178.457031 204.011719 178.457031 199.011719 C 178.457031 194.015625 182.511719 189.667969 188.078125 189.667969 C 193.507812 189.667969 197.496094 194.015625 197.496094 199.011719 C 197.496094 204.011719 193.042969 208.164062 187.878906 208.164062 M 187.964844 187.371094 C 180.5 187.371094 175.414062 192.632812 175.414062 199.007812 C 175.414062 205.714844 181.035156 210.449219 187.964844 210.449219 C 194.898438 210.449219 200.519531 205.78125 200.519531 199.007812 C 200.515625 192.632812 195.363281 187.371094 187.964844 187.371094 "/></clipPath><clipPath id="6a2f755adc"><path d="M 0.394531 0.296875 L 25.558594 0.296875 L 25.558594 23.53125 L 0.394531 23.53125 Z M 0.394531 0.296875 "/></clipPath><clipPath id="f0da29b977"><path d="M 12.878906 21.164062 C 7.710938 21.164062 3.457031 17.011719 3.457031 12.011719 C 3.457031 7.015625 7.511719 2.667969 13.078125 2.667969 C 18.507812 2.667969 22.496094 7.015625 22.496094 12.011719 C 22.496094 17.011719 18.042969 21.164062 12.878906 21.164062 M 12.964844 0.371094 C 5.5 0.371094 0.414062 5.632812 0.414062 12.007812 C 0.414062 18.714844 6.035156 23.449219 12.964844 23.449219 C 19.898438 23.449219 25.519531 18.78125 25.519531 12.007812 C 25.515625 5.632812 20.363281 0.371094 12.964844 0.371094 "/></clipPath><clipPath id="ebf1b08fa0"><rect x="0" width="26" y="0" height="24"/></clipPath><clipPath id="6645c4ecf4"><path d="M 168.671875 190.457031 L 174.148438 190.457031 L 174.148438 197 L 168.671875 197 Z M 168.671875 190.457031 "/></clipPath><clipPath id="406cf2574b"><path d="M 168.75 197 L 170.65625 197 L 174.121094 190.484375 L 171.335938 190.484375 Z M 168.75 197 "/></clipPath><clipPath id="23eac273c3"><path d="M 0.671875 0.457031 L 6.148438 0.457031 L 6.148438 7 L 0.671875 7 Z M 0.671875 0.457031 "/></clipPath><clipPath id="64af53a117"><path d="M 0.75 7 L 2.65625 7 L 6.121094 0.484375 L 3.335938 0.484375 Z M 0.75 7 "/></clipPath><clipPath id="73147fca8c"><rect x="0" width="7" y="0" height="7"/></clipPath><clipPath id="1c7e605878"><path d="M 156.84375 190.484375 L 159.417969 190.484375 L 159.417969 206.886719 L 156.84375 206.886719 Z M 156.84375 206.886719 L 173.484375 206.886719 L 173.484375 208.894531 L 156.84375 208.894531 Z M 156.84375 206.886719 "/></clipPath><clipPath id="90e45e422c"><path d="M 0.84375 0.484375 L 3.417969 0.484375 L 3.417969 16.886719 L 0.84375 16.886719 Z M 0.84375 16.886719 L 17.484375 16.886719 L 17.484375 18.894531 L 0.84375 18.894531 Z M 0.84375 16.886719 "/></clipPath><clipPath id="d6c182b7ed"><rect x="0" width="18" y="0" height="19"/></clipPath><clipPath id="68f46cfb5a"><path d="M 203.863281 190.484375 L 222.992188 190.484375 L 222.992188 208.894531 L 203.863281 208.894531 Z M 203.863281 190.484375 "/></clipPath><clipPath id="a9a1f4700d"><path d="M 215.105469 198.996094 L 206.507812 198.996094 L 206.507812 192.667969 L 215.40625 192.667969 C 217.453125 192.667969 218.605469 193.621094 219.019531 194.835938 C 219.292969 195.671875 219.117188 196.761719 218.664062 197.507812 C 217.921875 198.738281 216.507812 199 215.105469 199 M 217.308594 201.199219 C 221.527344 200.074219 221.9375 196.933594 221.917969 195.8125 C 221.664062 192.523438 219.449219 190.484375 215.464844 190.484375 L 203.863281 190.484375 L 203.863281 208.894531 L 206.507812 208.894531 L 206.507812 201.171875 L 214.0625 201.171875 L 219.617188 208.894531 L 222.953125 208.894531 C 222.953125 208.894531 218.957031 203.695312 217.308594 201.195312 "/></clipPath><clipPath id="b74a2ce819"><path d="M 0.863281 0.484375 L 19.992188 0.484375 L 19.992188 18.894531 L 0.863281 18.894531 Z M 0.863281 0.484375 "/></clipPath><clipPath id="662e9b96a6"><path d="M 12.105469 8.996094 L 3.507812 8.996094 L 3.507812 2.667969 L 12.40625 2.667969 C 14.453125 2.667969 15.605469 3.621094 16.019531 4.835938 C 16.292969 5.671875 16.117188 6.761719 15.664062 7.507812 C 14.921875 8.738281 13.507812 9 12.105469 9 M 14.308594 11.199219 C 18.527344 10.074219 18.9375 6.933594 18.917969 5.8125 C 18.664062 2.523438 16.449219 0.484375 12.464844 0.484375 L 0.863281 0.484375 L 0.863281 18.894531 L 3.507812 18.894531 L 3.507812 11.171875 L 11.0625 11.171875 L 16.617188 18.894531 L 19.953125 18.894531 C 19.953125 18.894531 15.957031 13.695312 14.308594 11.195312 "/></clipPath><clipPath id="e53f0ba6ba"><rect x="0" width="20" y="0" height="19"/></clipPath><clipPath id="a8f764f6f9"><path d="M 226.242188 190.484375 L 242.703125 190.484375 L 242.703125 192.488281 L 226.242188 192.488281 Z M 226.242188 192.488281 L 229.066406 192.488281 L 229.066406 198.414062 L 226.242188 198.414062 Z M 226.242188 198.414062 L 239.308594 198.414062 L 239.308594 200.449219 L 226.242188 200.449219 Z M 226.242188 200.449219 L 229.066406 200.449219 L 229.066406 206.886719 L 226.242188 206.886719 Z M 226.242188 206.886719 L 242.703125 206.886719 L 242.703125 208.894531 L 226.242188 208.894531 Z M 226.242188 206.886719 "/></clipPath><clipPath id="63f3be0ac3"><path d="M 0.242188 0.484375 L 16.703125 0.484375 L 16.703125 2.488281 L 0.242188 2.488281 Z M 0.242188 2.488281 L 3.066406 2.488281 L 3.066406 8.414062 L 0.242188 8.414062 Z M 0.242188 8.414062 L 13.308594 8.414062 L 13.308594 10.449219 L 0.242188 10.449219 Z M 0.242188 10.449219 L 3.066406 10.449219 L 3.066406 16.886719 L 0.242188 16.886719 Z M 0.242188 16.886719 L 16.703125 16.886719 L 16.703125 18.894531 L 0.242188 18.894531 Z M 0.242188 16.886719 "/></clipPath><clipPath id="98530629bd"><rect x="0" width="17" y="0" height="19"/></clipPath><clipPath id="d7f825e023"><path d="M 232.550781 187.472656 L 239.613281 187.472656 L 239.613281 190.066406 L 232.550781 190.066406 Z M 232.550781 187.472656 "/></clipPath><clipPath id="757cb811c1"><path d="M 234.796875 187.511719 L 232.566406 190.015625 L 239.5625 187.511719 Z M 234.796875 187.511719 "/></clipPath><clipPath id="4a30a893ba"><path d="M 0.550781 0.472656 L 7.613281 0.472656 L 7.613281 3.066406 L 0.550781 3.066406 Z M 0.550781 0.472656 "/></clipPath><clipPath id="885a71c35f"><path d="M 2.796875 0.511719 L 0.566406 3.015625 L 7.5625 0.511719 Z M 2.796875 0.511719 "/></clipPath><clipPath id="4cc950c763"><rect x="0" width="8" y="0" height="4"/></clipPath><clipPath id="5647b831f8"><path d="M 267.761719 190.484375 L 270.335938 190.484375 L 270.335938 206.886719 L 267.761719 206.886719 Z M 267.761719 206.886719 L 284.402344 206.886719 L 284.402344 208.894531 L 267.761719 208.894531 Z M 267.761719 206.886719 "/></clipPath><clipPath id="07cb683a91"><path d="M 0.761719 0.484375 L 3.335938 0.484375 L 3.335938 16.886719 L 0.761719 16.886719 Z M 0.761719 16.886719 L 17.402344 16.886719 L 17.402344 18.894531 L 0.761719 18.894531 Z M 0.761719 16.886719 "/></clipPath><clipPath id="7fbd4891a8"><rect x="0" width="18" y="0" height="19"/></clipPath><clipPath id="66f2f09aa6"><path d="M 244 190.425781 L 266.351562 190.425781 L 266.351562 208.933594 L 244 208.933594 Z M 244 190.425781 "/></clipPath><clipPath id="fd59d63664"><path d="M 250.753906 201.824219 L 255.164062 193.03125 L 259.628906 201.824219 Z M 253.371094 190.484375 L 244.007812 208.894531 L 247.171875 208.894531 L 249.570312 204.132812 L 260.792969 204.132812 L 263.210938 208.894531 L 266.339844 208.894531 L 256.972656 190.484375 Z M 253.371094 190.484375 "/></clipPath><clipPath id="b4547b8420"><path d="M 0 0.425781 L 22.347656 0.425781 L 22.347656 18.933594 L 0 18.933594 Z M 0 0.425781 "/></clipPath><clipPath id="d449c7bab7"><path d="M 6.753906 11.824219 L 11.164062 3.03125 L 15.628906 11.824219 Z M 9.371094 0.484375 L 0.0078125 18.894531 L 3.171875 18.894531 L 5.570312 14.132812 L 16.792969 14.132812 L 19.210938 18.894531 L 22.339844 18.894531 L 12.972656 0.484375 Z M 9.371094 0.484375 "/></clipPath><clipPath id="117fab5088"><rect x="0" width="23" y="0" height="19"/></clipPath><clipPath id="003d70169a"><path d="M 170.265625 221.351562 L 177.199219 221.351562 L 177.199219 228.609375 L 170.265625 228.609375 Z M 170.265625 221.351562 "/></clipPath><clipPath id="4213a6dc03"><path d="M 174.039062 228.597656 C 172.164062 228.597656 170.265625 227.460938 170.265625 224.929688 C 170.265625 223.171875 171.6875 221.351562 174.066406 221.351562 C 175.691406 221.351562 176.5625 222.1875 176.980469 222.589844 L 177.128906 222.734375 L 176.390625 223.507812 L 176.285156 223.410156 C 175.894531 223.070312 175.164062 222.4375 174.101562 222.4375 C 172.378906 222.4375 171.351562 223.703125 171.351562 224.929688 C 171.351562 226.476562 172.445312 227.511719 174.074219 227.511719 C 175.402344 227.511719 176.117188 226.9375 176.117188 226.394531 L 176.117188 225.613281 L 173.824219 225.613281 L 173.824219 224.53125 L 177.199219 224.53125 L 177.199219 226.449219 C 177.199219 227.710938 175.898438 228.597656 174.039062 228.597656 "/></clipPath><clipPath id="1580acb729"><path d="M 0.265625 0.351562 L 7.199219 0.351562 L 7.199219 7.609375 L 0.265625 7.609375 Z M 0.265625 0.351562 "/></clipPath><clipPath id="d3a4fe9a09"><path d="M 4.039062 7.597656 C 2.164062 7.597656 0.265625 6.460938 0.265625 3.929688 C 0.265625 2.171875 1.6875 0.351562 4.066406 0.351562 C 5.691406 0.351562 6.5625 1.1875 6.980469 1.589844 L 7.128906 1.734375 L 6.390625 2.507812 L 6.285156 2.410156 C 5.894531 2.070312 5.164062 1.4375 4.101562 1.4375 C 2.378906 1.4375 1.351562 2.703125 1.351562 3.929688 C 1.351562 5.476562 2.445312 6.511719 4.074219 6.511719 C 5.402344 6.511719 6.117188 5.9375 6.117188 5.394531 L 6.117188 4.613281 L 3.824219 4.613281 L 3.824219 3.53125 L 7.199219 3.53125 L 7.199219 5.449219 C 7.199219 6.710938 5.898438 7.597656 4.039062 7.597656 "/></clipPath><clipPath id="3d9e5d3732"><rect x="0" width="8" y="0" height="8"/></clipPath><clipPath id="9c929d9422"><path d="M 178.816406 221.46875 L 185.164062 221.46875 L 185.164062 228.480469 L 178.816406 228.480469 Z M 178.816406 221.46875 "/></clipPath><clipPath id="57ffb7dc7a"><path d="M 182.632812 224.601562 C 183.605469 224.601562 184.070312 224.445312 184.070312 223.5625 C 184.070312 222.648438 183.074219 222.578125 182.773438 222.578125 L 179.925781 222.578125 L 179.925781 224.601562 Z M 183.855469 228.453125 L 182.320312 225.683594 L 179.925781 225.683594 L 179.925781 228.453125 L 178.839844 228.453125 L 178.839844 221.496094 L 182.3125 221.496094 C 184.660156 221.496094 185.152344 222.613281 185.152344 223.554688 C 185.152344 225.101562 184.152344 225.53125 183.535156 225.652344 L 185.097656 228.453125 Z M 183.855469 228.453125 "/></clipPath><clipPath id="e80127002b"><path d="M 0.828125 0.46875 L 7.164062 0.46875 L 7.164062 7.480469 L 0.828125 7.480469 Z M 0.828125 0.46875 "/></clipPath><clipPath id="ac6e102bbc"><path d="M 4.632812 3.601562 C 5.605469 3.601562 6.070312 3.445312 6.070312 2.5625 C 6.070312 1.648438 5.074219 1.578125 4.773438 1.578125 L 1.925781 1.578125 L 1.925781 3.601562 Z M 5.855469 7.453125 L 4.320312 4.683594 L 1.925781 4.683594 L 1.925781 7.453125 L 0.839844 7.453125 L 0.839844 0.496094 L 4.3125 0.496094 C 6.660156 0.496094 7.152344 1.613281 7.152344 2.554688 C 7.152344 4.101562 6.152344 4.53125 5.535156 4.652344 L 7.097656 7.453125 Z M 5.855469 7.453125 "/></clipPath><clipPath id="09bbee2c77"><rect x="0" width="8" y="0" height="8"/></clipPath><clipPath id="0e9bd96ed4"><path d="M 185.59375 221.46875 L 193.167969 221.46875 L 193.167969 228.480469 L 185.59375 228.480469 Z M 185.59375 221.46875 "/></clipPath><clipPath id="344b7a3a8f"><path d="M 190.375 225.089844 L 189.402344 222.953125 L 188.390625 225.089844 Z M 191.945312 228.453125 L 190.863281 226.171875 L 187.859375 226.171875 L 186.8125 228.453125 L 185.605469 228.453125 L 188.917969 221.496094 L 189.890625 221.496094 L 193.148438 228.453125 Z M 191.945312 228.453125 "/></clipPath><clipPath id="ed4ad6fe0f"><path d="M 0.59375 0.46875 L 8.167969 0.46875 L 8.167969 7.480469 L 0.59375 7.480469 Z M 0.59375 0.46875 "/></clipPath><clipPath id="3915678e4a"><path d="M 5.375 4.089844 L 4.402344 1.953125 L 3.390625 4.089844 Z M 6.945312 7.453125 L 5.863281 5.171875 L 2.859375 5.171875 L 1.8125 7.453125 L 0.605469 7.453125 L 3.917969 0.496094 L 4.890625 0.496094 L 8.148438 7.453125 Z M 6.945312 7.453125 "/></clipPath><clipPath id="89cde06e65"><rect x="0" width="9" y="0" height="8"/></clipPath><clipPath id="6218a0883f"><path d="M 194.261719 221.46875 L 200.480469 221.46875 L 200.480469 228.480469 L 194.261719 228.480469 Z M 194.261719 221.46875 "/></clipPath><clipPath id="06bcd40f84"><path d="M 199.457031 228.453125 L 195.351562 223.289062 L 195.351562 228.453125 L 194.269531 228.453125 L 194.269531 221.496094 L 195.273438 221.496094 L 199.378906 226.726562 L 199.378906 221.496094 L 200.464844 221.496094 L 200.464844 228.453125 Z M 199.457031 228.453125 "/></clipPath><clipPath id="8f49a72eb7"><path d="M 0.261719 0.46875 L 6.480469 0.46875 L 6.480469 7.480469 L 0.261719 7.480469 Z M 0.261719 0.46875 "/></clipPath><clipPath id="208f19812c"><path d="M 5.457031 7.453125 L 1.351562 2.289062 L 1.351562 7.453125 L 0.269531 7.453125 L 0.269531 0.496094 L 1.273438 0.496094 L 5.378906 5.726562 L 5.378906 0.496094 L 6.464844 0.496094 L 6.464844 7.453125 Z M 5.457031 7.453125 "/></clipPath><clipPath id="947e44f6b3"><rect x="0" width="7" y="0" height="8"/></clipPath><clipPath id="0104aa4380"><path d="M 202.71875 221.496094 L 209.355469 221.496094 L 209.355469 228.472656 L 202.71875 228.472656 Z M 202.71875 221.496094 "/></clipPath><clipPath id="50c9fc86a4"><path d="M 206.132812 227.371094 C 207.53125 227.371094 208.273438 225.980469 208.273438 224.972656 C 208.273438 224.007812 207.59375 222.578125 206.132812 222.578125 L 203.800781 222.578125 L 203.800781 227.371094 Z M 202.71875 228.453125 L 202.71875 221.496094 L 206.132812 221.496094 C 208.355469 221.496094 209.355469 223.53125 209.355469 224.972656 C 209.355469 226.179688 208.683594 228.453125 206.132812 228.453125 Z M 202.71875 228.453125 "/></clipPath><clipPath id="5cc8d7e69b"><path d="M 0.71875 0.496094 L 7.355469 0.496094 L 7.355469 7.472656 L 0.71875 7.472656 Z M 0.71875 0.496094 "/></clipPath><clipPath id="4235befee0"><path d="M 4.132812 6.371094 C 5.53125 6.371094 6.273438 4.980469 6.273438 3.972656 C 6.273438 3.007812 5.59375 1.578125 4.132812 1.578125 L 1.800781 1.578125 L 1.800781 6.371094 Z M 0.71875 7.453125 L 0.71875 0.496094 L 4.132812 0.496094 C 6.355469 0.496094 7.355469 2.53125 7.355469 3.972656 C 7.355469 5.179688 6.683594 7.453125 4.132812 7.453125 Z M 0.71875 7.453125 "/></clipPath><clipPath id="b9ee1f3930"><rect x="0" width="8" y="0" height="8"/></clipPath><clipPath id="13f7e8954e"><path d="M 210.945312 221.496094 L 216.714844 221.496094 L 216.714844 222.578125 L 210.945312 222.578125 Z M 210.945312 222.578125 L 212.027344 222.578125 L 212.027344 224.308594 L 210.945312 224.308594 Z M 210.945312 224.308594 L 214.496094 224.308594 L 214.496094 225.390625 L 210.945312 225.390625 Z M 210.945312 225.390625 L 212.027344 225.390625 L 212.027344 227.371094 L 210.945312 227.371094 Z M 210.945312 227.371094 L 216.910156 227.371094 L 216.910156 228.453125 L 210.945312 228.453125 Z M 210.945312 227.371094 "/></clipPath><clipPath id="c99f69ad4b"><path d="M 0.945312 0.496094 L 6.714844 0.496094 L 6.714844 1.578125 L 0.945312 1.578125 Z M 0.945312 1.578125 L 2.027344 1.578125 L 2.027344 3.308594 L 0.945312 3.308594 Z M 0.945312 3.308594 L 4.496094 3.308594 L 4.496094 4.390625 L 0.945312 4.390625 Z M 0.945312 4.390625 L 2.027344 4.390625 L 2.027344 6.371094 L 0.945312 6.371094 Z M 0.945312 6.371094 L 6.910156 6.371094 L 6.910156 7.453125 L 0.945312 7.453125 Z M 0.945312 6.371094 "/></clipPath><clipPath id="a03a6d50fd"><rect x="0" width="7" y="0" height="8"/></clipPath><clipPath id="dc2f0a0abc"><path d="M 221.828125 221.496094 L 227.921875 221.496094 L 227.921875 228.46875 L 221.828125 228.46875 Z M 221.828125 221.496094 "/></clipPath><clipPath id="bb30f1de39"><path d="M 225.652344 224.523438 C 226.46875 224.523438 226.816406 224.230469 226.816406 223.554688 C 226.816406 222.878906 226.457031 222.578125 225.652344 222.578125 L 222.910156 222.578125 L 222.910156 224.523438 Z M 221.828125 228.453125 L 221.828125 221.496094 L 225.652344 221.496094 C 226.179688 221.496094 227.898438 221.644531 227.898438 223.554688 C 227.898438 224.878906 227.101562 225.605469 225.652344 225.605469 L 222.910156 225.605469 L 222.910156 228.453125 Z M 221.828125 228.453125 "/></clipPath><clipPath id="908d111b77"><path d="M 0.828125 0.496094 L 6.921875 0.496094 L 6.921875 7.46875 L 0.828125 7.46875 Z M 0.828125 0.496094 "/></clipPath><clipPath id="6789693904"><path d="M 4.652344 3.523438 C 5.46875 3.523438 5.816406 3.230469 5.816406 2.554688 C 5.816406 1.878906 5.457031 1.578125 4.652344 1.578125 L 1.910156 1.578125 L 1.910156 3.523438 Z M 0.828125 7.453125 L 0.828125 0.496094 L 4.652344 0.496094 C 5.179688 0.496094 6.898438 0.644531 6.898438 2.554688 C 6.898438 3.878906 6.101562 4.605469 4.652344 4.605469 L 1.910156 4.605469 L 1.910156 7.453125 Z M 0.828125 7.453125 "/></clipPath><clipPath id="21e871d2d6"><rect x="0" width="7" y="0" height="8"/></clipPath><clipPath id="018ee3bab4"><path d="M 229.410156 219.835938 L 235.636719 219.835938 L 235.636719 228.621094 L 229.410156 228.621094 Z M 229.410156 219.835938 "/></clipPath><clipPath id="3d24ec227b"><path d="M 231.8125 221.246094 L 232.707031 219.835938 L 234.191406 219.835938 L 232.9375 221.246094 Z M 232.523438 228.597656 C 230.472656 228.597656 229.433594 227.628906 229.433594 225.71875 L 229.433594 221.496094 L 230.515625 221.496094 L 230.515625 225.71875 C 230.515625 226.976562 231.117188 227.515625 232.523438 227.515625 C 233.929688 227.515625 234.53125 226.980469 234.53125 225.71875 L 234.53125 221.496094 L 235.613281 221.496094 L 235.613281 225.71875 C 235.613281 227.601562 234.542969 228.597656 232.523438 228.597656 "/></clipPath><clipPath id="2c27a2161d"><path d="M 0.421875 0.835938 L 6.636719 0.835938 L 6.636719 9.621094 L 0.421875 9.621094 Z M 0.421875 0.835938 "/></clipPath><clipPath id="f6cb990718"><path d="M 2.8125 2.246094 L 3.707031 0.835938 L 5.191406 0.835938 L 3.9375 2.246094 Z M 3.523438 9.597656 C 1.472656 9.597656 0.433594 8.628906 0.433594 6.71875 L 0.433594 2.496094 L 1.515625 2.496094 L 1.515625 6.71875 C 1.515625 7.976562 2.117188 8.515625 3.523438 8.515625 C 4.929688 8.515625 5.53125 7.980469 5.53125 6.71875 L 5.53125 2.496094 L 6.613281 2.496094 L 6.613281 6.71875 C 6.613281 8.601562 5.542969 9.597656 3.523438 9.597656 "/></clipPath><clipPath id="31328812c8"><rect x="0" width="7" y="0" height="10"/></clipPath><clipPath id="83ffe333d9"><path d="M 237.832031 221.496094 L 244.238281 221.496094 L 244.238281 228.453125 L 237.832031 228.453125 Z M 237.832031 221.496094 "/></clipPath><clipPath id="377861e306"><path d="M 241.691406 224.355469 C 242.421875 224.355469 242.84375 224.019531 242.84375 223.429688 C 242.84375 222.898438 242.414062 222.578125 241.691406 222.578125 L 238.914062 222.578125 L 238.914062 224.355469 Z M 241.691406 227.371094 C 242.71875 227.371094 243.15625 227.101562 243.15625 226.46875 C 243.15625 225.570312 242.238281 225.4375 241.691406 225.4375 L 238.914062 225.4375 L 238.914062 227.371094 Z M 237.832031 228.453125 L 237.832031 221.496094 L 241.691406 221.496094 C 242.722656 221.496094 243.925781 222.011719 243.925781 223.464844 C 243.925781 224.085938 243.683594 224.558594 243.402344 224.816406 C 243.84375 225.140625 244.238281 225.722656 244.238281 226.429688 C 244.238281 227.753906 243.355469 228.453125 241.691406 228.453125 Z M 237.832031 228.453125 "/></clipPath><clipPath id="1e9c0c146f"><path d="M 0.832031 0.496094 L 7.238281 0.496094 L 7.238281 7.453125 L 0.832031 7.453125 Z M 0.832031 0.496094 "/></clipPath><clipPath id="52b2b26d75"><path d="M 4.691406 3.355469 C 5.421875 3.355469 5.84375 3.019531 5.84375 2.429688 C 5.84375 1.898438 5.414062 1.578125 4.691406 1.578125 L 1.914062 1.578125 L 1.914062 3.355469 Z M 4.691406 6.371094 C 5.71875 6.371094 6.15625 6.101562 6.15625 5.46875 C 6.15625 4.570312 5.238281 4.4375 4.691406 4.4375 L 1.914062 4.4375 L 1.914062 6.371094 Z M 0.832031 7.453125 L 0.832031 0.496094 L 4.691406 0.496094 C 5.722656 0.496094 6.925781 1.011719 6.925781 2.464844 C 6.925781 3.085938 6.683594 3.558594 6.402344 3.816406 C 6.84375 4.140625 7.238281 4.722656 7.238281 5.429688 C 7.238281 6.753906 6.355469 7.453125 4.691406 7.453125 Z M 0.832031 7.453125 "/></clipPath><clipPath id="25ca1d8809"><rect x="0" width="8" y="0" height="8"/></clipPath><clipPath id="f884782ff7"><path d="M 246.023438 221.496094 L 247.105469 221.496094 L 247.105469 227.371094 L 246.023438 227.371094 Z M 246.023438 227.371094 L 251.285156 227.371094 L 251.285156 228.453125 L 246.023438 228.453125 Z M 246.023438 227.371094 "/></clipPath><clipPath id="e15c23d1e0"><path d="M 0.0234375 0.496094 L 1.105469 0.496094 L 1.105469 6.371094 L 0.0234375 6.371094 Z M 0.0234375 6.371094 L 5.285156 6.371094 L 5.285156 7.453125 L 0.0234375 7.453125 Z M 0.0234375 6.371094 "/></clipPath><clipPath id="11e1340a73"><rect x="0" width="6" y="0" height="8"/></clipPath><clipPath id="822d5393e9"><path d="M 252.441406 221.496094 L 253.523438 221.496094 L 253.523438 228.453125 L 252.441406 228.453125 Z M 252.441406 221.496094 "/></clipPath><clipPath id="781c9baebe"><path d="M 0.441406 0.496094 L 1.523438 0.496094 L 1.523438 7.453125 L 0.441406 7.453125 Z M 0.441406 0.496094 "/></clipPath><clipPath id="d38a4b757b"><rect x="0" width="2" y="0" height="8"/></clipPath><clipPath id="46d86d4351"><path d="M 255.304688 221.351562 L 262.585938 221.351562 L 262.585938 228.597656 L 255.304688 228.597656 Z M 255.304688 221.351562 "/></clipPath><clipPath id="4c8fc90a3e"><path d="M 259.152344 228.597656 C 257.242188 228.597656 255.308594 227.351562 255.308594 224.976562 C 255.308594 222.621094 257.226562 221.351562 259.035156 221.351562 C 260.953125 221.351562 262.007812 222.378906 262.351562 222.71875 L 262.464844 222.828125 L 261.695312 223.574219 L 261.589844 223.484375 C 261.257812 223.195312 260.363281 222.4375 259.054688 222.4375 C 257.386719 222.4375 256.390625 223.71875 256.390625 224.957031 C 256.390625 226.195312 257.371094 227.511719 259.1875 227.511719 C 260.597656 227.511719 261.3125 226.808594 261.65625 226.46875 L 261.820312 226.308594 L 262.558594 227.132812 L 262.394531 227.285156 C 261.929688 227.730469 261.027344 228.597656 259.152344 228.597656 "/></clipPath><clipPath id="df4876fa82"><path d="M 0.304688 0.351562 L 7.585938 0.351562 L 7.585938 7.597656 L 0.304688 7.597656 Z M 0.304688 0.351562 "/></clipPath><clipPath id="a504a15076"><path d="M 4.152344 7.597656 C 2.242188 7.597656 0.308594 6.351562 0.308594 3.976562 C 0.308594 1.621094 2.226562 0.351562 4.035156 0.351562 C 5.953125 0.351562 7.007812 1.378906 7.351562 1.71875 L 7.464844 1.828125 L 6.695312 2.574219 L 6.589844 2.484375 C 6.257812 2.195312 5.363281 1.4375 4.054688 1.4375 C 2.386719 1.4375 1.390625 2.71875 1.390625 3.957031 C 1.390625 5.195312 2.371094 6.511719 4.1875 6.511719 C 5.597656 6.511719 6.3125 5.808594 6.65625 5.46875 L 6.820312 5.308594 L 7.558594 6.132812 L 7.394531 6.285156 C 6.929688 6.730469 6.027344 7.597656 4.152344 7.597656 "/></clipPath><clipPath id="22abc0c848"><rect x="0" width="8" y="0" height="8"/></clipPath><clipPath id="682904ba9f"><path d="M 263.78125 221.351562 L 271.269531 221.351562 L 271.269531 228.597656 L 263.78125 228.597656 Z M 263.78125 221.351562 "/></clipPath><clipPath id="1f8f744203"><path d="M 267.527344 222.4375 C 266.046875 222.4375 264.882812 223.550781 264.882812 224.976562 C 264.882812 226.398438 266.046875 227.515625 267.527344 227.515625 C 269.011719 227.515625 270.171875 226.398438 270.171875 224.976562 C 270.171875 223.550781 269.011719 222.4375 267.527344 222.4375 M 267.527344 228.597656 C 265.472656 228.597656 263.800781 226.972656 263.800781 224.972656 C 263.800781 222.945312 265.4375 221.351562 267.527344 221.351562 C 269.585938 221.351562 271.257812 222.976562 271.257812 224.976562 C 271.257812 226.972656 269.585938 228.597656 267.527344 228.597656 "/></clipPath><clipPath id="a70eedc455"><path d="M 0.78125 0.351562 L 8.269531 0.351562 L 8.269531 7.597656 L 0.78125 7.597656 Z M 0.78125 0.351562 "/></clipPath><clipPath id="da7263391b"><path d="M 4.527344 1.4375 C 3.046875 1.4375 1.882812 2.550781 1.882812 3.976562 C 1.882812 5.398438 3.046875 6.515625 4.527344 6.515625 C 6.011719 6.515625 7.171875 5.398438 7.171875 3.976562 C 7.171875 2.550781 6.011719 1.4375 4.527344 1.4375 M 4.527344 7.597656 C 2.472656 7.597656 0.800781 5.972656 0.800781 3.972656 C 0.800781 1.945312 2.4375 0.351562 4.527344 0.351562 C 6.585938 0.351562 8.257812 1.976562 8.257812 3.976562 C 8.257812 5.972656 6.585938 7.597656 4.527344 7.597656 "/></clipPath><clipPath id="c7857337e7"><rect x="0" width="9" y="0" height="8"/></clipPath><clipPath id="c519d291b9"><rect x="0" width="234" y="0" height="87"/></clipPath><clipPath id="4720a212af"><path d="M 382.402344 0.75 L 421.390625 0.75 L 421.390625 39.738281 L 382.402344 39.738281 Z M 382.402344 0.75 "/></clipPath><clipPath id="af867c740a"><rect x="0" width="330" y="0" height="100"/></clipPath><clipPath id="63f725dbc8"><rect x="0" width="439" y="0" height="267"/></clipPath></defs><g id="0c3cff6fcf"><g clip-rule="nonzero" clip-path="url(#212008f37b)"><path style=" stroke:none;fill-rule:nonzero;fill:#ffffff;fill-opacity:1;" d="M 0.015625 0 L 594.984375 0 L 594.984375 841.5 L 0.015625 841.5 Z M 0.015625 0 "/><path style=" stroke:none;fill-rule:nonzero;fill:#fcfaf7;fill-opacity:1;" d="M 0.015625 0 L 594.984375 0 L 594.984375 841.5 L 0.015625 841.5 Z M 0.015625 0 "/></g><g transform="matrix(1,0,0,1,78,287)"><g clip-path="url(#63f725dbc8)"><g clip-rule="nonzero" clip-path="url(#b8d0470e34)"><g clip-rule="nonzero" clip-path="url(#c4ee3c2c74)"><path style="fill:none;stroke-width:1.42229;stroke-linecap:butt;stroke-linejoin:miter;stroke:url(#147276bc19);stroke-miterlimit:4;" d="M 3.556764 -0.00120889 L 399.972741 -0.00120889 C 400.914364 -0.00120889 401.818915 0.373216 402.486207 1.040508 C 403.1535 1.7078 403.527925 2.612352 403.527925 3.553975 L 403.527925 209.97707 C 403.527925 210.918694 403.1535 211.823245 402.486207 212.490537 C 401.818915 213.157829 400.914364 213.532254 399.972741 213.532254 L 3.556764 213.532254 C 2.611433 213.532254 1.706882 213.157829 1.03959 212.490537 C 0.376005 211.823245 0.00157964 210.918694 0.00157964 209.97707 L 0.00157964 3.553975 C 0.00157964 2.612352 0.376005 1.7078 1.03959 1.040508 C 1.706882 0.373216 2.611433 -0.00120889 3.556764 -0.00120889 Z M 3.556764 -0.00120889 " transform="matrix(1.053699,0,0,1.053699,6.896773,20.470024)"/></g></g><g clip-rule="nonzero" clip-path="url(#dcbd84935c)"><path style=" stroke:none;fill-rule:nonzero;fill:#2d0b24;fill-opacity:1;" d="M 40.667969 224.214844 C 38.597656 241.726562 36.914062 243.40625 19.40625 245.480469 C 19.441406 245.484375 19.476562 245.488281 19.511719 245.492188 L 19.515625 245.492188 C 36.921875 247.558594 38.601562 249.269531 40.667969 266.742188 C 42.742188 249.230469 44.421875 247.550781 61.929688 245.480469 C 44.421875 243.40625 42.742188 241.726562 40.667969 224.214844 Z M 40.667969 224.214844 "/></g><g clip-rule="nonzero" clip-path="url(#be0b51af5c)"><g clip-rule="nonzero" clip-path="url(#c09bbc61a6)"><g transform="matrix(1,0,0,1,175,187)"><g id="ea38f7fb81" clip-path="url(#ebf1b08fa0)"><g clip-rule="nonzero" clip-path="url(#6a2f755adc)"><g clip-rule="nonzero" clip-path="url(#f0da29b977)"><rect x="0" width="26" y="0" height="24" style="fill:#2d0b24;fill-opacity:1;stroke:none;"/></g></g></g></g></g></g><g clip-rule="nonzero" clip-path="url(#6645c4ecf4)"><g clip-rule="nonzero" clip-path="url(#406cf2574b)"><g transform="matrix(1,0,0,1,168,190)"><g id="b576779e77" clip-path="url(#73147fca8c)"><g clip-rule="nonzero" clip-path="url(#23eac273c3)"><g clip-rule="nonzero" clip-path="url(#64af53a117)"><rect x="0" width="7" y="0" height="7" style="fill:#2d0b24;fill-opacity:1;stroke:none;"/></g></g></g></g></g></g><g clip-rule="nonzero" clip-path="url(#1c7e605878)"><g transform="matrix(1,0,0,1,156,190)"><g id="9a4e57a5b3" clip-path="url(#d6c182b7ed)"><g clip-rule="nonzero" clip-path="url(#90e45e422c)"><path style=" stroke:none;fill-rule:nonzero;fill:#2d0b24;fill-opacity:1;" d="M 0.0898438 -3.386719 L 45.230469 -3.386719 L 45.230469 21.203125 L 0.0898438 21.203125 Z M 0.0898438 -3.386719 "/></g></g></g></g><g clip-rule="nonzero" clip-path="url(#68f46cfb5a)"><g clip-rule="nonzero" clip-path="url(#a9a1f4700d)"><g transform="matrix(1,0,0,1,203,190)"><g id="fcecfe0975" clip-path="url(#e53f0ba6ba)"><g clip-rule="nonzero" clip-path="url(#b74a2ce819)"><g clip-rule="nonzero" clip-path="url(#662e9b96a6)"><path style=" stroke:none;fill-rule:nonzero;fill:#2d0b24;fill-opacity:1;" d="M 0.863281 0.484375 L 19.921875 0.484375 L 19.921875 18.894531 L 0.863281 18.894531 Z M 0.863281 0.484375 "/></g></g></g></g></g></g><g clip-rule="nonzero" clip-path="url(#a8f764f6f9)"><g transform="matrix(1,0,0,1,226,190)"><g id="ab3d1cf78e" clip-path="url(#98530629bd)"><g clip-rule="nonzero" clip-path="url(#63f3be0ac3)"><rect x="0" width="17" y="0" height="19" style="fill:#2d0b24;fill-opacity:1;stroke:none;"/></g></g></g></g><g clip-rule="nonzero" clip-path="url(#d7f825e023)"><g clip-rule="nonzero" clip-path="url(#757cb811c1)"><g transform="matrix(1,0,0,1,232,187)"><g id="68cd0cc78f" clip-path="url(#4cc950c763)"><g clip-rule="nonzero" clip-path="url(#4a30a893ba)"><g clip-rule="nonzero" clip-path="url(#885a71c35f)"><rect x="0" width="8" y="0" height="4" style="fill:#2d0b24;fill-opacity:1;stroke:none;"/></g></g></g></g></g></g><g clip-rule="nonzero" clip-path="url(#5647b831f8)"><g transform="matrix(1,0,0,1,267,190)"><g id="33674cd346" clip-path="url(#7fbd4891a8)"><g clip-rule="nonzero" clip-path="url(#07cb683a91)"><rect x="0" width="18" y="0" height="19" style="fill:#2d0b24;fill-opacity:1;stroke:none;"/></g></g></g></g><g clip-rule="nonzero" clip-path="url(#66f2f09aa6)"><g clip-rule="nonzero" clip-path="url(#fd59d63664)"><g transform="matrix(1,0,0,1,244,190)"><g id="2c520f3749" clip-path="url(#117fab5088)"><g clip-rule="nonzero" clip-path="url(#b4547b8420)"><g clip-rule="nonzero" clip-path="url(#d449c7bab7)"><rect x="0" width="23" y="0" height="19" style="fill:#2d0b24;fill-opacity:1;stroke:none;"/></g></g></g></g></g></g><g clip-rule="nonzero" clip-path="url(#003d70169a)"><g clip-rule="nonzero" clip-path="url(#4213a6dc03)"><g transform="matrix(1,0,0,1,170,221)"><g id="99ceb8a492" clip-path="url(#3d9e5d3732)"><g clip-rule="nonzero" clip-path="url(#1580acb729)"><g clip-rule="nonzero" clip-path="url(#d3a4fe9a09)"><path style=" stroke:none;fill-rule:nonzero;fill:#2d0b24;fill-opacity:1;" d="M 0.265625 0.351562 L 7.199219 0.351562 L 7.199219 7.582031 L 0.265625 7.582031 Z M 0.265625 0.351562 "/></g></g></g></g></g></g><g clip-rule="nonzero" clip-path="url(#9c929d9422)"><g clip-rule="nonzero" clip-path="url(#57ffb7dc7a)"><g transform="matrix(1,0,0,1,178,221)"><g id="35d7da03dc" clip-path="url(#09bbee2c77)"><g clip-rule="nonzero" clip-path="url(#e80127002b)"><g clip-rule="nonzero" clip-path="url(#ac6e102bbc)"><path style=" stroke:none;fill-rule:nonzero;fill:#2d0b24;fill-opacity:1;" d="M 0.0859375 -0.257812 L 23.207031 -0.257812 L 23.207031 8.207031 L 0.0859375 8.207031 Z M 0.0859375 -0.257812 "/></g></g></g></g></g></g><g clip-rule="nonzero" clip-path="url(#0e9bd96ed4)"><g clip-rule="nonzero" clip-path="url(#344b7a3a8f)"><g transform="matrix(1,0,0,1,185,221)"><g id="dd8d2b86fe" clip-path="url(#89cde06e65)"><g clip-rule="nonzero" clip-path="url(#ed4ad6fe0f)"><g clip-rule="nonzero" clip-path="url(#3915678e4a)"><rect x="0" width="9" y="0" height="8" style="fill:#2d0b24;fill-opacity:1;stroke:none;"/></g></g></g></g></g></g><g clip-rule="nonzero" clip-path="url(#6218a0883f)"><g clip-rule="nonzero" clip-path="url(#06bcd40f84)"><g transform="matrix(1,0,0,1,194,221)"><g id="ac6c1b9241" clip-path="url(#947e44f6b3)"><g clip-rule="nonzero" clip-path="url(#8f49a72eb7)"><g clip-rule="nonzero" clip-path="url(#208f19812c)"><rect x="0" width="7" y="0" height="8" style="fill:#2d0b24;fill-opacity:1;stroke:none;"/></g></g></g></g></g></g><g clip-rule="nonzero" clip-path="url(#0104aa4380)"><g clip-rule="nonzero" clip-path="url(#50c9fc86a4)"><g transform="matrix(1,0,0,1,202,221)"><g id="1b5efba0d1" clip-path="url(#b9ee1f3930)"><g clip-rule="nonzero" clip-path="url(#5cc8d7e69b)"><g clip-rule="nonzero" clip-path="url(#4235befee0)"><path style=" stroke:none;fill-rule:nonzero;fill:#2d0b24;fill-opacity:1;" d="M 0.71875 0.496094 L 7.355469 0.496094 L 7.355469 7.445312 L 0.71875 7.445312 Z M 0.71875 0.496094 "/></g></g></g></g></g></g><g clip-rule="nonzero" clip-path="url(#13f7e8954e)"><g transform="matrix(1,0,0,1,210,221)"><g id="55f8ea65ad" clip-path="url(#a03a6d50fd)"><g clip-rule="nonzero" clip-path="url(#c99f69ad4b)"><path style=" stroke:none;fill-rule:nonzero;fill:#2d0b24;fill-opacity:1;" d="M 0.945312 0.496094 L 6.910156 0.496094 L 6.910156 7.460938 L 0.945312 7.460938 Z M 0.945312 0.496094 "/></g></g></g></g><g clip-rule="nonzero" clip-path="url(#dc2f0a0abc)"><g clip-rule="nonzero" clip-path="url(#bb30f1de39)"><g transform="matrix(1,0,0,1,221,221)"><g id="8f58168c85" clip-path="url(#21e871d2d6)"><g clip-rule="nonzero" clip-path="url(#908d111b77)"><g clip-rule="nonzero" clip-path="url(#6789693904)"><path style=" stroke:none;fill-rule:nonzero;fill:#2d0b24;fill-opacity:1;" d="M 0.828125 0.496094 L 6.898438 0.496094 L 6.898438 7.445312 L 0.828125 7.445312 Z M 0.828125 0.496094 "/></g></g></g></g></g></g><g clip-rule="nonzero" clip-path="url(#018ee3bab4)"><g clip-rule="nonzero" clip-path="url(#3d24ec227b)"><g transform="matrix(1,0,0,1,229,219)"><g id="fbc3dd4b96" clip-path="url(#31328812c8)"><g clip-rule="nonzero" clip-path="url(#2c27a2161d)"><g clip-rule="nonzero" clip-path="url(#f6cb990718)"><path style=" stroke:none;fill-rule:nonzero;fill:#2d0b24;fill-opacity:1;" d="M 0.433594 0.835938 L 6.613281 0.835938 L 6.613281 9.59375 L 0.433594 9.59375 Z M 0.433594 0.835938 "/></g></g></g></g></g></g><g clip-rule="nonzero" clip-path="url(#83ffe333d9)"><g clip-rule="nonzero" clip-path="url(#377861e306)"><g transform="matrix(1,0,0,1,237,221)"><g id="6c8c50e7bf" clip-path="url(#25ca1d8809)"><g clip-rule="nonzero" clip-path="url(#1e9c0c146f)"><g clip-rule="nonzero" clip-path="url(#52b2b26d75)"><path style=" stroke:none;fill-rule:nonzero;fill:#2d0b24;fill-opacity:1;" d="M 0.832031 0.496094 L 7.238281 0.496094 L 7.238281 7.453125 L 0.832031 7.453125 Z M 0.832031 0.496094 "/></g></g></g></g></g></g><g clip-rule="nonzero" clip-path="url(#f884782ff7)"><g transform="matrix(1,0,0,1,246,221)"><g id="384ef4f089" clip-path="url(#11e1340a73)"><g clip-rule="nonzero" clip-path="url(#e15c23d1e0)"><rect x="0" width="6" y="0" height="8" style="fill:#2d0b24;fill-opacity:1;stroke:none;"/></g></g></g></g><g clip-rule="nonzero" clip-path="url(#822d5393e9)"><g transform="matrix(1,0,0,1,252,221)"><g id="b4badeb769" clip-path="url(#d38a4b757b)"><g clip-rule="nonzero" clip-path="url(#781c9baebe)"><rect x="0" width="2" y="0" height="8" style="fill:#2d0b24;fill-opacity:1;stroke:none;"/></g></g></g></g><g clip-rule="nonzero" clip-path="url(#46d86d4351)"><g clip-rule="nonzero" clip-path="url(#4c8fc90a3e)"><g transform="matrix(1,0,0,1,255,221)"><g id="7d158397de" clip-path="url(#22abc0c848)"><g clip-rule="nonzero" clip-path="url(#df4876fa82)"><g clip-rule="nonzero" clip-path="url(#a504a15076)"><rect x="0" width="8" y="0" height="8" style="fill:#2d0b24;fill-opacity:1;stroke:none;"/></g></g></g></g></g></g><g clip-rule="nonzero" clip-path="url(#682904ba9f)"><g clip-rule="nonzero" clip-path="url(#1f8f744203)"><g transform="matrix(1,0,0,1,263,221)"><g id="d061062394" clip-path="url(#c7857337e7)"><g clip-rule="nonzero" clip-path="url(#a70eedc455)"><g clip-rule="nonzero" clip-path="url(#da7263391b)"><rect x="0" width="9" y="0" height="8" style="fill:#2d0b24;fill-opacity:1;stroke:none;"/></g></g></g></g></g></g><g transform="matrix(1,0,0,1,103,26)"><g id="d0e38799e6" clip-path="url(#c519d291b9)"><g style="fill:#2d0b24;fill-opacity:1;"><g transform="translate(3.839008, 68.207811)"><path style="stroke:none" d="M -0.90625 -3.9375 L 0.078125 -3.9375 C 0.847656 -3.9375 1.597656 -3.984375 2.328125 -4.078125 C 3.054688 -4.171875 3.722656 -4.375 4.328125 -4.6875 C 4.929688 -5 5.453125 -5.441406 5.890625 -6.015625 C 6.335938 -6.597656 6.660156 -7.375 6.859375 -8.34375 L 14.40625 -43.921875 C 14.519531 -44.398438 14.625 -44.875 14.71875 -45.34375 C 14.820312 -45.8125 14.875 -46.140625 14.875 -46.328125 C 14.875 -46.859375 14.738281 -47.289062 14.46875 -47.625 C 14.207031 -47.96875 13.84375 -48.226562 13.375 -48.40625 C 12.90625 -48.59375 12.335938 -48.710938 11.671875 -48.765625 C 11.015625 -48.828125 10.300781 -48.859375 9.53125 -48.859375 L 8.59375 -48.859375 L 9.375 -52.765625 L 32.296875 -52.765625 C 38.023438 -52.765625 42.335938 -51.832031 45.234375 -49.96875 C 48.128906 -48.101562 49.578125 -45.34375 49.578125 -41.6875 C 49.578125 -39.664062 49.269531 -37.882812 48.65625 -36.34375 C 48.050781 -34.800781 47.207031 -33.46875 46.125 -32.34375 C 45.039062 -31.226562 43.765625 -30.3125 42.296875 -29.59375 C 40.828125 -28.875 39.238281 -28.320312 37.53125 -27.9375 L 37.453125 -27.640625 C 38.773438 -27.398438 39.988281 -26.988281 41.09375 -26.40625 C 42.207031 -25.832031 43.160156 -25.09375 43.953125 -24.1875 C 44.742188 -23.289062 45.363281 -22.226562 45.8125 -21 C 46.257812 -19.769531 46.484375 -18.390625 46.484375 -16.859375 C 46.484375 -14.160156 46.023438 -11.765625 45.109375 -9.671875 C 44.191406 -7.578125 42.84375 -5.8125 41.0625 -4.375 C 39.28125 -2.945312 37.0625 -1.859375 34.40625 -1.109375 C 31.75 -0.367188 28.675781 0 25.1875 0 L -1.703125 0 Z M 17.640625 -4.515625 L 22.765625 -4.515625 C 24.859375 -4.515625 26.632812 -4.789062 28.09375 -5.34375 C 29.550781 -5.894531 30.734375 -6.710938 31.640625 -7.796875 C 32.554688 -8.878906 33.222656 -10.21875 33.640625 -11.8125 C 34.066406 -13.414062 34.28125 -15.265625 34.28125 -17.359375 C 34.28125 -20.054688 33.664062 -22.054688 32.4375 -23.359375 C 31.21875 -24.671875 29.316406 -25.328125 26.734375 -25.328125 L 22.078125 -25.328125 Z M 23.0625 -29.921875 L 27.203125 -29.921875 C 30.691406 -29.921875 33.210938 -30.828125 34.765625 -32.640625 C 36.316406 -34.453125 37.09375 -37.046875 37.09375 -40.421875 C 37.09375 -43.035156 36.503906 -44.992188 35.328125 -46.296875 C 34.148438 -47.597656 32.429688 -48.25 30.171875 -48.25 L 26.890625 -48.25 Z M 23.0625 -29.921875 "/></g></g><g style="fill:#2d0b24;fill-opacity:1;"><g transform="translate(51.118007, 68.207811)"><path style="stroke:none" d="M 29.625 -9.234375 C 30.132812 -8.921875 30.390625 -8.304688 30.390625 -7.390625 C 30.390625 -5.421875 29.226562 -3.578125 26.90625 -1.859375 C 24.582031 -0.140625 21.472656 0.71875 17.578125 0.71875 C 13.265625 0.71875 9.785156 -0.640625 7.140625 -3.359375 C 4.492188 -6.078125 3.171875 -9.804688 3.171875 -14.546875 C 3.171875 -20.992188 5.25 -26.90625 9.40625 -32.28125 C 13.570312 -37.65625 18.832031 -40.34375 25.1875 -40.34375 C 28.3125 -40.34375 30.734375 -39.597656 32.453125 -38.109375 C 34.179688 -36.617188 35.046875 -34.535156 35.046875 -31.859375 C 35.046875 -27.867188 32.96875 -24.394531 28.8125 -21.4375 C 24.664062 -18.476562 19.597656 -17 13.609375 -17 L 12.34375 -17 C 11.90625 -17 11.457031 -17.019531 11 -17.0625 C 10.90625 -16.394531 10.859375 -15.363281 10.859375 -13.96875 C 10.859375 -7.28125 13.566406 -3.9375 18.984375 -3.9375 C 23.191406 -3.9375 26.738281 -5.703125 29.625 -9.234375 Z M 11.6875 -20.46875 L 12.40625 -20.46875 C 16.769531 -20.46875 20.363281 -21.523438 23.1875 -23.640625 C 26.007812 -25.753906 27.421875 -28.492188 27.421875 -31.859375 C 27.421875 -35.160156 25.988281 -36.8125 23.125 -36.8125 C 20.75 -36.8125 18.523438 -35.3125 16.453125 -32.3125 C 14.390625 -29.320312 12.800781 -25.375 11.6875 -20.46875 Z M 11.6875 -20.46875 "/></g></g><g style="fill:#2d0b24;fill-opacity:1;"><g transform="translate(85.192212, 68.207811)"><path style="stroke:none" d="M 27 -11.15625 L 26.53125 -11.15625 C 22.988281 -3.238281 18.378906 0.71875 12.703125 0.71875 C 9.691406 0.71875 7.347656 -0.460938 5.671875 -2.828125 C 4.003906 -5.203125 3.171875 -8.519531 3.171875 -12.78125 C 3.171875 -19.5625 5.28125 -25.847656 9.5 -31.640625 C 13.726562 -37.441406 18.957031 -40.34375 25.1875 -40.34375 C 28.53125 -40.34375 31.414062 -39.453125 33.84375 -37.671875 L 37.09375 -39.546875 L 39.484375 -39.546875 L 34.421875 -15.875 C 33.703125 -12.488281 33.34375 -9.757812 33.34375 -7.6875 C 33.34375 -5.1875 34.148438 -3.9375 35.765625 -3.9375 C 37.160156 -3.9375 38.941406 -4.570312 41.109375 -5.84375 L 42.4375 -3.6875 C 38.90625 -0.75 35.429688 0.71875 32.015625 0.71875 C 28.160156 0.71875 26.234375 -1.320312 26.234375 -5.40625 C 26.234375 -6.976562 26.488281 -8.894531 27 -11.15625 Z M 31.171875 -34.359375 C 30.046875 -36.140625 28.179688 -37.03125 25.578125 -37.03125 C 21.367188 -37.03125 17.835938 -34.351562 14.984375 -29 C 12.140625 -23.644531 10.71875 -18.140625 10.71875 -12.484375 C 10.71875 -6.785156 12.269531 -3.9375 15.375 -3.9375 C 17.820312 -3.9375 20.394531 -5.75 23.09375 -9.375 C 25.789062 -13.007812 27.570312 -16.984375 28.4375 -21.296875 Z M 31.171875 -34.359375 "/></g></g><g style="fill:#2d0b24;fill-opacity:1;"><g transform="translate(125.616263, 68.207811)"><path style="stroke:none" d="M 4.875 -39.625 L 18.625 -39.625 L 13.75 -17.5 C 12.757812 -13.03125 12.265625 -10.0625 12.265625 -8.59375 C 12.265625 -5.582031 13.46875 -4.078125 15.875 -4.078125 C 18.40625 -4.078125 21.128906 -5.898438 24.046875 -9.546875 C 26.972656 -13.191406 28.878906 -17.082031 29.765625 -21.21875 L 33.640625 -39.625 L 40.78125 -39.625 L 35.6875 -15.875 C 34.945312 -12.382812 34.578125 -9.65625 34.578125 -7.6875 C 34.578125 -5.1875 35.394531 -3.9375 37.03125 -3.9375 C 38.425781 -3.9375 40 -4.476562 41.75 -5.5625 L 43.09375 -3.390625 C 39.957031 -0.648438 36.828125 0.71875 33.703125 0.71875 C 31.847656 0.71875 30.347656 0.0546875 29.203125 -1.265625 C 28.066406 -2.585938 27.5 -4.257812 27.5 -6.28125 C 27.5 -7.550781 27.617188 -9.003906 27.859375 -10.640625 L 27.28125 -10.640625 C 24.613281 -6.242188 22.222656 -3.257812 20.109375 -1.6875 C 18.003906 -0.125 15.628906 0.65625 12.984375 0.65625 C 7.722656 0.65625 5.09375 -2.078125 5.09375 -7.546875 C 5.09375 -9.109375 5.535156 -11.8125 6.421875 -15.65625 L 9.3125 -28.609375 C 9.738281 -30.566406 9.953125 -32.035156 9.953125 -33.015625 C 9.953125 -35.347656 8.234375 -36.515625 4.796875 -36.515625 L 4.21875 -36.515625 Z M 4.875 -39.625 "/></g></g><g style="fill:#2d0b24;fill-opacity:1;"><g transform="translate(167.519554, 68.207811)"><path style="stroke:none" d="M 22.234375 -5.5625 L 23.5 -2.8125 C 20.175781 -0.457031 16.851562 0.71875 13.53125 0.71875 C 8.164062 0.71875 5.484375 -2.15625 5.484375 -7.90625 C 5.484375 -9.757812 5.722656 -11.828125 6.203125 -14.109375 L 10.71875 -35.40625 L 5.09375 -35.40625 L 5.78125 -38.359375 C 10.582031 -38.359375 14.34375 -41.8125 17.0625 -48.71875 L 20.46875 -48.71875 L 18.546875 -39.625 L 27.5 -39.625 L 26.59375 -35.40625 L 17.640625 -35.40625 L 13.171875 -14.328125 C 12.566406 -11.484375 12.265625 -9.363281 12.265625 -7.96875 C 12.265625 -5.28125 13.578125 -3.9375 16.203125 -3.9375 C 18.203125 -3.9375 20.210938 -4.476562 22.234375 -5.5625 Z M 22.234375 -5.5625 "/></g></g><g style="fill:#2d0b24;fill-opacity:1;"><g transform="translate(192.357617, 68.207811)"><path style="stroke:none" d="M 5.921875 -32.59375 C 5.484375 -34.03125 4.890625 -35.039062 4.140625 -35.625 C 3.398438 -36.21875 2.296875 -36.515625 0.828125 -36.515625 L 0.078125 -36.515625 L 0.65625 -39.625 L 11.4375 -39.625 L 17.21875 -19.671875 C 19 -13.484375 20.03125 -9.019531 20.3125 -6.28125 L 20.53125 -6.28125 C 27.195312 -16.40625 30.53125 -24.582031 30.53125 -30.8125 C 30.53125 -33.488281 29.316406 -34.828125 26.890625 -34.828125 C 26.890625 -36.484375 27.367188 -37.800781 28.328125 -38.78125 C 29.285156 -39.769531 30.414062 -40.265625 31.71875 -40.265625 C 35.0625 -40.265625 36.734375 -38.195312 36.734375 -34.0625 C 36.734375 -28.125 33.410156 -19.769531 26.765625 -9 C 20.128906 1.757812 14.804688 8.90625 10.796875 12.4375 C 6.796875 15.976562 1.523438 17.75 -5.015625 17.75 C -7.609375 17.75 -9.929688 17.304688 -11.984375 16.421875 L -10.859375 12.703125 C -9.128906 13.253906 -7.207031 13.53125 -5.09375 13.53125 C 1.957031 13.53125 8.875 9.046875 15.65625 0.078125 Z M 5.921875 -32.59375 "/></g></g></g></g><g clip-rule="nonzero" clip-path="url(#4720a212af)"><path style=" stroke:none;fill-rule:nonzero;fill:#cea50e;fill-opacity:1;" d="M 402.121094 0.75 C 400.199219 16.988281 398.640625 18.542969 382.402344 20.464844 C 382.4375 20.46875 382.472656 20.472656 382.503906 20.476562 C 398.648438 22.394531 400.203125 23.980469 402.121094 40.183594 C 404.042969 23.945312 405.597656 22.386719 421.835938 20.464844 C 405.597656 18.542969 404.042969 16.988281 402.121094 0.75 Z M 402.121094 0.75 "/></g><g transform="matrix(1,0,0,1,55,84)"><g id="b53a8bd2f5" clip-path="url(#af867c740a)"><g style="fill:#cea50e;fill-opacity:1;"><g transform="translate(1.278008, 77.868297)"><path style="stroke:none" d="M 36.1875 -5.953125 C 38.269531 -5.953125 40.125 -6.191406 41.75 -6.671875 C 43.375 -7.160156 44.820312 -7.789062 46.09375 -8.5625 C 47.375 -9.34375 48.488281 -10.21875 49.4375 -11.1875 C 50.394531 -12.15625 51.238281 -13.113281 51.96875 -14.0625 C 52.40625 -13.726562 52.753906 -13.210938 53.015625 -12.515625 C 53.285156 -11.828125 53.421875 -11.125 53.421875 -10.40625 C 53.421875 -9.207031 53.097656 -7.945312 52.453125 -6.625 C 51.816406 -5.3125 50.75 -4.097656 49.25 -2.984375 C 47.757812 -1.878906 45.78125 -0.96875 43.3125 -0.25 C 40.84375 0.46875 37.789062 0.828125 34.15625 0.828125 C 29.21875 0.828125 24.90625 0.0820312 21.21875 -1.40625 C 17.53125 -2.90625 14.460938 -5.03125 12.015625 -7.78125 C 9.578125 -10.53125 7.75 -13.832031 6.53125 -17.6875 C 5.3125 -21.539062 4.703125 -25.8125 4.703125 -30.5 C 4.703125 -35.101562 5.328125 -39.316406 6.578125 -43.140625 C 7.828125 -46.972656 9.675781 -50.257812 12.125 -53 C 14.582031 -55.75 17.644531 -57.882812 21.3125 -59.40625 C 24.988281 -60.9375 29.242188 -61.703125 34.078125 -61.703125 C 37.347656 -61.703125 40.195312 -61.441406 42.625 -60.921875 C 45.050781 -60.410156 47.066406 -59.710938 48.671875 -58.828125 C 50.285156 -57.941406 51.492188 -56.894531 52.296875 -55.6875 C 53.097656 -54.476562 53.5 -53.179688 53.5 -51.796875 C 53.5 -50.742188 53.269531 -49.765625 52.8125 -48.859375 C 52.351562 -47.960938 51.671875 -47.179688 50.765625 -46.515625 C 49.867188 -45.847656 48.753906 -45.328125 47.421875 -44.953125 C 46.097656 -44.578125 44.570312 -44.390625 42.84375 -44.390625 C 42.84375 -45.804688 42.691406 -47.210938 42.390625 -48.609375 C 42.085938 -50.015625 41.566406 -51.285156 40.828125 -52.421875 C 40.097656 -53.554688 39.132812 -54.476562 37.9375 -55.1875 C 36.75 -55.894531 35.265625 -56.25 33.484375 -56.25 C 30.796875 -56.25 28.519531 -55.675781 26.65625 -54.53125 C 24.800781 -53.394531 23.3125 -51.734375 22.1875 -49.546875 C 21.070312 -47.359375 20.265625 -44.660156 19.765625 -41.453125 C 19.265625 -38.253906 19.015625 -34.601562 19.015625 -30.5 C 19.015625 -26.394531 19.316406 -22.800781 19.921875 -19.71875 C 20.535156 -16.644531 21.519531 -14.085938 22.875 -12.046875 C 24.238281 -10.003906 26.007812 -8.476562 28.1875 -7.46875 C 30.363281 -6.457031 33.03125 -5.953125 36.1875 -5.953125 Z M 36.1875 -5.953125 "/></g></g><g style="fill:#cea50e;fill-opacity:1;"><g transform="translate(55.474525, 77.868297)"><path style="stroke:none" d="M 33.234375 -34.15625 C 33.234375 -38.644531 32.097656 -40.890625 29.828125 -40.890625 C 27.191406 -40.890625 24.394531 -38.296875 21.4375 -33.109375 C 18.488281 -27.929688 16.304688 -22.066406 14.890625 -15.515625 L 11.6875 0 L 3.75 0 L 10.90625 -34.234375 C 11.238281 -35.816406 11.40625 -37.09375 11.40625 -38.0625 C 11.40625 -40.757812 9.144531 -42.109375 4.625 -42.109375 L 3.90625 -42.109375 L 4.703125 -45.6875 L 19.765625 -45.6875 L 17.96875 -33.40625 L 18.84375 -33.40625 C 21.113281 -38.476562 23.359375 -41.929688 25.578125 -43.765625 C 27.804688 -45.597656 30.390625 -46.515625 33.328125 -46.515625 C 37.984375 -46.515625 40.3125 -44.554688 40.3125 -40.640625 C 40.3125 -36.316406 37.953125 -34.15625 33.234375 -34.15625 Z M 33.234375 -34.15625 "/></g></g><g style="fill:#cea50e;fill-opacity:1;"><g transform="translate(92.5956, 77.868297)"><path style="stroke:none" d="M 34.15625 -10.65625 C 34.738281 -10.289062 35.03125 -9.582031 35.03125 -8.53125 C 35.03125 -6.25 33.691406 -4.117188 31.015625 -2.140625 C 28.335938 -0.160156 24.753906 0.828125 20.265625 0.828125 C 15.296875 0.828125 11.285156 -0.734375 8.234375 -3.859375 C 5.179688 -6.992188 3.65625 -11.296875 3.65625 -16.765625 C 3.65625 -24.203125 6.054688 -31.019531 10.859375 -37.21875 C 15.660156 -43.414062 21.71875 -46.515625 29.03125 -46.515625 C 32.644531 -46.515625 35.441406 -45.65625 37.421875 -43.9375 C 39.398438 -42.21875 40.390625 -39.816406 40.390625 -36.734375 C 40.390625 -32.128906 38 -28.117188 33.21875 -24.703125 C 28.4375 -21.296875 22.59375 -19.59375 15.6875 -19.59375 L 14.234375 -19.59375 C 13.734375 -19.59375 13.21875 -19.617188 12.6875 -19.671875 C 12.570312 -18.898438 12.515625 -17.707031 12.515625 -16.09375 C 12.515625 -8.382812 15.640625 -4.53125 21.890625 -4.53125 C 26.734375 -4.53125 30.820312 -6.570312 34.15625 -10.65625 Z M 13.484375 -23.59375 L 14.3125 -23.59375 C 19.332031 -23.59375 23.472656 -24.8125 26.734375 -27.25 C 29.992188 -29.6875 31.625 -32.847656 31.625 -36.734375 C 31.625 -40.535156 29.972656 -42.4375 26.671875 -42.4375 C 23.921875 -42.4375 21.351562 -40.707031 18.96875 -37.25 C 16.582031 -33.800781 14.753906 -29.25 13.484375 -23.59375 Z M 13.484375 -23.59375 "/></g></g><g style="fill:#cea50e;fill-opacity:1;"><g transform="translate(131.879597, 77.868297)"><path style="stroke:none" d="M 31.125 -12.859375 L 30.578125 -12.859375 C 26.503906 -3.734375 21.191406 0.828125 14.640625 0.828125 C 11.171875 0.828125 8.472656 -0.535156 6.546875 -3.265625 C 4.617188 -5.992188 3.65625 -9.816406 3.65625 -14.734375 C 3.65625 -22.546875 6.085938 -29.796875 10.953125 -36.484375 C 15.828125 -43.171875 21.851562 -46.515625 29.03125 -46.515625 C 32.894531 -46.515625 36.226562 -45.488281 39.03125 -43.4375 L 42.765625 -45.59375 L 45.515625 -45.59375 L 39.6875 -18.3125 C 38.851562 -14.394531 38.4375 -11.242188 38.4375 -8.859375 C 38.4375 -5.972656 39.367188 -4.53125 41.234375 -4.53125 C 42.835938 -4.53125 44.890625 -5.265625 47.390625 -6.734375 L 48.921875 -4.25 C 44.847656 -0.863281 40.84375 0.828125 36.90625 0.828125 C 32.46875 0.828125 30.25 -1.523438 30.25 -6.234375 C 30.25 -8.035156 30.539062 -10.242188 31.125 -12.859375 Z M 35.9375 -39.609375 C 34.632812 -41.660156 32.488281 -42.6875 29.5 -42.6875 C 24.644531 -42.6875 20.570312 -39.597656 17.28125 -33.421875 C 14 -27.253906 12.359375 -20.910156 12.359375 -14.390625 C 12.359375 -7.816406 14.144531 -4.53125 17.71875 -4.53125 C 20.550781 -4.53125 23.519531 -6.625 26.625 -10.8125 C 29.726562 -15 31.78125 -19.578125 32.78125 -24.546875 Z M 35.9375 -39.609375 "/></g></g><g style="fill:#cea50e;fill-opacity:1;"><g transform="translate(178.484256, 77.868297)"><path style="stroke:none" d="M 25.625 -6.40625 L 27.078125 -3.25 C 23.253906 -0.53125 19.425781 0.828125 15.59375 0.828125 C 9.414062 0.828125 6.328125 -2.484375 6.328125 -9.109375 C 6.328125 -11.242188 6.601562 -13.628906 7.15625 -16.265625 L 12.359375 -40.8125 L 5.859375 -40.8125 L 6.65625 -44.21875 C 12.207031 -44.21875 16.546875 -48.203125 19.671875 -56.171875 L 23.59375 -56.171875 L 21.390625 -45.6875 L 31.703125 -45.6875 L 30.65625 -40.8125 L 20.34375 -40.8125 L 15.1875 -16.515625 C 14.488281 -13.242188 14.140625 -10.800781 14.140625 -9.1875 C 14.140625 -6.082031 15.65625 -4.53125 18.6875 -4.53125 C 20.988281 -4.53125 23.300781 -5.15625 25.625 -6.40625 Z M 25.625 -6.40625 "/></g></g><g style="fill:#cea50e;fill-opacity:1;"><g transform="translate(207.120019, 77.868297)"><path style="stroke:none" d="M 29.03125 -46.515625 C 34.050781 -46.515625 38.003906 -45 40.890625 -41.96875 C 43.773438 -38.945312 45.21875 -34.582031 45.21875 -28.875 C 45.21875 -21.300781 42.898438 -14.457031 38.265625 -8.34375 C 33.640625 -2.226562 27.554688 0.828125 20.015625 0.828125 C 14.878906 0.828125 10.867188 -0.722656 7.984375 -3.828125 C 5.097656 -6.929688 3.65625 -11.242188 3.65625 -16.765625 C 3.65625 -24.421875 5.992188 -31.289062 10.671875 -37.375 C 15.347656 -43.46875 21.46875 -46.515625 29.03125 -46.515625 Z M 20.96875 -3.328125 C 25.65625 -3.328125 29.390625 -6.109375 32.171875 -11.671875 C 34.960938 -17.234375 36.359375 -23.394531 36.359375 -30.15625 C 36.359375 -38.0625 33.585938 -42.015625 28.046875 -42.015625 C 23.410156 -42.015625 19.660156 -39.226562 16.796875 -33.65625 C 13.941406 -28.082031 12.515625 -21.882812 12.515625 -15.0625 C 12.515625 -7.238281 15.332031 -3.328125 20.96875 -3.328125 Z M 20.96875 -3.328125 "/></g></g><g style="fill:#cea50e;fill-opacity:1;"><g transform="translate(253.308732, 77.868297)"><path style="stroke:none" d="M 33.234375 -34.15625 C 33.234375 -38.644531 32.097656 -40.890625 29.828125 -40.890625 C 27.191406 -40.890625 24.394531 -38.296875 21.4375 -33.109375 C 18.488281 -27.929688 16.304688 -22.066406 14.890625 -15.515625 L 11.6875 0 L 3.75 0 L 10.90625 -34.234375 C 11.238281 -35.816406 11.40625 -37.09375 11.40625 -38.0625 C 11.40625 -40.757812 9.144531 -42.109375 4.625 -42.109375 L 3.90625 -42.109375 L 4.703125 -45.6875 L 19.765625 -45.6875 L 17.96875 -33.40625 L 18.84375 -33.40625 C 21.113281 -38.476562 23.359375 -41.929688 25.578125 -43.765625 C 27.804688 -45.597656 30.390625 -46.515625 33.328125 -46.515625 C 37.984375 -46.515625 40.3125 -44.554688 40.3125 -40.640625 C 40.3125 -36.316406 37.953125 -34.15625 33.234375 -34.15625 Z M 33.234375 -34.15625 "/></g></g><g style="fill:#cea50e;fill-opacity:1;"><g transform="translate(290.429806, 77.868297)"><path style="stroke:none" d="M 30.828125 -33.078125 C 30.828125 -35.929688 30.15625 -38.21875 28.8125 -39.9375 C 27.46875 -41.65625 25.585938 -42.515625 23.171875 -42.515625 C 20.617188 -42.515625 18.597656 -41.828125 17.109375 -40.453125 C 15.628906 -39.085938 14.890625 -37.335938 14.890625 -35.203125 C 14.890625 -33.316406 15.597656 -31.707031 17.015625 -30.375 C 18.429688 -29.039062 20.625 -27.722656 23.59375 -26.421875 C 30.414062 -23.367188 33.828125 -18.957031 33.828125 -13.1875 C 33.828125 -9 32.21875 -5.613281 29 -3.03125 C 25.78125 -0.457031 21.507812 0.828125 16.1875 0.828125 C 11.882812 0.828125 8.460938 -0.0351562 5.921875 -1.765625 C 3.390625 -3.503906 2.125 -5.84375 2.125 -8.78125 C 2.125 -10.613281 2.628906 -12.003906 3.640625 -12.953125 C 4.648438 -13.910156 5.929688 -14.390625 7.484375 -14.390625 C 7.484375 -10.867188 8.335938 -8.128906 10.046875 -6.171875 C 11.753906 -4.222656 14.144531 -3.25 17.21875 -3.25 C 23.351562 -3.25 26.421875 -5.882812 26.421875 -11.15625 C 26.421875 -13.175781 25.765625 -14.882812 24.453125 -16.28125 C 23.148438 -17.6875 20.9375 -19.109375 17.8125 -20.546875 C 13.726562 -22.492188 10.984375 -24.5 9.578125 -26.5625 C 8.179688 -28.625 7.484375 -31.015625 7.484375 -33.734375 C 7.484375 -37.453125 9 -40.492188 12.03125 -42.859375 C 15.070312 -45.234375 19.035156 -46.421875 23.921875 -46.421875 C 28.109375 -46.421875 31.375 -45.644531 33.71875 -44.09375 C 36.0625 -42.539062 37.234375 -40.628906 37.234375 -38.359375 C 37.234375 -34.835938 35.097656 -33.078125 30.828125 -33.078125 Z M 30.828125 -33.078125 "/></g></g></g></g></g></g></g></svg>