<svg width="253" height="175" viewBox="0 0 253 175" fill="none" xmlns="http://www.w3.org/2000/svg">
<g filter="url(#filter0_d_3629_569)">
<path d="M241.771 69.4379L229.292 78.1728L241.161 86.0485L226.283 91.6736L234.693 102.046L218.762 104.491L223.696 116.359L207.72 116.009L209.532 128.598L194.113 125.917L193.191 138.734L178.684 134.092L175.373 146.789L162.002 140.49L156.544 152.825L144.482 145.089L137.106 156.865L126.506 147.889L117.36 158.928L108.417 148.837L97.5959 158.905L90.5709 147.818L78.163 156.652L73.3954 144.722L59.5221 151.965L57.4104 139.423L42.3055 144.607L43.3885 131.81L27.4684 134.326L32.3251 121.887L16.4408 121.054L25.3612 109.94L10.8166 105.414L23.2967 96.6866L11.4174 88.8052L26.2967 83.1872L17.8854 72.8074L33.8167 70.3624L28.8924 58.5008L44.8675 58.8431L43.0552 46.2547L58.4744 48.9351L59.3885 36.1273L73.8943 40.7614L77.2153 28.07L90.5864 34.3697L96.0359 22.0361L108.097 29.7719L115.473 17.989L126.083 26.9702L135.219 15.9324L144.171 26.0226L154.984 15.9558L162.007 27.0357L174.416 18.209L179.192 30.1305L193.065 22.8871L195.168 35.4303L210.282 30.2451L209.19 43.044L225.111 40.5345L220.254 52.9738L236.137 53.7998L227.227 64.9196L241.771 69.4379Z" fill="#E3A535"/>
</g>
<path d="M56.6763 78.5185C58.858 78.1786 60.391 79.2879 60.681 81.1495C60.9544 82.9043 59.7847 84.3617 57.5338 84.7245L56.5989 84.8822L56.9314 87.0165L54.7141 87.3619L53.4157 79.0264L56.6763 78.5185ZM57.1853 82.7992C58.1931 82.6422 58.4976 82.0239 58.4089 81.4548C58.3129 80.8382 57.8055 80.31 56.8214 80.4633L55.9321 80.6019L56.296 82.9377L57.1853 82.7992ZM67.141 85.4261L65.445 83.5043L64.4727 83.6557L64.8052 85.79L62.5879 86.1354L61.2894 77.7999L64.7873 77.255C66.9334 76.9207 68.4126 78.0748 68.6934 79.8771C68.8744 81.039 68.4238 82.0444 67.5209 82.7194L69.7258 85.0235L67.141 85.4261ZM63.8004 79.3398L64.179 81.7705L65.2817 81.5987C66.0999 81.4712 66.5284 80.8701 66.425 80.2061C66.316 79.5066 65.7449 79.0369 64.8675 79.1735L63.8004 79.3398ZM74.9561 84.3545C72.3712 84.7571 70.1667 83.1574 69.7863 80.7148C69.4039 78.2604 71.0211 76.0897 73.6059 75.687C76.167 75.2881 78.3349 76.8085 78.7264 79.3222C79.1143 81.8122 77.5172 83.9555 74.9561 84.3545ZM74.6365 82.3032C75.8697 82.1111 76.6193 80.9985 76.4143 79.6824C76.2056 78.3425 75.1586 77.5462 73.9254 77.7383C72.6686 77.9341 71.8915 79.0267 72.0984 80.3547C72.3015 81.6589 73.3797 82.499 74.6365 82.3032ZM85.2935 78.0442L87.3685 77.721L87.9096 81.1951C87.5775 81.6354 86.6193 82.5012 84.7222 82.7967C82.1136 83.2031 79.974 81.6297 79.6046 79.2583C79.2352 76.8869 80.782 74.6542 83.4972 74.2312C85.169 73.9708 86.1852 74.3347 86.6975 74.5828L85.9941 76.5384C85.4462 76.2958 84.9113 76.1363 83.9271 76.2896C82.5399 76.5057 81.7362 77.5053 81.9523 78.8926C82.161 80.2324 83.2936 80.9547 84.5505 80.7589C84.9418 80.6979 85.3375 80.5877 85.6573 80.38L85.2935 78.0442ZM94.0392 81.2361L92.3432 79.3142L91.371 79.4657L91.7034 81.6L89.4862 81.9453L88.1877 73.6099L91.6855 73.065C93.8316 72.7307 95.3109 73.8848 95.5916 75.687C95.7727 76.849 95.322 77.8544 94.4192 78.5294L96.6241 80.8334L94.0392 81.2361ZM90.6986 75.1497L91.0773 77.5804L92.18 77.4087C92.9981 77.2812 93.4267 76.6801 93.3233 76.0161C93.2143 75.3165 92.6432 74.8468 91.7658 74.9835L90.6986 75.1497ZM103.37 79.7826L102.583 78.4721L99.5833 78.9394L99.2322 80.4272L96.9082 80.7892L99.3565 71.8701L100.72 71.6577L105.718 79.4169L103.37 79.7826ZM100.47 74.7327L99.8628 77.147L101.772 76.8497L100.47 74.7327ZM115.757 77.8531L113.539 78.1985L112.91 74.3131L111.634 77.8152L110.258 78.0295L108.01 75.137L108.595 78.9687L106.378 79.3141L105.281 70.9472L106.763 70.7163L110.595 75.3539L112.834 69.7707L114.245 69.5509L115.757 77.8531ZM122.858 76.7469L122.071 75.4364L119.071 75.9037L118.72 77.3915L116.396 77.7535L118.844 68.8344L120.208 68.622L125.206 76.3812L122.858 76.7469ZM119.958 71.6971L119.35 74.1114L121.259 73.814L119.958 71.6971ZM130.085 73.6173L133.891 73.0244L134.196 74.9808L128.149 75.9228L126.85 67.5873L132.873 66.649L133.18 68.6173L129.398 69.2065L129.582 70.3922L132.902 69.875L133.203 71.8077L129.883 72.3249L130.085 73.6173ZM143.43 73.5424L140.762 73.958L138.637 71.5442L137.371 74.4862L134.786 74.8888L137.053 70.2608L133.618 66.5331L136.321 66.1119L138.175 68.4222L139.357 65.6391L141.942 65.2365L139.777 69.7393L143.43 73.5424ZM147.618 72.9993C145.009 73.4056 142.959 71.7819 142.589 69.4105C142.222 67.0509 143.666 64.8586 146.286 64.4504C147.946 64.1918 148.969 64.6762 149.308 64.8297L148.613 66.7597C148.452 66.6633 147.783 66.3425 146.894 66.4811C145.471 66.7027 144.689 67.6868 144.9 69.0385C145.118 70.4376 146.172 71.1235 147.595 70.9019C148.484 70.7633 149.018 70.2186 149.13 70.0797L150.38 71.7068C150.103 71.9564 149.325 72.7333 147.618 72.9993ZM153.518 69.9427L157.217 69.3665L157.526 71.3466L151.55 72.2775L150.251 63.942L152.528 63.5874L153.518 69.9427ZM162.064 70.749C159.775 71.1055 158.031 70.0413 157.635 67.5039L156.919 62.9034L159.183 62.5506L159.928 67.329C160.048 68.0997 160.576 68.9162 161.75 68.7333C162.935 68.5486 163.214 67.6066 163.094 66.8358L162.349 62.0575L164.614 61.7047L165.331 66.3052C165.726 68.8426 164.388 70.387 162.064 70.749ZM170.261 69.4721C168.921 69.6808 167.747 69.475 166.745 68.9632L167.523 67.0203C168.4 67.5031 169.094 67.6742 170.114 67.5154C170.659 67.4304 170.923 67.1708 170.865 66.8033C170.799 66.3764 170.465 66.2584 169.237 66.0974C167.352 65.8446 166.545 65.2659 166.349 64.009C166.102 62.4202 167.234 61.1873 169.214 60.8789C170.435 60.6886 171.447 60.871 172.38 61.3209L171.695 63.1642C170.988 62.8371 170.179 62.7081 169.467 62.8189C168.851 62.915 168.557 63.1309 168.61 63.4747C168.66 63.7948 168.907 63.902 170.186 64.0794C172.022 64.3277 172.889 64.9821 173.087 66.2508C173.355 67.97 172.324 69.1507 170.261 69.4721ZM174.847 68.6484L173.549 60.3129L175.825 59.9583L177.124 68.2938L174.847 68.6484ZM182.571 58.9075L184.966 58.5344L182.791 67.411L181.427 67.6234L176.643 59.831L179.156 59.4394L180.808 62.3275L181.67 64.0393L181.947 62.1502L182.571 58.9075ZM190.875 66.2975C188.29 66.7001 186.085 65.1004 185.705 62.6578C185.322 60.2034 186.94 58.0327 189.524 57.63C192.085 57.2311 194.253 58.7515 194.645 61.2652C195.033 63.7552 193.436 65.8985 190.875 66.2975ZM190.555 64.2462C191.788 64.0541 192.538 62.9415 192.333 61.6254C192.124 60.2855 191.077 59.4892 189.844 59.6813C188.587 59.8771 187.81 60.9697 188.017 62.2977C188.22 63.6019 189.298 64.442 190.555 64.2462ZM55.0308 93.9557C57.2125 93.6159 58.7455 94.7251 59.0355 96.5867C59.3088 98.3415 58.1392 99.7989 55.8882 100.162L54.9534 100.319L55.2858 102.454L53.0686 102.799L51.7701 94.4636L55.0308 93.9557ZM55.5398 98.2364C56.5476 98.0794 56.8521 97.4612 56.7634 96.892C56.6674 96.2755 56.16 95.7473 55.1759 95.9006L54.2866 96.0391L54.6505 98.3749L55.5398 98.2364ZM65.76 100.822L64.9729 99.5117L61.9731 99.979L61.6219 101.467L59.298 101.829L61.7463 92.9096L63.1099 92.6972L68.1077 100.456L65.76 100.822ZM62.8602 95.7723L62.2526 98.1866L64.1616 97.8892L62.8602 95.7723ZM73.4156 99.6296L71.7196 97.7078L70.7473 97.8592L71.0798 99.9935L68.8625 100.339L67.564 92.0034L71.0619 91.4585C73.208 91.1242 74.6872 92.2783 74.968 94.0805C75.149 95.2425 74.6984 96.2479 73.7955 96.9229L76.0004 99.227L73.4156 99.6296ZM70.075 93.5433L70.4536 95.9739L71.5563 95.8022C72.3745 95.6747 72.803 95.0736 72.6996 94.4096C72.5906 93.71 72.0195 93.2403 71.1421 93.377L70.075 93.5433ZM82.7466 98.1761L81.9595 96.8656L78.9597 97.3329L78.6085 98.8207L76.2845 99.1827L78.7329 90.2636L80.0964 90.0512L85.0943 97.8104L82.7466 98.1761ZM79.8468 93.1262L79.2391 95.5405L81.1481 95.2432L79.8468 93.1262ZM93.0672 90.1924L89.3441 90.7724L89.6008 92.4205L92.7548 91.9292L93.0835 94.0398L89.9296 94.5311L90.3138 96.9973L88.0372 97.3519L86.7388 89.0165L92.7384 88.0819L93.0672 90.1924ZM99.0257 95.7495C96.7373 96.106 94.9928 95.0418 94.5975 92.5044L93.8809 87.9039L96.1455 87.5511L96.8899 92.3295C97.0099 93.1002 97.5379 93.9167 98.7117 93.7338C99.8974 93.5491 100.176 92.6071 100.056 91.8364L99.3114 87.058L101.576 86.7052L102.293 91.3057C102.688 93.8431 101.35 95.3875 99.0257 95.7495ZM108.682 85.5982L110.9 85.2528L112.211 93.6713L110.966 93.8652L106.011 89.8885L106.72 94.4416L104.503 94.787L103.19 86.3567L104.447 86.1609L109.373 90.0327L108.682 85.5982ZM117.87 92.8142C115.261 93.2205 113.211 91.5967 112.841 89.2253C112.474 86.8658 113.918 84.6734 116.538 84.2652C118.198 84.0067 119.221 84.491 119.56 84.6446L118.865 86.5746C118.704 86.4782 118.035 86.1574 117.146 86.2959C115.723 86.5175 114.941 87.5016 115.152 88.8533C115.37 90.2524 116.424 90.9384 117.847 90.7167C118.736 90.5782 119.27 90.0334 119.382 89.8945L120.632 91.5216C120.355 91.7712 119.577 92.5482 117.87 92.8142ZM121.802 92.0923L120.503 83.7568L122.78 83.4022L124.078 91.7377L121.802 92.0923ZM129.886 90.9787C127.301 91.3814 125.097 89.7816 124.716 87.3391C124.334 84.8847 125.951 82.7139 128.536 82.3113C131.097 81.9123 133.265 83.4328 133.656 85.9465C134.044 88.4364 132.447 90.5798 129.886 90.9787ZM129.567 88.9275C130.8 88.7354 131.549 87.6228 131.344 86.3066C131.136 84.9668 130.089 84.1705 128.855 84.3625C127.599 84.5583 126.822 85.6509 127.028 86.9789C127.232 88.2832 128.31 89.1233 129.567 88.9275ZM139.796 80.7516L142.013 80.4063L143.324 88.8247L142.079 89.0187L137.124 85.042L137.833 89.595L135.616 89.9404L134.303 81.5101L135.56 81.3143L140.486 85.1862L139.796 80.7516ZM148.87 77.9657L145.596 79.3258L144.968 78.0999L147.975 76.1984L148.87 77.9657ZM150.508 87.6207L149.72 86.3103L146.721 86.7776L146.369 88.2653L144.045 88.6274L146.494 79.7082L147.857 79.4958L152.855 87.255L150.508 87.6207ZM147.608 82.5709L147 84.9852L148.909 84.6878L147.608 82.5709ZM158.163 86.4282L156.467 84.5064L155.495 84.6578L155.827 86.7921L153.61 87.1375L152.312 78.802L155.809 78.2571C157.955 77.9228 159.435 79.0769 159.715 80.8791C159.896 82.0411 159.446 83.0465 158.543 83.7215L160.748 86.0256L158.163 86.4282ZM154.822 80.3419L155.201 82.7725L156.304 82.6008C157.122 82.4733 157.551 81.8722 157.447 81.2082C157.338 80.5086 156.767 80.039 155.89 80.1756L154.822 80.3419ZM162.016 85.828L160.718 77.4925L162.994 77.1379L164.293 85.4734L162.016 85.828ZM170.1 84.7144C167.515 85.1171 165.311 83.5173 164.931 81.0748C164.548 78.6204 166.165 76.4496 168.75 76.047C171.311 75.648 173.479 77.1685 173.871 79.6822C174.259 82.1721 172.661 84.3155 170.1 84.7144ZM169.781 82.6632C171.014 82.4711 171.764 81.3584 171.559 80.0423C171.35 78.7025 170.303 77.9061 169.07 78.0982C167.813 78.294 167.036 79.3866 167.243 80.7146C167.446 82.0189 168.524 82.859 169.781 82.6632ZM178.55 83.3617C177.21 83.5704 176.037 83.3646 175.034 82.8529L175.812 80.9099C176.689 81.3927 177.384 81.5639 178.403 81.405C178.949 81.3201 179.212 81.0605 179.155 80.6929C179.088 80.266 178.754 80.1481 177.527 79.9871C175.641 79.7342 174.835 79.1555 174.639 77.8987C174.391 76.3098 175.523 75.077 177.503 74.7685C178.724 74.5783 179.737 74.7606 180.669 75.2105L179.984 77.0538C179.278 76.7267 178.468 76.5978 177.757 76.7086C177.14 76.8046 176.846 77.0205 176.9 77.3643C176.949 77.6845 177.197 77.7917 178.475 77.969C180.311 78.2174 181.179 78.8717 181.376 80.1404C181.644 81.8597 180.613 83.0404 178.55 83.3617ZM187.705 73.2887C190.586 72.8398 192.599 74.2265 192.989 76.7283C193.379 79.2301 191.884 81.1753 189.003 81.6241L185.707 82.1376L184.409 73.8021L187.705 73.2887ZM188.835 79.61C190.222 79.3939 190.882 78.4046 190.681 77.1122C190.476 75.796 189.545 75.0424 188.157 75.2585L186.984 75.4413L187.661 79.7929L188.835 79.61ZM200.136 79.89L199.348 78.5795L196.349 79.0468L195.997 80.5346L193.673 80.8966L196.122 71.9775L197.485 71.7651L202.483 79.5243L200.136 79.89ZM197.236 74.8402L196.628 77.2545L198.537 76.9571L197.236 74.8402ZM52.3083 116.07L56.0076 115.494L56.3161 117.474L50.3402 118.405L49.0417 110.07L51.3183 109.715L52.3083 116.07ZM54.8691 111.566L54.2697 109.122L56.0482 108.845L56.209 111.358L54.8691 111.566ZM62.6044 116.64C60.0196 117.043 57.8151 115.443 57.4346 113.001C57.0523 110.546 58.6694 108.376 61.2542 107.973C63.8154 107.574 65.9832 109.094 66.3748 111.608C66.7626 114.098 65.1655 116.241 62.6044 116.64ZM62.2849 114.589C63.518 114.397 64.2677 113.284 64.0627 111.968C63.8539 110.628 62.8069 109.832 61.5738 110.024C60.3169 110.22 59.5398 111.313 59.7467 112.641C59.9499 113.945 61.028 114.785 62.2849 114.589ZM72.8875 114.893L71.1914 112.971L70.2192 113.122L70.5516 115.257L68.3344 115.602L67.0359 107.267L70.5337 106.722C72.6799 106.387 74.1591 107.541 74.4399 109.344C74.6209 110.506 74.1702 111.511 73.2674 112.186L75.4723 114.49L72.8875 114.893ZM69.5469 108.806L69.9255 111.237L71.0282 111.065C71.8463 110.938 72.2749 110.337 72.1715 109.673C72.0625 108.973 71.4914 108.504 70.614 108.64L69.5469 108.806ZM78.6767 111.987L82.4828 111.394L82.7876 113.351L76.7405 114.293L75.4421 105.957L81.4654 105.019L81.772 106.987L77.9897 107.576L78.1744 108.762L81.4943 108.245L81.7954 110.178L78.4754 110.695L78.6767 111.987ZM89.7333 112.269L88.9462 110.958L85.9464 111.425L85.5952 112.913L83.2712 113.275L85.7196 104.356L87.0832 104.144L92.081 111.903L89.7333 112.269ZM86.8335 107.219L86.2258 109.633L88.1348 109.336L86.8335 107.219ZM94.792 109.452L98.4914 108.876L98.7998 110.856L92.8239 111.787L91.5255 103.452L93.802 103.097L94.792 109.452ZM106.568 105.092L108.643 104.769L109.184 108.243C108.852 108.683 107.893 109.549 105.996 109.845C103.388 110.251 101.248 108.678 100.879 106.306C100.509 103.935 102.056 101.702 104.771 101.279C106.443 101.019 107.459 101.383 107.972 101.631L107.268 103.586C106.72 103.344 106.185 103.184 105.201 103.337C103.814 103.554 103.01 104.553 103.226 105.94C103.435 107.28 104.568 108.003 105.825 107.807C106.216 107.746 106.612 107.636 106.931 107.428L106.568 105.092ZM115.313 108.284L113.617 106.362L112.645 106.514L112.977 108.648L110.76 108.993L109.462 100.658L112.96 100.113C115.106 99.7786 116.585 100.933 116.866 102.735C117.047 103.897 116.596 104.902 115.693 105.577L117.898 107.881L115.313 108.284ZM111.973 102.198L112.351 104.628L113.454 104.457C114.272 104.329 114.701 103.728 114.597 103.064C114.488 102.364 113.917 101.895 113.04 102.031L111.973 102.198ZM124.644 106.83L123.857 105.52L120.857 105.987L120.506 107.475L118.182 107.837L120.631 98.9179L121.994 98.7055L126.992 106.465L124.644 106.83ZM121.744 101.781L121.137 104.195L123.046 103.898L121.744 101.781ZM131.926 97.1584L134.144 96.813L135.455 105.231L134.21 105.425L129.255 101.449L129.964 106.002L127.747 106.347L126.434 97.9168L127.69 97.721L132.617 101.593L131.926 97.1584ZM139.158 96.0318C142.039 95.583 144.053 96.9696 144.442 99.4715C144.832 101.973 143.338 103.918 140.457 104.367L137.16 104.881L135.862 96.5453L139.158 96.0318ZM140.289 102.353C141.676 102.137 142.335 101.148 142.134 99.8554C141.929 98.5392 140.998 97.7856 139.611 98.0017L138.437 98.1845L139.115 102.536L140.289 102.353ZM148.337 101.136L152.143 100.543L152.447 102.499L146.4 103.441L145.102 95.1059L151.125 94.1677L151.432 96.1359L147.65 96.7251L147.834 97.9108L151.154 97.3937L151.455 99.3264L148.135 99.8435L148.337 101.136ZM158.46 93.0251C160.642 92.6853 162.175 93.7945 162.465 95.6561C162.738 97.4109 161.568 98.8683 159.317 99.2311L158.382 99.3889L158.715 101.523L156.498 101.869L155.199 93.5331L158.46 93.0251ZM158.969 97.3058C159.977 97.1488 160.281 96.5306 160.193 95.9614C160.096 95.3449 159.589 94.8167 158.605 94.97L157.716 95.1085L158.08 97.4443L158.969 97.3058ZM165.223 91.4494L164.595 90.2235L167.602 88.322L168.496 90.0894L165.223 91.4494ZM168.111 100.169C165.823 100.525 164.078 99.4611 163.683 96.9237L162.966 92.3232L165.231 91.9704L165.975 96.7488C166.095 97.5195 166.623 98.3359 167.797 98.1531C168.983 97.9684 169.261 97.0263 169.141 96.2556L168.397 91.4772L170.662 91.1245L171.378 95.725C171.773 98.2624 170.435 99.8067 168.111 100.169ZM178.181 93.9972C179.42 94.0715 179.988 94.8332 180.128 95.7343C180.359 97.2165 179.553 98.2772 177.157 98.6503L173.6 99.2044L172.302 90.8689L175.729 90.3351C177.97 89.9861 179.028 90.7805 179.233 92.0967C179.359 92.9029 178.947 93.6108 178.181 93.9972ZM177.14 92.69C177.064 92.2039 176.647 91.941 175.947 92.0499L174.738 92.2383L174.991 93.8627L176.212 93.6725C176.912 93.5635 177.221 93.2117 177.14 92.69ZM176.903 96.941C177.686 96.8191 178.014 96.428 177.932 95.9063C177.845 95.3491 177.447 95.1318 176.641 95.2574L175.242 95.4753L175.504 97.159L176.903 96.941ZM183.766 95.5927L187.465 95.0164L187.774 96.9966L181.798 97.9275L180.499 89.592L182.776 89.2374L183.766 95.5927ZM188.722 96.8488L187.424 88.5134L189.7 88.1587L190.999 96.4942L188.722 96.8488ZM196.658 95.7219C194.05 96.1282 192 94.5044 191.63 92.133C191.263 89.7735 192.706 87.5812 195.327 87.173C196.987 86.9144 198.009 87.3987 198.349 87.5523L197.654 89.4823C197.493 89.3859 196.824 89.0651 195.935 89.2036C194.512 89.4253 193.73 90.4093 193.94 91.761C194.158 93.1601 195.212 93.8461 196.635 93.6244C197.525 93.4859 198.059 92.9411 198.171 92.8023L199.42 94.4294C199.144 94.6789 198.366 95.4559 196.658 95.7219ZM204.472 94.5412C201.887 94.9439 199.682 93.3441 199.302 90.9016C198.919 88.4472 200.537 86.2764 203.121 85.8737C205.683 85.4748 207.85 86.9952 208.242 89.5089C208.63 91.9989 207.033 94.1423 204.472 94.5412ZM204.152 92.49C205.385 92.2979 206.135 91.1852 205.93 89.8691C205.721 88.5292 204.674 87.7329 203.441 87.925C202.184 88.1208 201.407 89.2134 201.614 90.5414C201.817 91.8457 202.895 92.6857 204.152 92.49Z" fill="white"/>
<defs>
<filter id="filter0_d_3629_569" x="6.81641" y="15.9324" width="238.955" height="150.996" filterUnits="userSpaceOnUse" color-interpolation-filters="sRGB">
<feFlood flood-opacity="0" result="BackgroundImageFix"/>
<feColorMatrix in="SourceAlpha" type="matrix" values="0 0 0 0 0 0 0 0 0 0 0 0 0 0 0 0 0 0 127 0" result="hardAlpha"/>
<feOffset dy="4"/>
<feGaussianBlur stdDeviation="2"/>
<feComposite in2="hardAlpha" operator="out"/>
<feColorMatrix type="matrix" values="0 0 0 0 0 0 0 0 0 0 0 0 0 0 0 0 0 0 0.2 0"/>
<feBlend mode="normal" in2="BackgroundImageFix" result="effect1_dropShadow_3629_569"/>
<feBlend mode="normal" in="SourceGraphic" in2="effect1_dropShadow_3629_569" result="shape"/>
</filter>
</defs>
</svg>
